<svg xmlns="http://www.w3.org/2000/svg" width="23" height="22" viewBox="0 0 23 22">
  <defs>
    <style>
      .cls-1 {
        fill: #fff;
        fill-rule: evenodd;
      }
    </style>
  </defs>
  <path class="cls-1" d="M1502.77,4882.79q4.77-5.73,9.53-11.45a0.219,0.219,0,0,0-.03-0.05,2.4,2.4,0,0,0-.26.18q-5.91,5.04-11.81,10.09a0.666,0.666,0,0,1-.76.14c-1.78-.62-3.56-1.22-5.35-1.82a0.772,0.772,0,0,1-.12-1.52q10.575-5.505,21.16-11.03a0.811,0.811,0,0,1,.96-0.03,0.834,0.834,0,0,1,.25.93q-0.93,6.21-1.85,12.41c-0.24,1.64-.48,3.28-0.73,4.92a0.729,0.729,0,0,1-1.03.67q-4.9-1.665-9.8-3.35A0.7,0.7,0,0,1,1502.77,4882.79Zm-1.02,1.21c1.32,0.45,2.57.88,3.87,1.32a2.838,2.838,0,0,1-.18.31c-0.75,1.03-1.51,2.04-2.25,3.07a0.791,0.791,0,0,1-.94.41,0.771,0.771,0,0,1-.5-0.86C1501.76,4886.86,1501.75,4885.47,1501.75,4884Z" transform="translate(-1493.38 -4867.16)"/>
</svg>
