<svg xmlns="http://www.w3.org/2000/svg" width="22" height="11.97" viewBox="0 0 22 11.97">
  <defs>
    <style>
      .cls-1 {
        fill: #b5b5b5;
        fill-rule: evenodd;
      }
    </style>
  </defs>
  <path class="cls-1" d="M389.253,4336.27h0l4.49-5.02a0.791,0.791,0,0,1,1.216,0,1.059,1.059,0,0,1,0,1.37l-3.015,3.37h18.2a0.972,0.972,0,0,1,0,1.93h-18.2l3.015,3.37a1.058,1.058,0,0,1,0,1.37,0.79,0.79,0,0,1-1.215,0l-4.49-5.02h0A1.058,1.058,0,0,1,389.253,4336.27Z" transform="translate(-389 -4330.97)"/>
</svg>
