<svg xmlns="http://www.w3.org/2000/svg" width="22.03" height="11.97" viewBox="0 0 22.03 11.97">
  <defs>
    <style>
      .cls-1 {
        fill: #fff;
        fill-rule: evenodd;
      }
    </style>
  </defs>
  <path class="cls-1" d="M1530.75,4336.27h0l-4.49-5.02a0.8,0.8,0,0,0-1.22,0,1.072,1.072,0,0,0,0,1.37l3.02,3.37h-18.2a0.971,0.971,0,0,0,0,1.93h18.2l-3.02,3.37a1.072,1.072,0,0,0,0,1.37,0.8,0.8,0,0,0,1.22,0l4.49-5.02h0A1.072,1.072,0,0,0,1530.75,4336.27Z" transform="translate(-1509 -4330.97)"/>
</svg>
