<svg xmlns="http://www.w3.org/2000/svg" width="17.84" height="18.97" viewBox="0 0 17.84 18.97">
  <defs>
    <style>
      .cls-1 {
        fill: #fff;
        fill-rule: evenodd;
      }
    </style>
  </defs>
  <path class="cls-1" d="M1187.67,3029.05a1.976,1.976,0,0,0-2.71,1.04,0.944,0.944,0,0,0,.24,1.12,0.886,0.886,0,0,0,1.17-.06,3.721,3.721,0,0,0,.26-0.34,0.239,0.239,0,0,1,.37-0.09,10.033,10.033,0,0,1,2.43,1.84,0.424,0.424,0,0,1,.08.45,1.887,1.887,0,0,1-.92,1.24,1.751,1.751,0,0,1-1.43-.05,17.072,17.072,0,0,1-9.55-9.87,1.677,1.677,0,0,1,1.01-2.4,0.464,0.464,0,0,1,.64.12l0.39,0.51c0.37,0.49.75,0.99,1.09,1.51a1.2,1.2,0,0,1,.29.62,0.806,0.806,0,0,1-.39.38,0.6,0.6,0,0,0-.14.12,0.919,0.919,0,0,0-.01,1.16,0.808,0.808,0,0,0,1.07.24,2.1,2.1,0,0,0,1.06-2.72,9.908,9.908,0,0,0-2.35-3.31,1.922,1.922,0,0,0-1.93-.44,3.641,3.641,0,0,0-2.33,1.83,3.738,3.738,0,0,0-.04,3.06,18.793,18.793,0,0,0,9.68,10.5l0.06,0.03a5.157,5.157,0,0,0,2.1.67h0.04a3.428,3.428,0,0,0,3.32-2.55,2.157,2.157,0,0,0-.42-2.29A9.739,9.739,0,0,0,1187.67,3029.05Zm-2.33-6.17a2.707,2.707,0,0,1,2.51,1.83,3.3,3.3,0,0,1,.18.82l0.04,0.27a0.9,0.9,0,0,0,.87.86h0.05a0.918,0.918,0,0,0,.85-0.99,4.687,4.687,0,0,0-4.41-4.63c-0.04.01-.09,0.01-0.13,0.02a1.157,1.157,0,0,0-.4.09,0.853,0.853,0,0,0-.49.99A0.91,0.91,0,0,0,1185.34,3022.88Zm7.91,2.55h0.25v-0.02a8.423,8.423,0,0,0-2.08-5.3,7.962,7.962,0,0,0-6.02-2.85,0.886,0.886,0,0,0-1.01.86,0.9,0.9,0,0,0,.96.95l0.72,0.06a6.567,6.567,0,0,1,5.58,5.65c0.02,0.17.04,0.35,0.05,0.53s0.02,0.34.04,0.5a0.893,0.893,0,0,0,.87.85h0.08a0.9,0.9,0,0,0,.81-0.93,1.042,1.042,0,0,0,0-.25Z" transform="translate(-1175.66 -3017.25)"/>
</svg>
