<svg xmlns="http://www.w3.org/2000/svg" width="19" height="9.97" viewBox="0 0 19 9.97">
  <defs>
    <style>
      .cls-1 {
        fill: #07c7ff;
        fill-rule: evenodd;
      }
    </style>
  </defs>
  <path class="cls-1" d="M510.781,2976.37h0l-3.877-4.17a0.709,0.709,0,0,0-1.05,0,0.856,0.856,0,0,0,0,1.14l2.6,2.8H492.742a0.808,0.808,0,0,0,0,1.61h15.717l-2.6,2.8a0.843,0.843,0,0,0,0,1.13,0.7,0.7,0,0,0,1.05,0l3.877-4.17h0A0.855,0.855,0,0,0,510.781,2976.37Z" transform="translate(-492 -2971.97)"/>
</svg>
