<svg xmlns="http://www.w3.org/2000/svg" width="55.656" height="164.25" viewBox="0 0 55.656 164.25">
  <defs>
    <style>
      .cls-1 {
        fill: #7e57ff;
        fill-rule: evenodd;
      }
    </style>
  </defs>
  <path class="cls-1" d="M79.5,534.346a2.391,2.391,0,0,1-1.537-2.953,2.172,2.172,0,0,1,2.717-1.692,2.466,2.466,0,0,1,1.541,2.953A2.24,2.24,0,0,1,79.5,534.346Zm-1.083,4.824a2.318,2.318,0,0,1-1.611-2.813,2.347,2.347,0,0,1,.985-1.471,2.01,2.01,0,0,1,1.642-.269,2.155,2.155,0,0,1,1.306,1.056,2.507,2.507,0,0,1,.249,1.747A2.182,2.182,0,0,1,78.415,539.17Zm-0.874,4.871a2.222,2.222,0,0,1-1.677-2.655,2.1,2.1,0,0,1,2.47-1.811,2.272,2.272,0,0,1,1.629,2.645A2.141,2.141,0,0,1,77.542,544.041Zm-0.64,4.916a2.134,2.134,0,0,1-1.755-2.476,2.06,2.06,0,0,1,2.314-1.9,2.194,2.194,0,0,1,1.708,2.47A2.113,2.113,0,0,1,76.9,548.957Zm-0.346,4.949a1.846,1.846,0,0,1-1.36-.693,2.251,2.251,0,0,1-.487-1.587,2.019,2.019,0,0,1,2.134-1.994,2.105,2.105,0,0,1,1.792,2.273,2.239,2.239,0,0,1-.656,1.437A1.956,1.956,0,0,1,76.555,553.906Zm0,4.958a1.762,1.762,0,0,1-1.366-.554,2.155,2.155,0,0,1-.582-1.5,1.984,1.984,0,0,1,1.931-2.1,2.009,2.009,0,0,1,1.884,2.052,2.177,2.177,0,0,1-.536,1.437A1.9,1.9,0,0,1,76.552,558.864Zm0.392,4.935a1.7,1.7,0,0,1-1.368-.4,2.109,2.109,0,0,1-.47-0.606A2.231,2.231,0,0,1,74.894,562a1.952,1.952,0,0,1,1.7-2.2,1.914,1.914,0,0,1,1.974,1.8,2.175,2.175,0,0,1-.4,1.434A1.911,1.911,0,0,1,76.944,563.8Zm0.822,4.869a1.757,1.757,0,0,1-2.129-1.509,1.935,1.935,0,0,1,1.445-2.3,1.809,1.809,0,0,1,2.061,1.524A1.993,1.993,0,0,1,77.766,568.668Zm1.281,4.75a1.668,1.668,0,0,1-2.185-1.23,1.888,1.888,0,0,1,1.18-2.362,1.733,1.733,0,0,1,2.124,1.249A1.971,1.971,0,0,1,79.047,573.418Zm1.679,4.591a1.6,1.6,0,0,1-2.2-.952,1.866,1.866,0,0,1,.934-2.39,1.629,1.629,0,0,1,2.147.981A1.9,1.9,0,0,1,80.726,578.009Zm2.073,4.4a1.471,1.471,0,0,1-1.227.163,1.631,1.631,0,0,1-.962-0.868,1.8,1.8,0,0,1,.694-2.377,1.558,1.558,0,0,1,2.145.724,1.852,1.852,0,0,1,.107,1.307A1.786,1.786,0,0,1,82.8,582.413Zm2.425,4.174a1.455,1.455,0,0,1-2.16-.46,1.763,1.763,0,0,1,.473-2.343,1.476,1.476,0,0,1,2.119.489A1.793,1.793,0,0,1,85.224,586.587Zm2.758,3.927a1.382,1.382,0,0,1-2.1-.245,1.673,1.673,0,0,1-.276-0.58,1.7,1.7,0,0,1-.034-0.635,1.616,1.616,0,0,1,.578-1.071,1.4,1.4,0,0,1,1.629-.126,1.46,1.46,0,0,1,.443.4A1.746,1.746,0,0,1,87.982,590.514Zm3.069,3.64a1.329,1.329,0,0,1-2.029-.033,1.626,1.626,0,0,1,.072-2.2,1.357,1.357,0,0,1,2,.063A1.667,1.667,0,0,1,91.052,594.154Zm3.349,3.339a1.281,1.281,0,0,1-1.937.152,1.56,1.56,0,0,1-.1-2.114,1.3,1.3,0,0,1,1.912-.118A1.592,1.592,0,0,1,94.4,597.493Zm3.614,2.993a1.226,1.226,0,0,1-1.836.326,1.479,1.479,0,0,1-.267-1.991,1.257,1.257,0,0,1,1.819-.3A1.526,1.526,0,0,1,98.014,600.486Zm3.847,2.625a1.19,1.19,0,0,1-1.718.487,1.412,1.412,0,0,1-.408-1.875,1.191,1.191,0,0,1,1.694-.448A1.417,1.417,0,0,1,101.861,603.111Zm4.06,2.221a1.24,1.24,0,0,1-.67.681,1.112,1.112,0,0,1-.915-0.054,1.31,1.31,0,0,1-.549-1.724,1.164,1.164,0,0,1,1.576-.605,1.209,1.209,0,0,1,.589.722A1.4,1.4,0,0,1,105.921,605.332Zm4.241,1.777a1.119,1.119,0,0,1-1.447.767,1.257,1.257,0,0,1-.666-1.586,1.105,1.105,0,0,1,1.433-.719A1.241,1.241,0,0,1,110.162,607.109Zm4.383,1.322a1.053,1.053,0,0,1-1.291.851,1.082,1.082,0,0,1-.669-0.526,1.219,1.219,0,0,1-.1-0.881,1.152,1.152,0,0,1,.5-0.7,0.979,0.979,0,0,1,.791-0.142A1.184,1.184,0,0,1,114.545,608.431ZM82.077,524.972a2.121,2.121,0,0,0-2.714,1.532,2.32,2.32,0,0,0,1.382,2.926,2.184,2.184,0,0,0,2.714-1.533A2.39,2.39,0,0,0,82.077,524.972Zm1.54-4.679a2.068,2.068,0,0,0-2.7,1.38,2.346,2.346,0,0,0,.069,1.757,2.151,2.151,0,0,0,1.206,1.152,1.928,1.928,0,0,0,1.589-.124A2.339,2.339,0,0,0,83.617,520.293Zm1.681-4.618a2,2,0,0,0-2.674,1.23,2.285,2.285,0,0,0,1.169,2.878,1.967,1.967,0,0,0,2.6-1.264A2.244,2.244,0,0,0,85.3,515.675Zm1.815-4.564a1.836,1.836,0,0,0-1.518-.048,2.047,2.047,0,0,0-1.084,1.159,2.213,2.213,0,0,0,1.027,2.829,1.918,1.918,0,0,0,2.574-1.126,2.326,2.326,0,0,0,.018-1.627A2.049,2.049,0,0,0,87.113,511.111Zm1.971-4.484a1.819,1.819,0,0,0-2.541.988,2.126,2.126,0,0,0,.89,2.766,1.866,1.866,0,0,0,2.545-.983A2.189,2.189,0,0,0,89.084,506.627Zm2.127-4.4a1.773,1.773,0,0,0-2.5.85,2.054,2.054,0,0,0,.765,2.71,1.818,1.818,0,0,0,2.5-.855A2.1,2.1,0,0,0,91.211,502.227Zm2.256-4.325a1.726,1.726,0,0,0-2.458.722,2.015,2.015,0,0,0-.187,1.486,1.9,1.9,0,0,0,.855,1.167,1.625,1.625,0,0,0,1.35.163,1.892,1.892,0,0,0,1.081-.9A2.02,2.02,0,0,0,93.467,497.9Zm2.38-4.246a1.671,1.671,0,0,0-2.406.6,2,2,0,0,0,.59,2.607,1.637,1.637,0,0,0,2.348-.648A1.948,1.948,0,0,0,95.848,493.656Zm2.5-4.163a1.574,1.574,0,0,0-1.257-.281,1.683,1.683,0,0,0-1.053.8,1.916,1.916,0,0,0,.473,2.525,1.586,1.586,0,0,0,2.295-.524,1.967,1.967,0,0,0,.234-1.363A1.789,1.789,0,0,0,98.352,489.493ZM101,485.439a1.5,1.5,0,0,0-2.234.415,1.827,1.827,0,0,0,.369,2.441,1.532,1.532,0,0,0,2.235-.418A1.864,1.864,0,0,0,101,485.439Zm2.784-3.952a1.461,1.461,0,0,0-2.175.312,1.75,1.75,0,0,0,.268,2.356,1.49,1.49,0,0,0,2.175-.312A1.791,1.791,0,0,0,103.784,481.487Zm2.891-3.848a1.413,1.413,0,0,0-2.107.211,1.688,1.688,0,0,0-.351,1.18,1.629,1.629,0,0,0,.543,1.09,1.386,1.386,0,0,0,1.083.347,1.482,1.482,0,0,0,1.012-.567A1.7,1.7,0,0,0,106.675,477.639Zm3.006-3.752a1.369,1.369,0,0,0-2.035.118,1.673,1.673,0,0,0,.139,2.211,1.324,1.324,0,0,0,1.989-.163A1.622,1.622,0,0,0,109.681,473.887Zm3.114-3.644a1.262,1.262,0,0,0-1.925.066,1.59,1.59,0,0,0,.059,2.113,1.277,1.277,0,0,0,1.914-.071A1.622,1.622,0,0,0,112.8,470.243Zm3.249-3.5a1.211,1.211,0,0,0-1.839-.009,1.507,1.507,0,0,0-.021,2.014,1.237,1.237,0,0,0,1.843,0A1.53,1.53,0,0,0,116.044,466.744Zm3.358-3.377a1.169,1.169,0,0,0-1.76-.084,1.423,1.423,0,0,0-.088,1.911,1.19,1.19,0,0,0,1.76.084A1.446,1.446,0,0,0,119.4,463.367Zm3.458-3.255a1.124,1.124,0,0,0-1.677-.154,1.339,1.339,0,0,0-.153,1.8,1.147,1.147,0,0,0,1.682.154A1.361,1.361,0,0,0,122.86,460.112Zm3.556-3.13a1.084,1.084,0,0,0-1.595-.217,1.316,1.316,0,0,0-.173,1.737,1.041,1.041,0,0,0,1.56.176A1.273,1.273,0,0,0,126.416,456.982Zm3.647-3a0.986,0.986,0,0,0-1.479-.231,1.24,1.24,0,0,0-.225,1.63,1,1,0,0,0,1.479.232A1.266,1.266,0,0,0,130.063,453.981ZM127.74,612.512l-6.484-7.806-6.484-7.8,2.837,12.314-8.69,8.574,9.409-2.64Z" transform="translate(-74.594 -453.531)"/>
</svg>
