<svg id="Logo" xmlns="http://www.w3.org/2000/svg" width="140.281" height="36.25" viewBox="0 0 140.281 36.25">
  <defs>
    <style>
      .cls-1 {
        fill: #7e57ff;
        fill-rule: evenodd;
      }

      .cls-2 {
        font-size: 12px;
        fill: #222;
        font-family: Manrope;
        font-weight: 500;
      }
    </style>
  </defs>
  <path class="cls-1" d="M212.856,36.087a1.019,1.019,0,0,1,0-2.037,0.916,0.916,0,0,1,.927.474,2.008,2.008,0,0,0,2.3,1.416,1.86,1.86,0,0,0,1.246-.854,2.057,2.057,0,0,0,.275-1.47c-0.343-1.926-2.474-3.493-4.75-3.493a4.946,4.946,0,0,0-4.936,4.945,4.81,4.81,0,0,0,1.448,3.494,4.9,4.9,0,0,0,3.488,1.45,1.02,1.02,0,0,1,1.017,1.019,1.034,1.034,0,0,1-1.017,1.048,0.9,0.9,0,0,1-1.043-.623c-0.719-1.385-1.634-1.533-2.3-1.411a2.106,2.106,0,0,0-1.347,1.015,1.682,1.682,0,0,0-.137,1.371,5.17,5.17,0,0,0,4.823,3.574,4.96,4.96,0,0,0,4.935-4.974A4.946,4.946,0,0,0,212.856,36.087Zm23.129-13.32a1.963,1.963,0,0,0-1.974,1.948V44.028a1.96,1.96,0,1,0,3.919,0V24.715A1.949,1.949,0,0,0,235.985,22.767Zm-5.657,7.357a1.964,1.964,0,0,0-1.974,1.948v7.417a2.572,2.572,0,1,1-5.143,0V32.072a1.96,1.96,0,0,0-3.919,0v7.48a6.491,6.491,0,0,0,12.981,0V32.072A1.948,1.948,0,0,0,230.328,30.124Zm-49.515-.03a7.941,7.941,0,1,0,7.927,7.941A7.943,7.943,0,0,0,180.813,30.094Zm4.008,7.941a4.008,4.008,0,1,1-4.008-4.015A4.016,4.016,0,0,1,184.821,38.035Zm13.494-7.941a7.943,7.943,0,0,0-7.927,7.941V44a1.96,1.96,0,1,0,3.92,0V38.035a4.008,4.008,0,1,1,8.015,0V44a1.96,1.96,0,1,0,3.919,0V38.035A7.943,7.943,0,0,0,198.315,30.094ZM161.948,24.22a10.878,10.878,0,1,0,0,21.756,10.658,10.658,0,0,0,9.066-5,1.671,1.671,0,0,0,.319-1.417,1.938,1.938,0,0,0-.946-1.249,1.643,1.643,0,0,0-1.363-.381,1.757,1.757,0,0,0-1.314.891,6.912,6.912,0,0,1-12.7-3.667,7.023,7.023,0,0,1,6.939-6.922,6.838,6.838,0,0,1,5.926,3.435,1.761,1.761,0,0,0,1.046.889,2.038,2.038,0,0,0,1.556-.126,1.852,1.852,0,0,0,.991-1.137,2.074,2.074,0,0,0-.233-1.689A10.446,10.446,0,0,0,161.948,24.22Zm103.918,5.874a7.943,7.943,0,0,0-7.927,7.941V44a1.96,1.96,0,1,0,3.919,0V38.035a4.008,4.008,0,1,1,8.016,0V44a1.96,1.96,0,1,0,3.919,0V38.035A7.943,7.943,0,0,0,265.866,30.094Zm17.5,0a7.941,7.941,0,1,0,4.008,14.766v4.276a4.009,4.009,0,0,1-7.624,1.66,1.964,1.964,0,0,0-3.519,1.746A7.931,7.931,0,0,0,291.3,49.059V38.035A7.943,7.943,0,0,0,283.368,30.094Zm4.008,7.941a4.065,4.065,0,0,1-4.008,4.015A4.015,4.015,0,1,1,287.376,38.035Zm-38.627-7.911H247.14V24.685a1.96,1.96,0,0,0-3.919,0v5.439h-1.639a1.963,1.963,0,0,0,0,3.926h1.639v9.978a1.96,1.96,0,1,0,3.919,0V34.05h1.609A1.963,1.963,0,1,0,248.749,30.124Zm5.656-5.9a1.964,1.964,0,0,0-1.385,3.366,1.961,1.961,0,0,0,2.771-2.776A2.008,2.008,0,0,0,254.405,24.22Zm0,5.9a1.963,1.963,0,0,0-1.974,1.948V44.028a1.96,1.96,0,1,0,3.919,0V32.072A1.949,1.949,0,0,0,254.405,30.124Z" transform="translate(-151 -22.75)"/>
  <text id="Business_Solutions" data-name="Business Solutions" class="cls-2" x="0.204" y="35.037">Business Solutions</text>
</svg>
