<svg version="1.2" xmlns="http://www.w3.org/2000/svg" viewBox="0 0 106 53" width="106" height="53">
	<title>Logo 01</title>
	<style>
		.s0 { fill: #9fa6b2 } 
	</style>
	<path id="Logo 01" class="s0" d="m43.7 17.9c-1.1 0.1-2-0.3-2.6-1.5c-0.7-1.3-0.1-0.7-1.2-1.8q-0.3-0.3-0.4-0.7c0-0.3 0.1-0.6 0.3-0.7c1.2-0.5 2.3-1.2 3.4-1.8c1.5-0.9 0.4-1.9 1.2-2.6q0.4-0.4 0.9-0.9c1.6-1.8 2.7-2.6 5.1-3.4c1.5-0.5 3.2-0.7 4.7-0.6c0.3-0.8 0.8-1.4 1.3-1.6c0.8-0.5 1.8-0.3 2.4 0.2c1.1 1 1.4 2.8-0.5 3.6c6.4 4.5 8.3 11.4 7.9 18.8q0 0.1-0.1 0.1q0 0.1-0.1 0c-6.2-3.6-14.9-2.7-20.3 0.8q-0.1 0.1-0.2 0q-0.1 0-0.1-0.1c-0.4-3.4 3.9-5.9 1-7.5c-1.4-0.7-1.5-0.4-2.7-0.3zm3.3-7.8q-0.1 0-0.1 0.1q0 0.1 0 0.2c0.4 1.1 1.5 0.7 2.1-0.1q0-0.1 0-0.2q-0.1-0.1-0.2-0.1c-0.6-0.1-1.2-0.1-1.8 0.1zm-40.7 30.8h-4.3v-9.7h3.8q1 0 1.7 0.2q0.8 0.3 1.1 0.7q0.7 0.7 0.7 1.7q0 1.1-0.8 1.6q-0.2 0.2-0.3 0.3q-0.1 0-0.4 0.1q0.9 0.2 1.5 0.9q0.5 0.6 0.5 1.5q0 1-0.7 1.8q-0.8 0.9-2.8 0.9zm-2.1-5.8h1q0.9 0 1.4-0.2q0.4-0.2 0.4-0.8q0-0.7-0.4-0.9q-0.4-0.2-1.4-0.2h-1zm0 4h1.5q0.9 0 1.4-0.3q0.5-0.2 0.5-0.9q0-0.6-0.5-0.9q-0.5-0.2-1.6-0.2h-1.3zm16.1-7.8v1.9h-4.8v2h4.3v1.8h-4.3v2h5v1.9h-7.2v-9.6zm10.7 9.6l-0.9-2h-4.2l-0.9 2h-2.3l4.2-9.6h2.2l4.2 9.6zm-3-6.7l-1.2 2.8h2.5zm15.9 0.3q0 2.3-1.8 3l2.5 3.5h-2.7l-2.2-3.1h-1.5v3.1h-2.2v-9.7h3.7q2.3 0 3.3 0.8q0.9 0.7 0.9 2.4zm-2.6 1.1q0.4-0.3 0.4-1.1q0-0.8-0.4-1.1q-0.4-0.3-1.5-0.3h-1.6v2.9h1.6q1.1 0 1.5-0.4zm10.8 5.4h-4.3v-9.7h3.8q1 0 1.7 0.2q0.7 0.3 1.1 0.7q0.7 0.7 0.7 1.6q0 1.2-0.8 1.7q-0.2 0.2-0.3 0.3q-0.1 0-0.4 0.1q0.9 0.2 1.5 0.8q0.5 0.7 0.5 1.6q0 1-0.7 1.8q-0.8 0.9-2.8 0.9zm-2.1-5.8h1q0.9 0 1.4-0.2q0.4-0.2 0.4-0.8q0-0.7-0.4-0.9q-0.4-0.2-1.4-0.2h-1zm0 3.9h1.5q0.9 0 1.4-0.2q0.5-0.2 0.5-0.9q0-0.7-0.5-0.9q-0.5-0.2-1.6-0.2h-1.3zm17-4.6q0 2.3-1.9 3l2.5 3.4h-2.7l-2.1-3h-1.6v3h-2.1v-9.6h3.7q2.3 0 3.2 0.7q1 0.8 1 2.5zm-2.6 1.1q0.4-0.3 0.4-1.1q0-0.8-0.4-1.1q-0.5-0.3-1.5-0.3h-1.7v2.9h1.6q1.2 0 1.6-0.4zm13.4 5.3l-0.9-2h-4.1l-0.9 2h-2.3l4.2-9.6h2.1l4.3 9.6zm-3-6.8l-1.2 2.9h2.4zm14.9-2.9h2.2v9.6h-2.2l-4.7-6v6h-2.1v-9.6h2l4.8 6.2zm13.7 1.3q1.4 1.2 1.4 3.5q0 2.2-1.3 3.6q-1.4 1.3-4.2 1.3h-3.4v-9.7h3.5q2.6 0 4 1.3zm-1.6 5.7q0.8-0.7 0.8-2.2q0-1.4-0.8-2.1q-0.8-0.8-2.5-0.8h-1.2v5.9h1.4q1.5 0 2.3-0.8zm-81.5 10.8q0 0 0 0h-1.2v0.9h0.9q0.1 0 0.1 0.1v0.4q0 0.1-0.1 0.1h-0.9v0.9h1.2q0 0 0 0.1v0.4q0 0.1 0 0.1h-1.7q-0.1 0-0.1-0.1v-3.4q0-0.1 0.1-0.1h1.7q0 0 0 0.1zm4.2-0.5q0.6 0 0.6 0.6v0.5q0 0.1 0 0.1h-0.5q-0.1 0-0.1-0.1v-0.3q0-0.2-0.2-0.2h-0.2q-0.1 0-0.2 0.2v0.6l1.1 0.3q0.1 0.1 0.1 0.2v1q0 0.6-0.6 0.7h-0.5q-0.7-0.1-0.7-0.7v-0.5q0 0 0.1 0h0.5q0 0 0 0v0.4q0.1 0.2 0.2 0.2h0.2q0.2 0 0.2-0.2v-0.6l-1-0.3q-0.2-0.1-0.2-0.2v-1.1q0-0.6 0.7-0.6zm5.3 0q0.1 0 0.1 0.1v0.4q0 0.1-0.1 0.1h-0.5v2.9q0 0.1-0.1 0.1h-0.5q0 0 0-0.1v-2.9h-0.5q-0.1 0-0.1-0.1v-0.4q0-0.1 0.1-0.1zm4.4 3.6q-0.1 0-0.1-0.1l-0.1-0.7h-0.8l-0.2 0.7q0 0.1 0 0.1h-0.5q-0.1-0.1-0.1-0.1l0.8-3.4q0-0.1 0.1-0.1h0.6q0 0 0.1 0.1l0.7 3.4q0 0-0.1 0.1zm-0.6-2.8l-0.3 1.5h0.6zm6.1 0.7c0 0.2-0.2 0.3-0.3 0.3c0.1 0.1 0.3 0.2 0.3 0.3v0.9q-0.1 0.6-0.7 0.6h-1.1q0 0-0.1-0.1v-3.4q0.1-0.1 0.1-0.1h1.1q0.6 0.1 0.7 0.7zm-0.6-0.7q0-0.2-0.2-0.2h-0.4v0.9h0.4q0.2 0 0.2-0.2zm0 1.5q0-0.2-0.2-0.2h-0.4v0.9h0.4q0.2 0 0.2-0.1zm4.3 0.7h1.1q0 0 0 0.1v0.4q0 0.1 0 0.1h-1.6q-0.1 0-0.1-0.1v-3.4q0-0.1 0.1-0.1h0.4q0.1 0 0.1 0.1zm4.7-3q0.1 0 0.1 0.1v3.4q0 0.1-0.1 0.1h-0.4q-0.1 0-0.1-0.1v-3.4q0-0.1 0.1-0.1zm4.3 0q0.6 0 0.7 0.7v0.4q0 0.1-0.1 0.1h-0.5q-0.1 0-0.1-0.1v-0.3q0-0.2-0.1-0.2h-0.3q-0.1 0-0.1 0.2v0.6l1 0.4q0.2 0 0.2 0.1v1q-0.1 0.7-0.7 0.7h-0.5q-0.6 0-0.6-0.7v-0.4q0-0.1 0-0.1h0.5q0.1 0 0.1 0.1v0.3q0 0.2 0.1 0.2h0.3q0.1 0 0.1-0.2v-0.6l-1-0.3q-0.1-0.1-0.1-0.2v-1q0-0.7 0.6-0.7zm5 0.1q0-0.1 0-0.1h0.5q0.1 0 0.1 0.1v3.4q0 0.1-0.1 0.1h-0.5q0 0 0-0.1v-1.4h-0.6v1.4q0 0.1-0.1 0.1h-0.4q-0.1 0-0.1-0.1v-3.4q0-0.1 0.1-0.1h0.4q0.1 0 0.1 0.1v1.4h0.6zm5.5 0.5q0 0-0.1 0h-1.1v0.9h0.9q0 0 0 0.1v0.4q0 0.1 0 0.1h-0.9v0.9h1.1q0.1 0 0.1 0.1v0.4q0 0.1-0.1 0.1h-1.6q-0.1 0-0.1-0.1v-3.4q0-0.1 0.1-0.1h1.6q0.1 0 0.1 0.1zm3.1-0.4q0-0.1 0.1-0.1h1q0.7 0 0.7 0.6v2.3q0 0.6-0.7 0.6h-1q-0.1 0-0.1 0zm1 2.9q0.2 0 0.2-0.2v-2q0-0.2-0.2-0.2h-0.4v2.4zm5.9-3q0.1 0 0.1 0.1v3.4q0 0-0.1 0.1h-0.4q-0.1-0.1-0.1-0.1v-2.8h-0.3q-0.1 0-0.1-0.1v-0.4q0-0.1 0.1-0.1zm3.9 2.2q-0.6 0-0.6-0.6v-1q0-0.6 0.6-0.6h0.5q0.7 0 0.7 0.6v1.2q0 0.1-0.1 0.2l-0.6 1.5q0 0.1-0.1 0.1h-0.5q-0.1 0-0.1-0.1l0.6-1.3zm0.1-1.6q-0.1 0-0.1 0.2v0.6q0 0.2 0.1 0.2h0.3q0.2 0 0.2-0.2v-0.6q0-0.2-0.2-0.2zm4.8 1.6q-0.7 0-0.7-0.6v-1q0-0.6 0.7-0.6h0.5q0.6 0 0.6 0.6v1.2q0 0.1 0 0.2l-0.6 1.5q-0.1 0.1-0.1 0.1h-0.5q-0.1 0-0.1-0.1l0.6-1.3zm0.1-1.6q-0.2 0-0.2 0.2v0.6q0 0.2 0.2 0.2h0.3q0.1 0 0.1-0.2v-0.6q0-0.2-0.1-0.2zm5-0.6q0.1 0 0.1 0.1v3.4q0 0.1-0.1 0.1h-0.4q-0.1 0-0.1-0.1v-2.8h-0.3q-0.1 0-0.1-0.1v-0.4q0-0.1 0.1-0.1z" />
</svg>