<svg version="1.2" xmlns="http://www.w3.org/2000/svg" viewBox="0 0 107 54" width="107" height="54">
	<title>Logo 05</title>
	<style>
		.s0 { fill: #9fa6b2 } 
	</style>
	<path id="Logo 05" class="s0" d="m64 18.3h26v0.5h-26v-0.5zm0-2.1h15.8v0.6h-15.8zm-22.7 2v0.6h-26v-0.6h26zm0-2h-15.8v0.5h15.8zm11.4-1.3h6.7c0.1 0 0.3 0.1 0.3 0.3c0 0.1-0.2 0.2-0.3 0.2h-6.7h-6.8c-0.1 0-0.3-0.1-0.3-0.2c0-0.2 0.2-0.3 0.3-0.3h6.8zm8.9 2.2v1.2c0 0.3-0.2 0.5-0.5 0.5h-16.9c-0.3 0-0.5-0.2-0.5-0.5v-1.2h17.9zm-15.7-11.2h-1.7c-0.3 0-0.5 0.2-0.5 0.5c0 0.3 0.2 0.6 0.5 0.6h1.2v0.6h1.1v-1.2c0-0.3-0.3-0.5-0.6-0.5zm13.5 0h1.7c0.3 0 0.5 0.2 0.5 0.5c0 0.3-0.2 0.6-0.5 0.6h-1.2v0.6h-1.1v-1.2c0-0.3 0.3-0.5 0.6-0.5zm-11.8-4h10.1c0.3 0 0.6 0.3 0.6 0.6v5.5c-0.5 0.6-1.4 1-2 1.2c-1.2 0.4-2.5 0.5-3.6 0.5c-1.2 0-2.5-0.1-3.7-0.5c-0.6-0.2-1.5-0.6-2-1.2v-5.5c0-0.3 0.3-0.6 0.6-0.6zm-2.2 9.6h14.5v-3.4h-1.1c-1.6 2.9-10.7 2.9-12.3 0h-1.1v3.4zm7.3 1.7h-6.2c-0.2 0-0.3 0.1-0.3 0.3c0 0.1 0.1 0.3 0.3 0.3h6.2h6.1c0.2 0 0.3-0.2 0.3-0.3c0-0.2-0.1-0.3-0.3-0.3h-6.1zm0 3.4h-9l1.7-4.5h7.3h7.2l1.7 4.5zm-26.3 31.9v0.6q0 1-1 1h-0.3v1.6h-0.6v-4.2h0.9q1 0 1 1zm-1.3-0.4v1.4h0.3c0.2 0 0.4-0.1 0.4-0.4v-0.6c0-0.3-0.2-0.4-0.4-0.4zm4.9 3.6c-0.1-0.1-0.1-0.2-0.1-0.5v-0.7c0-0.4-0.1-0.5-0.4-0.5h-0.2v1.7h-0.7v-4.2h1c0.7 0 1 0.3 1 1v0.3q0 0.6-0.5 0.9c0.4 0.1 0.5 0.4 0.5 0.9v0.6c0 0.2 0 0.4 0.1 0.5zm-0.8-3.6v1.3h0.3c0.2 0 0.4-0.1 0.4-0.4v-0.5q0-0.4-0.3-0.4zm4.2 1.2h0.9v0.6h-0.9v1.2h1.2v0.6h-1.8v-4.2h1.8v0.6h-1.2zm4.9 1.2l0.4-3h0.9v4.2h-0.6v-3l-0.5 3h-0.6l-0.5-2.9v2.9h-0.6v-4.2h1zm3.7-3h0.6v4.2h-0.6zm3.6 0v3.3c0 0.3 0.2 0.4 0.4 0.4c0.2 0 0.3-0.1 0.3-0.4v-3.3h0.6v3.3c0 0.6-0.3 1-0.9 1c-0.7 0-1-0.4-1-1v-3.3zm5 3l0.4-3h1v4.3h-0.7v-3.1l-0.4 3.1h-0.6l-0.5-3v3h-0.6v-4.3h0.9zm4.6-1.9c0-0.7 0.4-1.1 1-1.1c0.7 0 1 0.4 1 1.1v2.2q0 0.3-0.1 0.5c0 0.1 0.1 0.1 0.2 0.1v0.6h-0.1q-0.4 0-0.5-0.3q-0.2 0.1-0.5 0.1c-0.6 0-1-0.4-1-1zm0.7 2.2c0 0.3 0.1 0.4 0.3 0.4c0.2 0 0.3-0.1 0.3-0.4v-2.3c0-0.3-0.1-0.4-0.3-0.4c-0.2 0-0.3 0.1-0.3 0.4zm4.2-3.2v3.2c0 0.3 0.2 0.4 0.4 0.4c0.2 0 0.3-0.1 0.3-0.4v-3.2h0.6v3.2c0 0.7-0.3 1-0.9 1c-0.7 0-1-0.3-1-1v-3.2zm5.7 4.2h-0.6l-0.1-0.8h-0.9l-0.1 0.8h-0.6l0.7-4.2h1zm-1.5-1.4h0.6l-0.3-2.1zm3.7-2.9h0.6v3.6h1.1v0.6h-1.7zm3.9 0h0.6v4.3h-0.6zm2.8 0h2v0.6h-0.7v3.6h-0.6v-3.6h-0.7zm4.8 2.8l-0.8-2.8h0.7l0.5 1.9l0.5-1.9h0.6l-0.8 2.8v1.4h-0.7zm-69.3-24.9h3v13.6h-3v-5.3h-5.4v5.3h-3v-13.6h3v5.7h5.4zm18.5 11.7q-2 2-5 2q-3 0-5.1-2q-2-2-2-5q0-3 2-5q2.1-2 5.1-2q3 0 5 2q2.1 2 2.1 5q0 3-2.1 5zm-1-5q0-1.8-1.2-3.1q-1.1-1.3-2.8-1.3q-1.7 0-2.9 1.3q-1.1 1.3-1.1 3.1q0 1.8 1.1 3.1q1.2 1.3 2.9 1.3q1.7 0 2.8-1.3q1.2-1.3 1.2-3.1zm9.5-4q-0.4 0.4-0.4 1q0 0.6 0.5 0.9q0.5 0.4 2.5 0.8q1.9 0.5 2.9 1.5q1.1 0.9 1.1 2.7q0 1.9-1.4 3q-1.3 1.1-3.5 1.1q-3.3 0-5.8-2.3l1.8-2.3q2.2 2 4 2q0.8 0 1.3-0.4q0.5-0.4 0.5-1q0-0.6-0.5-0.9q-0.5-0.4-2-0.8q-2.4-0.5-3.5-1.4q-1-0.9-1-2.9q0-1.9 1.3-2.9q1.4-1.1 3.5-1.1q1.3 0 2.7 0.5q1.4 0.4 2.4 1.3l-1.6 2.2q-1.7-1.3-3.6-1.3q-0.8 0-1.2 0.3zm21.4 9q-2.1 2-5.1 2q-3 0-5-2q-2.1-2-2.1-5q0-3 2.1-5q2-2 5-2q3 0 5.1 2q2 2 2 5q0 3-2 5zm-1-5q0-1.8-1.2-3.1q-1.2-1.3-2.9-1.3q-1.7 0-2.8 1.3q-1.2 1.3-1.2 3.1q0 1.8 1.2 3.1q1.1 1.3 2.8 1.3q1.7 0 2.9-1.3q1.2-1.3 1.2-3.1zm17.4-2.2q0 3.3-2.6 4.2l3.4 4.9h-3.7l-3-4.3h-2.1v4.3h-3v-13.6h5.1q3.2 0 4.5 1.1q1.4 1.1 1.4 3.4zm-3.7 1.6q0.6-0.5 0.6-1.6q0-1.1-0.6-1.5q-0.6-0.4-2-0.4h-2.3v4h2.2q1.6 0 2.1-0.5zm17.3-6.1v2.7h-6.7v2.8h6.1v2.6h-6.1v2.8h7v2.7h-10v-13.6zm13.2 0h3v13.6h-3l-6.5-8.5v8.5h-3v-13.6h2.8l6.7 8.8zm-71.7-14.3h0.6v3.4h-0.6zm5.7 0l-0.6 1.7l0.6 1.8h-0.5l-0.5-1.4l-0.4 1.4h-0.5l0.6-1.8l-0.6-1.7h0.6l0.4 1.3l0.4-1.3zm5.1 0l-0.6 1.7l0.6 1.8h-0.6l-0.4-1.4l-0.5 1.4h-0.5l0.6-1.8l-0.5-1.7h0.5l0.4 1.3l0.5-1.3zm25.2 0l-0.6 1.7l0.6 1.8h-0.5l-0.5-1.4l-0.4 1.4h-0.5l0.6-1.8l-0.6-1.7h0.6l0.4 1.3l0.4-1.3zm5 0l-0.5 1.7l0.6 1.8h-0.6l-0.4-1.4l-0.5 1.4h-0.5l0.6-1.8l-0.5-1.7h0.5l0.4 1.3l0.4-1.3zm3.3 0h0.5v3.5h-0.5z" />
</svg>