<svg version="1.2" xmlns="http://www.w3.org/2000/svg" viewBox="0 0 17 15" width="17" height="15">
	<title>Group</title>
	<style>
		.s0 { fill: #ffffff } 
	</style>
	<g id="Group">
		<g id="Group">
			<g id="Group">
				<path id="Vector" class="s0" d="m16.3 3.1l-0.7 1.2q0 0 0 0.1c0.1 0.5 0.2 1.6 0 3q-0.5 2.6-2.5 4.6c-1.8 1.8-4.3 2.2-6.1 2.2q-0.2 0-0.4 0c-2.6-0.1-5.2-1-5.9-1.7c-0.1-0.2-0.1-0.4 0-0.5c0-0.2 0.2-0.3 0.4-0.3c1.7 0 2.8-0.1 3.9-0.9c-0.9-0.3-2.3-0.7-3.2-1.7c-0.1-0.1-0.1-0.3-0.1-0.5c0.1-0.2 0.2-0.3 0.4-0.3q0.2-0.1 0.5-0.2c-1.3-0.6-2.1-1.6-2.3-3c0-0.2 0-0.3 0.2-0.5c0.1-0.1 0.3-0.1 0.4 0q0.3 0.1 0.5 0.1c-0.5-1.1-0.5-2.5 0.2-3.4q0.2-0.2 0.5-0.2q0.2 0 0.3 0.2c1.2 2.2 3.2 3.5 5.6 3.8c-0.1-1.3 0.4-2.5 1.3-3.4c1-0.9 2.6-1.1 3.9-0.5l2-1c0.2-0.1 0.4 0 0.5 0.1c0.2 0.2 0.2 0.4 0.1 0.6l-0.7 1.5l0.8-0.1c0.1 0 0.3 0.1 0.4 0.3c0.1 0.1 0.1 0.3 0 0.5z" />
			</g>
		</g>
	</g>
</svg>