<svg version="1.2" xmlns="http://www.w3.org/2000/svg" viewBox="0 0 12 15" width="12" height="15">
	<title>Search results for Pintrest - Flaticon-2 1</title>
	<style>
		.s0 { fill: #ffffff } 
	</style>
	<g id="Search results for Pintrest - Flaticon-2 1">
		<g id="Group">
			<g id="XMLID_798_">
				<path id="XMLID_799_" class="s0" d="m11.5 4.9c0 1.5-0.4 3-1.2 4c-0.8 1-2 1.6-3.2 1.6c-0.7 0-1.4-0.3-1.9-0.7c-0.1 0.5-0.3 1.5-0.4 1.7c-0.1 0.3-0.9 2.9-1.8 2.7c-0.8-0.3-0.3-2.9-0.2-3.3c0.1-0.6 0.9-3.7 1-4.2c-0.1-0.1-0.3-0.6-0.3-1.2c0-1.3 0.8-2.3 1.8-2.3c0.7 0 1.3 0.6 1.3 1.4c0 0.5-0.2 1.1-0.4 1.8q-0.2 0.5-0.3 1q-0.1 0.5 0.1 0.9c0.2 0.2 0.5 0.4 0.9 0.4c0.8 0 1.3-0.6 1.6-1.1c0.4-0.8 0.6-1.8 0.6-2.9c0-1.7-1.1-2.7-3-2.7c-2.4 0-3.6 1.8-3.6 3.5c0 0.6 0.1 1 0.4 1.4c0.2 0.2 0.3 0.3 0.2 0.6c0 0.2-0.1 0.5-0.2 0.6c0 0.3-0.2 0.4-0.4 0.4q-0.1 0-0.3 0c-1.1-0.4-1.7-1.6-1.7-3.2c0-1.2 0.5-2.5 1.5-3.4c0.7-0.8 2.1-1.7 4.3-1.7c1.5 0 2.8 0.5 3.8 1.4c0.9 0.9 1.4 2.1 1.4 3.3z" />
			</g>
		</g>
	</g>
</svg>