<svg version="1.2" xmlns="http://www.w3.org/2000/svg" viewBox="0 0 8 15" width="8" height="15">
	<title>Group</title>
	<style>
		.s0 { fill: #ffffff } 
	</style>
	<g id="Group">
		<g id="_x30_1._Facebook">
			<path id="Icon_11_" class="s0" d="m2.3 8.1c0 0-1.2 0-1.7 0c-0.3 0-0.4-0.1-0.4-0.4q0-1 0-2.1c0-0.3 0.1-0.4 0.4-0.4h1.7c0 0 0-1 0-1.5c0-0.7 0.1-1.4 0.5-2q0.6-0.9 1.6-1.3q0.6-0.2 1.3-0.2h1.7q0.4 0 0.4 0.3v2q0 0.4-0.4 0.4q-0.7 0-1.4 0q-0.7 0-0.7 0.7c0 0.5 0 1 0 1.6h2c0.3 0 0.4 0.1 0.4 0.4v2.1c0 0.3-0.1 0.4-0.4 0.4c-0.6 0-2 0-2 0v5.7c0 0.3-0.1 0.4-0.4 0.4q-1.1 0-2.2 0c-0.3 0-0.4-0.1-0.4-0.4c0-1.8 0-5.7 0-5.7z" />
		</g>
	</g>
</svg>