<svg width="16" height="16" viewBox="0 0 16 16" fill="none" xmlns="http://www.w3.org/2000/svg">
<g clip-path="url(#clip0_3_11)">
<rect width="16" height="16" transform="translate(-0.000244141)" fill="white"/>
<path d="M15.6208 13.6851L11.9423 10.0063C12.5673 9.01126 12.9301 7.8352 12.9301 6.57307C12.9301 3.00232 10.0354 0.108032 6.46479 0.108032C2.89418 0.108032 -0.000244141 3.00232 -0.000244141 6.57307C-0.000244141 10.1439 2.89404 13.038 6.46479 13.038C7.83832 13.038 9.11056 12.6085 10.1574 11.8789L13.7922 15.5139C14.0447 15.7662 14.3758 15.8918 14.7065 15.8918C15.0376 15.8918 15.3683 15.7662 15.6213 15.5139C16.126 15.0086 16.126 14.1902 15.6208 13.6851ZM6.46479 10.9434C4.05138 10.9434 2.09474 8.98688 2.09474 6.57333C2.09474 4.15979 4.05138 2.20315 6.46479 2.20315C8.87833 2.20315 10.8348 4.15979 10.8348 6.57333C10.8348 8.98688 8.87833 10.9434 6.46479 10.9434Z" fill="#757575"/>
</g>
<defs>
<clipPath id="clip0_3_11">
<rect width="16" height="16" fill="white" transform="translate(-0.000244141)"/>
</clipPath>
</defs>
</svg>
