<svg xmlns="http://www.w3.org/2000/svg" xmlns:xlink="http://www.w3.org/1999/xlink" preserveAspectRatio="xMidYMid" width="25" height="20" viewBox="0 0 25 20">
  <defs>
    <style>
      .cls-1 {
        fill: #ff5e14;
        fill-rule: evenodd;
      }
    </style>
  </defs>
  <path d="M23.400,16.531 L20.059,19.789 C19.773,20.068 19.310,20.068 19.024,19.789 L15.683,16.531 C13.556,14.457 13.556,11.080 15.683,9.005 C17.811,6.930 21.272,6.930 23.400,9.005 C25.532,11.085 25.532,14.451 23.400,16.531 ZM19.566,10.508 C18.279,10.508 17.232,11.529 17.232,12.784 C17.232,14.040 18.279,15.060 19.566,15.060 C20.853,15.060 21.900,14.040 21.900,12.784 C21.900,11.529 20.853,10.508 19.566,10.508 ZM19.566,13.632 C19.087,13.632 18.697,13.252 18.697,12.784 C18.697,12.317 19.087,11.936 19.566,11.936 C20.045,11.936 20.435,12.317 20.435,12.784 C20.435,13.252 20.045,13.632 19.566,13.632 ZM14.647,17.541 L15.702,18.570 L2.197,18.570 C0.986,18.570 -0.000,17.608 -0.000,16.427 L-0.000,2.141 C-0.000,0.985 0.944,0.040 2.120,0.000 C2.155,-0.002 3.621,-0.001 6.640,-0.001 L6.640,5.713 C6.640,6.107 6.968,6.427 7.372,6.427 L11.766,6.427 C12.171,6.427 12.499,6.107 12.499,5.713 L12.499,-0.001 L16.844,-0.001 C18.056,-0.001 19.041,0.960 19.041,2.141 L19.041,6.038 C13.206,6.439 10.430,13.428 14.647,17.541 ZM3.708,15.713 L8.102,15.713 C8.507,15.713 8.835,15.393 8.835,14.999 C8.835,14.604 8.507,14.284 8.102,14.284 L3.708,14.284 C3.304,14.284 2.976,14.604 2.976,14.999 C2.976,15.393 3.304,15.713 3.708,15.713 ZM8.107,11.427 L3.708,11.427 C3.304,11.427 2.976,11.747 2.976,12.141 C2.976,12.536 3.304,12.856 3.708,12.856 L8.107,12.856 C8.511,12.856 8.840,12.536 8.840,12.141 C8.840,11.747 8.511,11.427 8.107,11.427 ZM8.105,-0.001 L11.034,-0.001 L11.034,4.999 L8.105,4.999 L8.105,-0.001 Z" class="cls-1"/>
</svg>
