<svg xmlns="http://www.w3.org/2000/svg" width="57.937" height="94.47" viewBox="0 0 57.937 94.47">
  <defs>
    <style>
      .cls-1 {
        fill: #ddd9e9;
        fill-rule: evenodd;
      }
    </style>
  </defs>
  <path class="cls-1" d="M702.637,1949.62a1.912,1.912,0,0,0-.946,1.43,1.983,1.983,0,0,0,.108.87,2.513,2.513,0,0,0,.517.83,2.755,2.755,0,0,0,.831.59,3.01,3.01,0,0,0,.962.27,2.589,2.589,0,0,0,1.818-.5,2.052,2.052,0,0,0,.8-1.49,1.966,1.966,0,0,0-.12-0.82,2.092,2.092,0,0,0-.469-0.74,2.375,2.375,0,0,0-.752-0.54,2.785,2.785,0,0,0-.9-0.27A2.937,2.937,0,0,0,702.637,1949.62Zm-2.818-3.93a1.946,1.946,0,0,0-1.173,1.23,1.819,1.819,0,0,0-.038.86,2.155,2.155,0,0,0,.379.87,2.408,2.408,0,0,0,.729.68,2.545,2.545,0,0,0,.906.37,2.5,2.5,0,0,0,1.836-.29,2.11,2.11,0,0,0,.986-1.34,1.97,1.97,0,0,0,.01-0.78,2.022,2.022,0,0,0-.328-0.75,2.313,2.313,0,0,0-.626-0.59,2.925,2.925,0,0,0-.819-0.36A3.055,3.055,0,0,0,699.819,1945.69Zm-1.888-4.29a2.009,2.009,0,0,0-1.432.93,1.826,1.826,0,0,0-.241.81,2.142,2.142,0,0,0,.168.9,2.576,2.576,0,0,0,.558.79,2.712,2.712,0,0,0,.8.51,2.532,2.532,0,0,0,1.837.01,2.255,2.255,0,0,0,1.224-1.11,1.761,1.761,0,0,0,.18-0.73,1.54,1.54,0,0,0-.141-0.74,1.821,1.821,0,0,0-.458-0.65,2.394,2.394,0,0,0-.693-0.47A2.977,2.977,0,0,0,697.931,1941.4Zm0.378-4.26a1.861,1.861,0,0,0-.785-0.47,1.6,1.6,0,0,0-.5-0.05,1.831,1.831,0,0,0-.54.12,2.156,2.156,0,0,0-.527.3,2.457,2.457,0,0,0-.443.49,2.322,2.322,0,0,0-.385,1.24,2.136,2.136,0,0,0,.269,1.08,1.922,1.922,0,0,0,.639.68,2.494,2.494,0,0,0,3.217-.41,2.037,2.037,0,0,0,.513-1.08,0.35,0.35,0,0,0-.143-0.3,2.718,2.718,0,0,1-.372-0.34c-0.064-.08-0.138-0.17-0.209-0.27s-0.14-.2-0.214-0.31A3.991,3.991,0,0,0,698.309,1937.14Zm4.96-.76a1.784,1.784,0,0,0-.673-1.42,2.335,2.335,0,0,0-.8-0.43,3.515,3.515,0,0,0-.483-0.12,3.48,3.48,0,0,0-.563-0.02,2.533,2.533,0,0,0-1.839.88,1.293,1.293,0,0,0-.273.77,1.435,1.435,0,0,0,.245.77,3.179,3.179,0,0,0,.554.62,5.359,5.359,0,0,0,.609.48,2,2,0,0,0,1.251.39,1.939,1.939,0,0,0,.339-0.05c0.122-.03.246-0.07,0.361-0.11a2.489,2.489,0,0,0,.629-0.41A1.918,1.918,0,0,0,703.269,1936.38Zm5.165,0.79a1.679,1.679,0,0,0-.352-1.43,2.444,2.444,0,0,0-1.486-.85,2.588,2.588,0,0,0-.922.01,2.215,2.215,0,0,0-.784.3,1.6,1.6,0,0,0-.775,1.25,1.955,1.955,0,0,0,.5,1.4,2.283,2.283,0,0,0,1.359.76A2.1,2.1,0,0,0,708.434,1937.17Zm5.1,1.16a1.978,1.978,0,0,0-1.627-2.24,2.034,2.034,0,0,0-2.508,1.3,1.956,1.956,0,0,0,1.624,2.25A2.009,2.009,0,0,0,713.534,1938.33Zm5.166,0.77a1.912,1.912,0,0,0-.552-1.29,2.175,2.175,0,0,0-1.264-.66,1.918,1.918,0,0,0-.757.03,1.989,1.989,0,0,0-.676.26,1.718,1.718,0,0,0-.812,1.12,1.573,1.573,0,0,0,.369,1.34,2.119,2.119,0,0,0,.609.49,2.685,2.685,0,0,0,.822.27,2.217,2.217,0,0,0,1.616-.35A1.45,1.45,0,0,0,718.7,1939.1Zm5.131-.43a2.136,2.136,0,0,0-.929-1.07,2.2,2.2,0,0,0-1.344-.31,1.886,1.886,0,0,0-1.163.6,1.588,1.588,0,0,0,.283,2.43,2.365,2.365,0,0,0,1.6.38,1.974,1.974,0,0,0,1.376-.73A1.337,1.337,0,0,0,723.831,1938.67Zm4.429-2.09a2.7,2.7,0,0,0-.629-0.39,2.911,2.911,0,0,0-.678-0.19,1.9,1.9,0,0,0-1.217.15,1.488,1.488,0,0,0-.7.89,1.684,1.684,0,0,0,1.214,2.14,2.215,2.215,0,0,0,1.622-.18,1.655,1.655,0,0,0,.9-1.19A1.371,1.371,0,0,0,728.26,1936.58Zm2.129-3.94a2.429,2.429,0,0,0-1.347.22,1.452,1.452,0,0,0-.781.72,1.346,1.346,0,0,0,.083,1.02,2.211,2.211,0,0,0,.336.52,2.152,2.152,0,0,0,.53.46,1.922,1.922,0,0,0,.688.25,1.637,1.637,0,0,0,.727-0.05,1.66,1.66,0,0,0,1.111-1,1.531,1.531,0,0,0-.133-1.43A1.76,1.76,0,0,0,730.389,1932.64Zm-0.8-4.46a1.722,1.722,0,0,0-1.009.72,1.27,1.27,0,0,0-.209.51,1.189,1.189,0,0,0,.021.54,1.426,1.426,0,0,0,.258.49,2.446,2.446,0,0,0,.21.21c0.072,0.06.153,0.12,0.24,0.18a2.406,2.406,0,0,0,1.3.36,1.533,1.533,0,0,0,1.178-.53,1.26,1.26,0,0,0,.177-0.27,1.475,1.475,0,0,0,.073-1,1.674,1.674,0,0,0-.333-0.64,1.917,1.917,0,0,0-.546-0.43A1.834,1.834,0,0,0,729.593,1928.18Zm-2.38-4.13a1.355,1.355,0,0,0-.6,1.96,1.428,1.428,0,0,0,.418.44,1.806,1.806,0,0,0,.556.27,2.113,2.113,0,0,0,1.292-.02,1.384,1.384,0,0,0,.849-0.82,1.341,1.341,0,0,0,.061-0.59,1.6,1.6,0,0,0-.223-0.6A1.852,1.852,0,0,0,727.213,1924.05Zm-3-3.84a1.281,1.281,0,0,0-.34,1.95,1.849,1.849,0,0,0,2.257.43,1.27,1.27,0,0,0,.377-1.97A1.8,1.8,0,0,0,724.216,1920.21Zm-3.355-3.62a1.238,1.238,0,0,0-.134,1.9,1.773,1.773,0,0,0,2.185.24,1.224,1.224,0,0,0,.168-1.92A1.738,1.738,0,0,0,720.861,1916.59Zm-3.682-3.37a1.186,1.186,0,0,0,.052,1.82,1.667,1.667,0,0,0,2.1.08,1.182,1.182,0,0,0-.025-1.85A1.654,1.654,0,0,0,717.179,1913.22Zm-3.984-3.1a1.157,1.157,0,0,0,.223,1.74,1.58,1.58,0,0,0,1.99-.08,1.138,1.138,0,0,0-.2-1.76A1.544,1.544,0,0,0,713.2,1910.12Zm-4.256-2.8a1.109,1.109,0,0,0,.375,1.63,1.466,1.466,0,0,0,1.871-.22,1.1,1.1,0,0,0-.358-1.66A1.445,1.445,0,0,0,708.939,1907.32Zm-4.6-2.3a1.256,1.256,0,0,0,.1.84,1.124,1.124,0,0,0,.578.57,1.41,1.41,0,0,0,1.669-.42,1.054,1.054,0,0,0-.6-1.56,1.505,1.505,0,0,0-1.116-.07A0.892,0.892,0,0,0,704.341,1905.02Zm-3.438,2.13a2.5,2.5,0,0,0,.436-0.16c0.131-.06.241-0.13,0.353-0.17a0.856,0.856,0,0,0,.4-0.23,0.915,0.915,0,0,0-.022-0.51,1.765,1.765,0,0,0-.359-0.75,1.055,1.055,0,0,0-.881-0.35,1.242,1.242,0,0,0-.977.68,1.575,1.575,0,0,0-.109.33,1.471,1.471,0,0,0-.008.33,1,1,0,0,0,.246.55,0.815,0.815,0,0,0,.442.28A0.975,0.975,0,0,0,700.9,1907.15Zm8.736,49.3a2.7,2.7,0,0,1-3.5-.11,1.92,1.92,0,0,1-.014-3.04,2.781,2.781,0,0,1,3.448.15A1.961,1.961,0,0,1,709.639,1956.45Zm3.855,3.23a2.637,2.637,0,0,1-3.377-.01,1.9,1.9,0,0,1-.161-2.95,2.672,2.672,0,0,1,3.365.02A1.909,1.909,0,0,1,713.494,1959.68Zm3.836,3.24a2.48,2.48,0,0,1-1.617.55,2.8,2.8,0,0,1-.861-0.15,2.46,2.46,0,0,1-.779-0.45,1.843,1.843,0,0,1-.155-2.84,2.547,2.547,0,0,1,3.284.02,2.19,2.19,0,0,1,.551.68,1.866,1.866,0,0,1,.214.77A1.729,1.729,0,0,1,717.33,1962.92Zm3.563,3.46a2.566,2.566,0,0,1-3.144-.28,1.87,1.87,0,0,1-.582-1.39,1.787,1.787,0,0,1,.67-1.34,2.319,2.319,0,0,1,1.6-.49,2.533,2.533,0,0,1,1.614.72,1.917,1.917,0,0,1,.614,1.48A1.7,1.7,0,0,1,720.893,1966.38Zm3.131,3.76a2.5,2.5,0,0,1-1.629.22,2.33,2.33,0,0,1-1.375-.78,1.746,1.746,0,0,1-.389-1.38,1.79,1.79,0,0,1,.8-1.23,2.258,2.258,0,0,1,1.61-.32,2.374,2.374,0,0,1,1.483.84,1.787,1.787,0,0,1,.416,1.48A1.708,1.708,0,0,1,724.024,1970.14Zm2.518,4.07a2.54,2.54,0,0,1-1.612,0,2.748,2.748,0,0,1-.683-0.36,1.864,1.864,0,0,1-.5-0.55,1.527,1.527,0,0,1-.224-0.66,1.508,1.508,0,0,1,.068-0.67,1.839,1.839,0,0,1,.962-1.08,2.175,2.175,0,0,1,1.6-.13,2.616,2.616,0,0,1,.749.36,2.223,2.223,0,0,1,.566.63,1.769,1.769,0,0,1,.255.75,1.521,1.521,0,0,1-.1.73A1.707,1.707,0,0,1,726.542,1974.21Zm1.583,4.38a2.544,2.544,0,0,1-1.53-.31,2.093,2.093,0,0,1-.563-0.44,1.654,1.654,0,0,1-.35-0.58,1.555,1.555,0,0,1-.066-0.65,1.693,1.693,0,0,1,.214-0.61,1.941,1.941,0,0,1,1.145-.86,2.177,2.177,0,0,1,1.568.12,2.1,2.1,0,0,1,.643.48,1.886,1.886,0,0,1,.414.69,1.723,1.723,0,0,1,.079.77,1.666,1.666,0,0,1-.263.67A1.79,1.79,0,0,1,728.125,1978.59Zm0.218,4.51a2.472,2.472,0,0,1-1.339-.66,1.584,1.584,0,0,1-.526-1.12,1.17,1.17,0,0,1,.134-0.59,1.472,1.472,0,0,1,.378-0.5,2.167,2.167,0,0,1,1.332-.55,2.042,2.042,0,0,1,1.449.46,1.792,1.792,0,0,1,.474.59,1.881,1.881,0,0,1,.181.75,1.6,1.6,0,0,1-.639,1.29A1.879,1.879,0,0,1,728.343,1983.1Zm-1.473,4.25a2.035,2.035,0,0,1-.987-0.96,1.507,1.507,0,0,1-.17-0.58,1.344,1.344,0,0,1,.015-0.29,1.048,1.048,0,0,1,.072-0.28,1.57,1.57,0,0,1,.881-0.83,2.358,2.358,0,0,1,1.43-.12,1.856,1.856,0,0,1,1.184.81,1.524,1.524,0,0,1,.107,1.38,1.757,1.757,0,0,1-.175.34,1.668,1.668,0,0,1-.254.27,1.809,1.809,0,0,1-.63.37A1.988,1.988,0,0,1,726.87,1987.35Zm-2.981,3.55a1.8,1.8,0,0,1-.424-0.53,1.64,1.64,0,0,1-.185-0.59,1.34,1.34,0,0,1,.058-0.57,1.193,1.193,0,0,1,.292-0.51,1.625,1.625,0,0,1,.5-0.35,2.55,2.55,0,0,1,.628-0.16,2.354,2.354,0,0,1,1.371.3,1.566,1.566,0,0,1,.794,1.05,1.273,1.273,0,0,1-.037.64,1.442,1.442,0,0,1-.351.61,1.963,1.963,0,0,1-.6.43,2.184,2.184,0,0,1-.712.15,1.879,1.879,0,0,1-.706-0.11A1.927,1.927,0,0,1,723.889,1990.9Zm-3.976,2.73a1.5,1.5,0,0,1-.293-1.16,1.376,1.376,0,0,1,.635-0.94,1.525,1.525,0,0,1,.587-0.22,1.987,1.987,0,0,1,.645-0.02,2.111,2.111,0,0,1,1.209.58,1.363,1.363,0,0,1,.43,1.13,1.334,1.334,0,0,1-.208.58,1.6,1.6,0,0,1-.487.47,1.959,1.959,0,0,1-1.37.26A1.825,1.825,0,0,1,719.913,1993.63Zm-4.553,1.97a1.365,1.365,0,0,1,.755-1.91,1.836,1.836,0,0,1,1.245-.03,1.815,1.815,0,0,1,1.02.74,1.268,1.268,0,0,1,.16,1.13,1.453,1.453,0,0,1-.873.85A1.842,1.842,0,0,1,715.36,1995.6Zm-4.9,1.29a1.289,1.289,0,0,1,.145-1.07,1.463,1.463,0,0,1,.918-0.63,1.817,1.817,0,0,1,2.037.97,1.3,1.3,0,0,1-1.04,1.77,1.883,1.883,0,0,1-1.287-.16A1.5,1.5,0,0,1,710.457,1996.89Zm-5.115.59a1.22,1.22,0,0,1,.317-0.98,1.47,1.47,0,0,1,.987-0.47,1.747,1.747,0,0,1,1.123.28,1.505,1.505,0,0,1,.654.9,1.122,1.122,0,0,1-.242,1,1.581,1.581,0,0,1-1.051.52,1.92,1.92,0,0,1-1.2-.31A1.386,1.386,0,0,1,705.342,1997.48Zm-5.2-.07a1.175,1.175,0,0,1,.461-0.88,1.534,1.534,0,0,1,1.02-.33,1.737,1.737,0,0,1,.559.13,1.415,1.415,0,0,1,.467.28,1.336,1.336,0,0,1,.474.92,1.1,1.1,0,0,1-.4.91,1.522,1.522,0,0,1-.481.28,1.828,1.828,0,0,1-1.69-.36A1.236,1.236,0,0,1,700.141,1997.41Zm-5.176-.72a1.359,1.359,0,0,1,1.6-.96,1.5,1.5,0,0,1,.912.51,1.208,1.208,0,0,1,.3.92,1.113,1.113,0,0,1-.528.81,1.562,1.562,0,0,1-1.083.19A1.32,1.32,0,0,1,694.965,1996.69Zm-5.037-1.38a1.176,1.176,0,0,1,.672-0.64,1.433,1.433,0,0,1,1-.05,1.246,1.246,0,0,1,.919,1.49,1.307,1.307,0,0,1-1.69.73,1.454,1.454,0,0,1-.826-0.62A1.03,1.03,0,0,1,689.928,1995.31Zm-4.785-2a1.19,1.19,0,0,1,.746-0.51,1.261,1.261,0,0,1,.474-0.04,1.373,1.373,0,0,1,.48.12,1.126,1.126,0,0,1,.62,1.5,1.309,1.309,0,0,1-1.721.47,1.639,1.639,0,0,1-.425-0.29,1.22,1.22,0,0,1-.251-0.4A0.941,0.941,0,0,1,685.143,1993.31Zm-4.407-2.61a1.337,1.337,0,0,1,1.677-.17,1.006,1.006,0,0,1,.322,1.47,1.288,1.288,0,0,1-1.7.2A0.982,0.982,0,0,1,680.736,1990.7Zm-6.753-8.28,7.138,2.74,7.138,2.73-9.158.51-3.337,7.31-0.89-6.64Z" transform="translate(-673.969 -1904.31)"/>
</svg>
