<svg xmlns="http://www.w3.org/2000/svg" width="57.937" height="94.5" viewBox="0 0 57.937 94.5">
  <defs>
    <style>
      .cls-1 {
        fill: #ddd9e9;
        fill-rule: evenodd;
      }
    </style>
  </defs>
  <path class="cls-1" d="M702.637,1483.44a1.912,1.912,0,0,1-.946-1.43,1.983,1.983,0,0,1,.108-0.87,2.378,2.378,0,0,1,.517-0.82,2.789,2.789,0,0,1,.831-0.6,2.992,2.992,0,0,1,.962-0.26,2.5,2.5,0,0,1,1.818.5,2.015,2.015,0,0,1,.8,1.48,1.943,1.943,0,0,1-.12.82,2.092,2.092,0,0,1-.469.74,2.573,2.573,0,0,1-.752.55,3.042,3.042,0,0,1-.9.26A2.873,2.873,0,0,1,702.637,1483.44Zm-2.818,3.93a1.924,1.924,0,0,1-1.173-1.23,1.813,1.813,0,0,1-.038-0.86,2.215,2.215,0,0,1,.379-0.87,2.538,2.538,0,0,1,.729-0.68,2.743,2.743,0,0,1,.906-0.37,2.5,2.5,0,0,1,1.836.29,2.11,2.11,0,0,1,.986,1.34,1.97,1.97,0,0,1,.01.78,2.022,2.022,0,0,1-.328.75,2.313,2.313,0,0,1-.626.59,2.925,2.925,0,0,1-.819.36A3.055,3.055,0,0,1,699.819,1487.37Zm-1.888,4.29a2.009,2.009,0,0,1-1.432-.93,1.826,1.826,0,0,1-.241-0.81,2.142,2.142,0,0,1,.168-0.9,2.576,2.576,0,0,1,.558-0.79,2.494,2.494,0,0,1,.8-0.5,2.532,2.532,0,0,1,1.837-.02,2.293,2.293,0,0,1,1.224,1.11,1.761,1.761,0,0,1,.18.73,1.54,1.54,0,0,1-.141.74,1.821,1.821,0,0,1-.458.65,2.394,2.394,0,0,1-.693.47A2.977,2.977,0,0,1,697.931,1491.66Zm0.378,4.26a1.679,1.679,0,0,1-.785.47,1.6,1.6,0,0,1-.5.05,1.831,1.831,0,0,1-.54-0.12,2.156,2.156,0,0,1-.527-0.3,2.21,2.21,0,0,1-.443-0.49,2.3,2.3,0,0,1-.385-1.24,2.136,2.136,0,0,1,.269-1.08,2.01,2.01,0,0,1,.639-0.68,2.433,2.433,0,0,1,1.749-.38,2.475,2.475,0,0,1,1.468.79,2.029,2.029,0,0,1,.513,1.09,0.333,0.333,0,0,1-.143.29,2.718,2.718,0,0,0-.372.34c-0.064.08-.138,0.17-0.209,0.27s-0.14.21-.214,0.32A3.934,3.934,0,0,1,698.309,1495.92Zm4.96,0.76a1.784,1.784,0,0,1-.673,1.42,2.335,2.335,0,0,1-.8.43,3.515,3.515,0,0,1-.483.12,3.48,3.48,0,0,1-.563.02,2.5,2.5,0,0,1-1.839-.88,1.293,1.293,0,0,1-.273-0.77,1.377,1.377,0,0,1,.245-0.76,2.973,2.973,0,0,1,.554-0.63,5.359,5.359,0,0,1,.609-0.48,2,2,0,0,1,1.251-.39,1.958,1.958,0,0,1,.339.06,1.55,1.55,0,0,1,.361.11,2.213,2.213,0,0,1,.629.4A1.918,1.918,0,0,1,703.269,1496.68Zm5.165-.79a1.671,1.671,0,0,1-.352,1.43,2.4,2.4,0,0,1-1.486.85,2.851,2.851,0,0,1-.922,0,2.228,2.228,0,0,1-.784-0.31,1.6,1.6,0,0,1-.775-1.25,1.955,1.955,0,0,1,.5-1.4,2.283,2.283,0,0,1,1.359-.76A2.1,2.1,0,0,1,708.434,1495.89Zm5.1-1.16a1.978,1.978,0,0,1-1.627,2.24,2.026,2.026,0,0,1-2.508-1.3,1.956,1.956,0,0,1,1.624-2.25A2.009,2.009,0,0,1,713.534,1494.73Zm5.166-.77a1.892,1.892,0,0,1-.552,1.29,2.181,2.181,0,0,1-2.021.64,2.006,2.006,0,0,1-.676-0.27,1.718,1.718,0,0,1-.812-1.12,1.573,1.573,0,0,1,.369-1.34,2.119,2.119,0,0,1,.609-0.49,2.685,2.685,0,0,1,.822-0.27,2.217,2.217,0,0,1,1.616.35A1.45,1.45,0,0,1,718.7,1493.96Zm5.131,0.43a2.136,2.136,0,0,1-.929,1.07,2.2,2.2,0,0,1-1.344.31,1.886,1.886,0,0,1-1.163-.6,1.654,1.654,0,0,1-.435-1.23,1.6,1.6,0,0,1,.718-1.19,2.315,2.315,0,0,1,1.6-.39,1.974,1.974,0,0,1,1.376.73A1.337,1.337,0,0,1,723.831,1494.39Zm4.429,2.09a2.4,2.4,0,0,1-.629.39,3.543,3.543,0,0,1-.678.2,1.973,1.973,0,0,1-1.217-.16,1.488,1.488,0,0,1-.7-0.89,1.682,1.682,0,0,1,.1-1.25,1.738,1.738,0,0,1,1.111-.89,2.172,2.172,0,0,1,1.622.19,1.622,1.622,0,0,1,.9,1.18A1.371,1.371,0,0,1,728.26,1496.48Zm2.129,3.94a2.429,2.429,0,0,1-1.347-.22,1.452,1.452,0,0,1-.781-0.72,1.346,1.346,0,0,1,.083-1.02,2.211,2.211,0,0,1,.336-0.52,2.152,2.152,0,0,1,.53-0.46,1.922,1.922,0,0,1,.688-0.25,1.8,1.8,0,0,1,.727.05,1.66,1.66,0,0,1,1.111,1,1.528,1.528,0,0,1-.133,1.43A1.76,1.76,0,0,1,730.389,1500.42Zm-0.8,4.47a1.779,1.779,0,0,1-1.009-.73,1.27,1.27,0,0,1-.209-0.51,1.151,1.151,0,0,1,.021-0.53,1.385,1.385,0,0,1,.258-0.5,1.481,1.481,0,0,1,.21-0.2,1.824,1.824,0,0,1,.24-0.19,2.406,2.406,0,0,1,1.3-.36,1.533,1.533,0,0,1,1.178.53,2.079,2.079,0,0,1,.177.27,1.615,1.615,0,0,1,.1.31,1.409,1.409,0,0,1-.026.69,1.674,1.674,0,0,1-.333.64,1.757,1.757,0,0,1-.546.43A1.886,1.886,0,0,1,729.593,1504.89Zm-2.38,4.12a1.355,1.355,0,0,1-.6-1.96,1.547,1.547,0,0,1,.418-0.44,1.806,1.806,0,0,1,.556-0.27,2.043,2.043,0,0,1,1.292.03,1.336,1.336,0,0,1,.849.82,1.282,1.282,0,0,1,.061.58,1.6,1.6,0,0,1-.223.6A1.852,1.852,0,0,1,727.213,1509.01Zm-3,3.84a1.281,1.281,0,0,1-.34-1.95,1.849,1.849,0,0,1,2.257-.43,1.279,1.279,0,0,1,.377,1.98A1.812,1.812,0,0,1,724.216,1512.85Zm-3.355,3.62a1.228,1.228,0,0,1-.134-1.89,1.761,1.761,0,0,1,2.185-.25,1.224,1.224,0,0,1,.168,1.92A1.738,1.738,0,0,1,720.861,1516.47Zm-3.682,3.37a1.186,1.186,0,0,1,.052-1.82,1.667,1.667,0,0,1,2.1-.08,1.182,1.182,0,0,1-.025,1.85A1.654,1.654,0,0,1,717.179,1519.84Zm-3.984,3.1a1.145,1.145,0,0,1,.223-1.73,1.566,1.566,0,0,1,1.99.07,1.138,1.138,0,0,1-.2,1.76A1.544,1.544,0,0,1,713.2,1522.94Zm-4.256,2.8a1.109,1.109,0,0,1,.375-1.63,1.466,1.466,0,0,1,1.871.22,1.1,1.1,0,0,1-.358,1.66A1.445,1.445,0,0,1,708.939,1525.74Zm-4.6,2.3a1.256,1.256,0,0,1,.1-0.84,1.124,1.124,0,0,1,.578-0.57,1.41,1.41,0,0,1,1.669.42,1.052,1.052,0,0,1-.6,1.56,1.56,1.56,0,0,1-1.116.08A0.922,0.922,0,0,1,704.341,1528.04Zm-3.438-2.13a2.5,2.5,0,0,1,.436.16c0.131,0.07.241,0.13,0.353,0.18a0.779,0.779,0,0,1,.4.23,0.914,0.914,0,0,1-.022.51,1.787,1.787,0,0,1-.359.74,1.055,1.055,0,0,1-.881.35,1.22,1.22,0,0,1-.977-0.68,1.4,1.4,0,0,1-.109-0.33,1.458,1.458,0,0,1-.008-0.33,1,1,0,0,1,.246-0.55,0.815,0.815,0,0,1,.442-0.28A0.975,0.975,0,0,1,700.9,1525.91Zm8.736-49.3a2.7,2.7,0,0,0-3.5.11,1.92,1.92,0,0,0-.014,3.04,2.781,2.781,0,0,0,3.448-.15A1.961,1.961,0,0,0,709.639,1476.61Zm3.855-3.22a2.624,2.624,0,0,0-3.377,0,1.9,1.9,0,0,0-.161,2.95,2.659,2.659,0,0,0,3.365-.02A1.9,1.9,0,0,0,713.494,1473.39Zm3.836-3.24a2.489,2.489,0,0,0-1.617-.56,3.131,3.131,0,0,0-.861.15,2.46,2.46,0,0,0-.779.45,1.843,1.843,0,0,0-.155,2.84,2.558,2.558,0,0,0,3.284-.01,2.445,2.445,0,0,0,.551-0.68,1.909,1.909,0,0,0,.214-0.78A1.71,1.71,0,0,0,717.33,1470.15Zm3.563-3.47a2.566,2.566,0,0,0-3.144.28,1.87,1.87,0,0,0-.582,1.39,1.787,1.787,0,0,0,.67,1.34,2.271,2.271,0,0,0,1.6.49,2.533,2.533,0,0,0,1.614-.72,1.911,1.911,0,0,0,.614-1.47A1.715,1.715,0,0,0,720.893,1466.68Zm3.131-3.76a2.562,2.562,0,0,0-1.629-.22,2.344,2.344,0,0,0-1.375.79,1.714,1.714,0,0,0-.389,1.37,1.79,1.79,0,0,0,.8,1.23,2.263,2.263,0,0,0,1.61.33,2.47,2.47,0,0,0,1.483-.84,1.816,1.816,0,0,0,.416-1.49A1.708,1.708,0,0,0,724.024,1462.92Zm2.518-4.07a2.539,2.539,0,0,0-1.612.01,2.426,2.426,0,0,0-.683.35,2,2,0,0,0-.5.55,1.527,1.527,0,0,0-.224.66,1.568,1.568,0,0,0,.068.68,1.851,1.851,0,0,0,.962,1.07,2.175,2.175,0,0,0,1.6.13,2.377,2.377,0,0,0,.749-0.36,2.326,2.326,0,0,0,.566-0.62,1.856,1.856,0,0,0,.255-0.76,1.465,1.465,0,0,0-.1-0.72A1.7,1.7,0,0,0,726.542,1458.85Zm1.583-4.38a2.618,2.618,0,0,0-1.53.31,2.093,2.093,0,0,0-.563.44,1.654,1.654,0,0,0-.35.58,1.555,1.555,0,0,0-.066.65,1.693,1.693,0,0,0,.214.61,1.994,1.994,0,0,0,1.145.87,2.232,2.232,0,0,0,1.568-.13,2.1,2.1,0,0,0,.643-0.48,1.808,1.808,0,0,0,.414-0.69,1.723,1.723,0,0,0,.079-0.77,1.666,1.666,0,0,0-.263-0.67A1.824,1.824,0,0,0,728.125,1454.47Zm0.218-4.51a2.472,2.472,0,0,0-1.339.66,1.588,1.588,0,0,0-.526,1.13,1.194,1.194,0,0,0,.134.59,1.694,1.694,0,0,0,.378.5,2.218,2.218,0,0,0,1.332.54,2.042,2.042,0,0,0,1.449-.46,1.792,1.792,0,0,0,.474-0.59,1.881,1.881,0,0,0,.181-0.75,1.6,1.6,0,0,0-.639-1.29A1.921,1.921,0,0,0,728.343,1449.96Zm-1.473-4.25a2.035,2.035,0,0,0-.987.96,1.507,1.507,0,0,0-.17.58,1.344,1.344,0,0,0,.015.29,1.231,1.231,0,0,0,.072.29,1.587,1.587,0,0,0,.881.82,2.358,2.358,0,0,0,1.43.12,1.856,1.856,0,0,0,1.184-.81,1.524,1.524,0,0,0,.107-1.38,2.1,2.1,0,0,0-.175-0.34,1.668,1.668,0,0,0-.254-0.27,1.809,1.809,0,0,0-.63-0.37A2.038,2.038,0,0,0,726.87,1445.71Zm-2.981-3.55a1.8,1.8,0,0,0-.424.53,1.64,1.64,0,0,0-.185.59,1.34,1.34,0,0,0,.058.57,1.193,1.193,0,0,0,.292.51,1.625,1.625,0,0,0,.5.35,2.172,2.172,0,0,0,.628.16,2.344,2.344,0,0,0,1.371-.29,1.584,1.584,0,0,0,.794-1.06,1.279,1.279,0,0,0-.037-0.64,1.5,1.5,0,0,0-.351-0.61,1.931,1.931,0,0,0-.6-0.42,1.966,1.966,0,0,0-.712-0.16,1.879,1.879,0,0,0-.706.11A1.927,1.927,0,0,0,723.889,1442.16Zm-3.976-2.73a1.51,1.51,0,0,0-.293,1.16,1.376,1.376,0,0,0,.635.94,1.722,1.722,0,0,0,.587.23,2.316,2.316,0,0,0,.645.01,2.111,2.111,0,0,0,1.209-.58,1.363,1.363,0,0,0,.43-1.13,1.334,1.334,0,0,0-.208-0.58,1.6,1.6,0,0,0-.487-0.47,1.959,1.959,0,0,0-1.37-.26A1.825,1.825,0,0,0,719.913,1439.43Zm-4.553-1.97a1.365,1.365,0,0,0,.755,1.91,1.934,1.934,0,0,0,2.265-.7,1.285,1.285,0,0,0,.16-1.14,1.453,1.453,0,0,0-.873-0.85A1.842,1.842,0,0,0,715.36,1437.46Zm-4.9-1.29a1.283,1.283,0,0,0,.145,1.07,1.514,1.514,0,0,0,.918.64,1.823,1.823,0,0,0,2.037-.98,1.3,1.3,0,0,0-1.04-1.77,1.883,1.883,0,0,0-1.287.16A1.5,1.5,0,0,0,710.457,1436.17Zm-5.115-.59a1.22,1.22,0,0,0,.317.98,1.479,1.479,0,0,0,.987.48,1.754,1.754,0,0,0,1.123-.29,1.514,1.514,0,0,0,.654-0.89,1.134,1.134,0,0,0-.242-1.01,1.626,1.626,0,0,0-1.051-.52,1.92,1.92,0,0,0-1.2.31A1.386,1.386,0,0,0,705.342,1435.58Zm-5.2.07a1.213,1.213,0,0,0,.461.89,1.528,1.528,0,0,0,1.02.32,1.728,1.728,0,0,0,.559-0.12,1.636,1.636,0,0,0,.467-0.29,1.336,1.336,0,0,0,.474-0.92,1.1,1.1,0,0,0-.4-0.91,1.335,1.335,0,0,0-.481-0.27,1.75,1.75,0,0,0-1.69.36A1.215,1.215,0,0,0,700.141,1435.65Zm-5.176.72a1.359,1.359,0,0,0,1.6.96,1.5,1.5,0,0,0,.912-0.51,1.2,1.2,0,0,0,.3-0.92,1.113,1.113,0,0,0-.528-0.81,1.618,1.618,0,0,0-1.083-.19A1.32,1.32,0,0,0,694.965,1436.37Zm-5.037,1.38a1.176,1.176,0,0,0,.672.64,1.433,1.433,0,0,0,1,.05,1.246,1.246,0,0,0,.919-1.49,1.315,1.315,0,0,0-1.69-.73,1.5,1.5,0,0,0-.826.62A1.033,1.033,0,0,0,689.928,1437.75Zm-4.785,2a1.244,1.244,0,0,0,.746.52,1.5,1.5,0,0,0,.474.03,1.373,1.373,0,0,0,.48-0.12,1.126,1.126,0,0,0,.62-1.5,1.309,1.309,0,0,0-1.721-.47,1.45,1.45,0,0,0-.425.3,1.087,1.087,0,0,0-.251.39A0.941,0.941,0,0,0,685.143,1439.75Zm-4.407,2.61a1.337,1.337,0,0,0,1.677.17,1.006,1.006,0,0,0,.322-1.47,1.3,1.3,0,0,0-1.7-.2A0.982,0.982,0,0,0,680.736,1442.36Zm-6.753,8.28,7.138-2.74,7.138-2.73-9.158-.51-3.337-7.31-0.89,6.64Z" transform="translate(-673.969 -1434.28)"/>
</svg>
