<svg xmlns="http://www.w3.org/2000/svg" width="81.03" height="50" viewBox="0 0 81.03 50">
  <defs>
    <style>
      .cls-1 {
        fill: #505871;
        fill-rule: evenodd;
      }
    </style>
  </defs>
  <path id="Logo_04" data-name="Logo 04" class="cls-1" d="M1028.64,6469.76a0.641,0.641,0,0,0-.34.83,0.629,0.629,0,0,0,.82.34,0.637,0.637,0,0,0,.34-0.83A0.629,0.629,0,0,0,1028.64,6469.76Zm28.05,21.55a0.191,0.191,0,0,0,.19-0.23v-0.65a0.2,0.2,0,0,0-.19-0.24h-0.13v1.05a0.055,0.055,0,0,1-.04.06v0.01h0.17Zm17.72-.21v-0.68c0-.12-0.02-0.24-0.16-0.24a0.194,0.194,0,0,0-.16.24v0.68a0.184,0.184,0,0,0,.16.23C1074.39,6491.33,1074.41,6491.22,1074.41,6491.1Zm-2.02,0v-0.68a0.191,0.191,0,0,0-.17-0.24,0.2,0.2,0,0,0-.16.24v0.68a0.19,0.19,0,0,0,.16.23A0.183,0.183,0,0,0,1072.39,6491.1Zm1.71-41.08a0.492,0.492,0,0,0,.38-0.16,0.592,0.592,0,0,0,.15-0.41,0.568,0.568,0,0,0-.15-0.4,0.469,0.469,0,0,0-.38-0.17,0.463,0.463,0,0,0-.37.17,0.568,0.568,0,0,0-.15.4,0.592,0.592,0,0,0,.15.41A0.485,0.485,0,0,0,1074.1,6450.02Zm5.45-.16a0.506,0.506,0,0,0,.15-0.4,0.52,0.52,0,0,0-.15-0.4,0.637,0.637,0,0,0-.45-0.14h-0.22V6450h0.25A0.59,0.59,0,0,0,1079.55,6449.86Zm-28.88.16a0.471,0.471,0,0,0,.37-0.16,0.558,0.558,0,0,0,.16-0.41,0.535,0.535,0,0,0-.16-0.4,0.488,0.488,0,0,0-.74,0,0.568,0.568,0,0,0-.15.4,0.592,0.592,0,0,0,.15.41A0.471,0.471,0,0,0,1050.67,6450.02Zm5.45-.16a0.5,0.5,0,0,0,.14-0.4,0.516,0.516,0,0,0-.14-0.4,0.655,0.655,0,0,0-.45-0.14h-0.22V6450h0.25A0.607,0.607,0,0,0,1056.12,6449.86Zm-2.58-.49a0.292,0.292,0,0,0,.07-0.21,0.214,0.214,0,0,0-.08-0.19,0.433,0.433,0,0,0-.26-0.06h-0.3v0.53h0.29A0.411,0.411,0,0,0,1053.54,6449.37Zm23.43,0a0.254,0.254,0,0,0,.07-0.21,0.214,0.214,0,0,0-.08-0.19,0.433,0.433,0,0,0-.26-0.06h-0.3v0.53h0.29A0.394,0.394,0,0,0,1076.97,6449.37Zm20.58,20.74a0.638,0.638,0,0,0,.34.82A0.632,0.632,0,1,0,1097.55,6470.11Zm-52.25-6.81a0.536,0.536,0,0,0-.45.74l0.51,2.58a0.594,0.594,0,1,0,1.16-.23l-0.51-2.58A0.538,0.538,0,0,0,1045.3,6463.3Zm26.97-1.39-0.47-.05-0.13,1.42,0.47,0.05a0.468,0.468,0,0,0,.55-0.51l0.02-.31A0.46,0.46,0,0,0,1072.27,6461.91Zm31.48,5.04a3.98,3.98,0,0,1-1.21-1.57,3.524,3.524,0,0,1-.27-0.97,3.208,3.208,0,0,1,.01-0.93l0.06-.32-0.32-.14a98.641,98.641,0,0,0-77.03,0l-0.31.14,0.05,0.31a2.958,2.958,0,0,1,.01.94,3.524,3.524,0,0,1-.27.97h0a3.761,3.761,0,0,1-.51.88,3.8,3.8,0,0,1-.7.69l-0.27.2,0.13,0.29,4.19,9.05,0.13,0.29,0.3-.06a2.786,2.786,0,0,1,.87-0.04,3.474,3.474,0,0,1,.9.25,3.64,3.64,0,0,1,.81.49,3.32,3.32,0,0,1,.62.68l0.18,0.26,0.26-.11a82.286,82.286,0,0,1,64.25,0l0.26,0.12,0.18-.27a3.6,3.6,0,0,1,.62-0.68,3.64,3.64,0,0,1,.81-0.49,3.474,3.474,0,0,1,.9-0.25,2.85,2.85,0,0,1,.88.04l0.29,0.06,0.13-.29,4.19-9.05,0.13-.29Zm-74.63,3.98a0.629,0.629,0,0,1-.82-0.34,0.641,0.641,0,0,1,.34-0.83,0.629,0.629,0,0,1,.82.34A0.637,0.637,0,0,1,1029.12,6470.93Zm8.69-.22-0.42-1.37,0.42-.13-0.42-1.37-1.24.39,0.42,1.37,0.42-.13,0.43,1.36-3.23,1.01-0.42-1.36,0.49-.16-1.15-3.74-0.5.15-0.42-1.36,3.23-1.01,0.42,1.36-0.42.13,0.39,1.27,1.24-.39-0.39-1.26-0.42.13-0.42-1.37,3.23-1,0.42,1.36-0.5.16,1.16,3.74,0.49-.16,0.42,1.37Zm8.56-2.05c-1.98.4-3.43-.3-3.92-2.79s0.58-3.7,2.55-4.09,3.43,0.29,3.92,2.79S1048.34,6468.26,1046.37,6468.66Zm8.21-1.24a7.139,7.139,0,0,1-2.74-.19l-0.18-1.72,1.9-.19a0.427,0.427,0,0,0,.58.45c0.38-.03.51-0.17,0.49-0.4-0.02-.15-0.12-0.26-0.54-0.37-1.77-.46-2.64-0.84-2.78-2.19-0.13-1.29.52-2.17,2.72-2.39a4.905,4.905,0,0,1,2.57.3l0.16,1.55-1.81.18a0.4,0.4,0,0,0-.52-0.38c-0.37.04-.52,0.14-0.5,0.38,0.02,0.2.21,0.24,0.58,0.32,1.37,0.3,2.53.64,2.68,2.13S1056.42,6467.23,1054.58,6467.42Zm8.34-.45c-2.02.01-3.31-.95-3.33-3.49s1.27-3.52,3.28-3.53,3.31,0.94,3.33,3.49S1064.93,6466.95,1062.92,6466.97Zm12.13,0.57-2.73-.26,0.19-2.04c0.06-.69-0.22-0.83-0.94-0.9l-0.13,1.43,0.57,0.05-0.13,1.42-3.5-.33,0.13-1.42,0.52,0.05,0.36-3.9-0.52-.05,0.13-1.42,4.04,0.37c1.42,0.14,2.24.74,2.11,2.17a1.6,1.6,0,0,1-1.05,1.51v0.09a0.913,0.913,0,0,1,.74,1.1l-0.07.67,0.41,0.03Zm8.83-2.6-1.9-.37,0.23-1.18-1.03-.2-0.26,1.36,0.75,0.14-0.19.98-0.74-.15-0.3,1.52,1.03,0.2,0.26-1.35,1.9,0.37-0.53,2.75-5.81-1.13,0.27-1.4,0.51,0.1,0.74-3.85-0.51-.1,0.27-1.4,5.81,1.13Zm10.66,1.82-0.49-.15-1.55,5.11-2.33-.71-1.28-4.51-0.73,2.4,0.5,0.15-0.41,1.36-2.9-.89,0.42-1.36,0.49,0.15,1.14-3.75-0.5-.15,0.42-1.37,3.07,0.95,1.15,4.02,0.61-1.99-0.5-.15,0.41-1.37,2.9,0.89Zm4.17,3.83a0.629,0.629,0,0,1-.82.34,0.638,0.638,0,0,1-.34-0.82,0.626,0.626,0,0,1,.82-0.35A0.632,0.632,0,0,1,1098.71,6470.59Zm-35.83-9.09a0.534,0.534,0,0,0-.58.65l0.01,2.63a0.592,0.592,0,1,0,1.18-.01l-0.02-2.63A0.537,0.537,0,0,0,1062.88,6461.5Zm23.53,19.19h4.68v-0.22h-4.68v0.22Zm-50.49,0h4.68v-0.22h-4.68v0.22Zm12.71-2.22-1.49.14a1.945,1.945,0,0,0-.76-0.14,2.6,2.6,0,0,0-2.55,1.72,3.263,3.263,0,0,0-.2,1.12,4.07,4.07,0,0,0,.09.95,1.337,1.337,0,0,0,.3.58,1.165,1.165,0,0,0,.52.33,2.092,2.092,0,0,0,.72.11,1.666,1.666,0,0,0,.69-0.14,1,1,0,0,0,.44-0.36,0.628,0.628,0,0,0,.3.37,1.211,1.211,0,0,0,.6.13,1.32,1.32,0,0,0,.67-0.18,0.784,0.784,0,0,0,.41-0.47,0.47,0.47,0,0,1-.3-0.14,0.45,0.45,0,0,1-.11-0.31,2.113,2.113,0,0,1,.02-0.3Zm-2.28,3.24a1.686,1.686,0,0,1-.28.74,0.606,0.606,0,0,1-.49.27,0.231,0.231,0,0,1-.21-0.15,1.737,1.737,0,0,1-.08-0.65,6.9,6.9,0,0,1,.14-1.23c0.1-.47.18-0.8,0.23-0.98a1.856,1.856,0,0,1,.19-0.42,0.631,0.631,0,0,1,.23-0.23,0.639,0.639,0,0,1,.34-0.07,0.561,0.561,0,0,1,.39.16Zm5.14-3.24-1.77.17-0.58,3.12a1.917,1.917,0,0,0-.03.39,1,1,0,0,0,.39.8,1.393,1.393,0,0,0,.93.33,1.75,1.75,0,0,0,1.46-.54,0.654,0.654,0,0,0,.31.39,1.226,1.226,0,0,0,.65.15,1.286,1.286,0,0,0,.8-0.3,0.589,0.589,0,0,0,.23-0.35,0.4,0.4,0,0,1-.33-0.19,0.648,0.648,0,0,1-.07-0.29,1.229,1.229,0,0,1,.02-0.27l0.65-3.41-1.72.17-0.61,3.21a1.2,1.2,0,0,1-.12.35,0.7,0.7,0,0,1-.58.46q-0.3,0-.3-0.51a2,2,0,0,1,.03-0.3Zm3.26,3.76a1.1,1.1,0,0,0,.26.77,0.862,0.862,0,0,0,.69.28,1.5,1.5,0,0,0,.76-0.18,0.767,0.767,0,0,0,.4-0.47,0.457,0.457,0,0,1-.37-0.5,4.9,4.9,0,0,1,.11-0.73l0.45-2.37h0.67l0.07-.39h-0.67l0.21-.95h-0.42a6.555,6.555,0,0,1-2.05,1.08l-0.04.26h0.52l-0.46,2.37A4.326,4.326,0,0,0,1054.75,6482.23Zm7.29,0.9a0.8,0.8,0,0,0,.47-0.5,0.477,0.477,0,0,1-.39-0.5,1.723,1.723,0,0,1,.05-0.35l0.2-.99,0.11-.63c0.03-.16.05-0.29,0.06-0.38s0.01-.19.01-0.31a1.294,1.294,0,0,0-.06-0.37,1,1,0,0,0-1.12-.63,1.832,1.832,0,0,0-1.38.49,9.707,9.707,0,0,0,.45-1.81l0.07-.35-1.75.18-1.23,6.3,1.75-.18,0.59-2.98a2.273,2.273,0,0,1,.15-0.48,0.659,0.659,0,0,1,.56-0.5c0.18,0,.27.16,0.27,0.49a6.531,6.531,0,0,1-.15,1.04l-0.12.67a5.137,5.137,0,0,0-.14.95,1.194,1.194,0,0,0,.15.66,0.732,0.732,0,0,0,.28.24,1.184,1.184,0,0,0,.52.09A1.443,1.443,0,0,0,1062.04,6483.13Zm3.97-4.66a2.645,2.645,0,0,0-2.1.86,3.131,3.131,0,0,0-.71,2.13,1.759,1.759,0,0,0,.46,1.31,1.5,1.5,0,0,0,.59.38,2.712,2.712,0,0,0,.95.13,2.483,2.483,0,0,0,1.15-.29,1.288,1.288,0,0,0,.44-0.35,0.846,0.846,0,0,0,.16-0.54,0.53,0.53,0,0,0-.21-0.47,1.071,1.071,0,0,1-.5.39,1.6,1.6,0,0,1-.68.16,0.726,0.726,0,0,1-.51-0.16,0.684,0.684,0,0,1-.18-0.55,3.189,3.189,0,0,1,.03-0.42c1.77,0,2.65-.52,2.65-1.54a0.866,0.866,0,0,0-.31-0.69A1.807,1.807,0,0,0,1066.01,6478.47Zm-0.07,1.82a1.288,1.288,0,0,1-.98.38,3.678,3.678,0,0,1,.51-1.45,0.731,0.731,0,0,1,.25-0.25,0.671,0.671,0,0,1,.28-0.06,0.253,0.253,0,0,1,.22.11,0.57,0.57,0,0,1,.07.31A1.366,1.366,0,0,1,1065.94,6480.29Zm2.59-1.66-0.91,4.65,1.75-.18,0.51-2.66c0.18-.87.43-1.3,0.76-1.3q0.3,0,.3.51a10.379,10.379,0,0,1-.24,1.39l-0.16.81a4.369,4.369,0,0,0-.07.61,0.841,0.841,0,0,0,1.05.82,1.315,1.315,0,0,0,.69-0.18,0.783,0.783,0,0,0,.39-0.47,0.47,0.47,0,0,1-.3-0.14,0.5,0.5,0,0,1-.11-0.34,4,4,0,0,1,.13-0.78,10.269,10.269,0,0,0,.28-1.81,1.13,1.13,0,0,0-.26-0.83,1.162,1.162,0,0,0-.87-0.26,1.661,1.661,0,0,0-1.66.85l0.14-.85Zm4.9,3.6a1.1,1.1,0,0,0,.25.77,0.883,0.883,0,0,0,.7.28,1.487,1.487,0,0,0,.75-0.18,0.767,0.767,0,0,0,.4-0.47,0.458,0.458,0,0,1-.36-0.5,3.822,3.822,0,0,1,.11-0.73l0.44-2.37h0.67l0.08-.39h-0.68l0.21-.95h-0.42a6.449,6.449,0,0,1-2.05,1.08l-0.03.26h0.51l-0.46,2.37A4.979,4.979,0,0,0,1073.43,6482.23Zm4.77-5.52a1.27,1.27,0,0,0-.69.19,0.582,0.582,0,0,0-.28.52,0.59,0.59,0,0,0,.25.52,1.152,1.152,0,0,0,.67.18,1.208,1.208,0,0,0,.68-0.18,0.583,0.583,0,0,0,.27-0.52,0.619,0.619,0,0,0-.24-0.52A1.122,1.122,0,0,0,1078.2,6476.71Zm0.63,1.76-1.76.17-0.32,1.7a10.406,10.406,0,0,0-.32,2.09,0.854,0.854,0,0,0,.23.54,0.925,0.925,0,0,0,.72.31,1.086,1.086,0,0,0,1.13-.66c-0.24-.01-0.35-0.18-0.35-0.51a5.552,5.552,0,0,1,.14-0.88Zm3.31,0a2.765,2.765,0,0,0-2.11.77,2.919,2.919,0,0,0-.78,2.16,1.616,1.616,0,0,0,1.77,1.88,2.791,2.791,0,0,0,1.44-.33,0.952,0.952,0,0,0,.54-0.82,0.659,0.659,0,0,0-.33-0.65,0.952,0.952,0,0,1-.18.28,1.212,1.212,0,0,1-.9.42,0.664,0.664,0,0,1-.53-0.2,0.969,0.969,0,0,1-.17-0.63,3.806,3.806,0,0,1,.37-1.59,2.46,2.46,0,0,1,.36-0.56,0.512,0.512,0,0,1,.37-0.22c0.17,0,.25.12,0.25,0.37q0,0.075-.03.36a1.726,1.726,0,0,1-.13.52,0.811,0.811,0,0,0,.33.06,1.289,1.289,0,0,0,.8-0.23,0.7,0.7,0,0,0,.31-0.6Q1083.52,6478.47,1082.14,6478.47Zm-33.38,14.11h10.02v-0.21h-10.02v0.21Zm0-3.31h10.02v-0.21h-10.02v0.21Zm19.47,0h10.02v-0.21h-10.02v0.21Zm0,3.31h10.02v-0.21h-10.02v0.21Zm-7.27-3.36v3.74a2.608,2.608,0,0,0,5.09,0v-3.74A4.437,4.437,0,0,0,1060.96,6489.22Zm2.63,0.58,0.34,1.02h0.92a0.085,0.085,0,0,1,.08.07,0.1,0.1,0,0,1-.03.1l-0.74.53,0.32,0.99a0.084,0.084,0,0,1-.03.1,0.13,0.13,0,0,1-.1,0l-0.84-.61-0.85.61a0.13,0.13,0,0,1-.1,0,0.084,0.084,0,0,1-.03-0.1l0.32-.99-0.74-.53a0.1,0.1,0,0,1-.03-0.1,0.1,0.1,0,0,1,.08-0.07h0.92l0.34-1.02a0.1,0.1,0,0,1,.09-0.06A0.1,0.1,0,0,1,1063.59,6489.8Zm-13.16,1.58v0.06h0.72v-0.31h-0.08l-0.07.19h-0.32v-0.01a0.055,0.055,0,0,0,.04-0.06v-0.43h0.18l0.05,0.1h0.06v-0.33h-0.06l-0.05.11h-0.18v-0.51h0.26l0.05,0.19h0.1v-0.31h-0.69v0.05l0.07,0.06v1.14Zm1.95-.33v0.11a0.3,0.3,0,0,0,.34.3,0.306,0.306,0,0,0,.36-0.3v-0.17c0-.36-0.49-0.25-0.49-0.49v-0.16a0.134,0.134,0,0,1,.14-0.15,0.13,0.13,0,0,1,.14.15v0.1h0.2v-0.37h-0.13l-0.01.08h-0.01a0.256,0.256,0,0,0-.22-0.09,0.27,0.27,0,0,0-.31.28v0.16c0,0.34.49,0.24,0.49,0.5v0.16a0.143,0.143,0,0,1-.15.17c-0.08,0-.13-0.05-0.13-0.17v-0.11h-0.22Zm2.55-.85,0.06,0.22h0.1l-0.01-.35h-0.79v0.35h0.09l0.06-.22h0.14v1.11l-0.08.06v0.07h0.37v-0.07l-0.08-.06v-1.11h0.14Zm1.35,1.18v0.06h0.41a0.345,0.345,0,0,0,.39-0.36v-0.65a0.336,0.336,0,0,0-.39-0.36h-0.4v0.06l0.07,0.06v1.13Zm0.28-.14v-1.05h0.13a0.2,0.2,0,0,1,.19.24v0.65a0.191,0.191,0,0,1-.19.23h-0.17v-0.01A0.055,0.055,0,0,0,1056.56,6491.24Zm13.37,0.2h0.67v-0.33h-0.09l-0.06.19h-0.31c0.01-.41.44-0.59,0.44-0.95a0.283,0.283,0,0,0-.33-0.3,0.307,0.307,0,0,0-.31.38h0.2c0-.09-0.01-0.25.11-0.25a0.139,0.139,0,0,1,.12.17,8.41,8.41,0,0,0-.44,1.02v0.07Zm2.66-.34v-0.68a0.325,0.325,0,0,0-.37-0.36,0.336,0.336,0,0,0-.36.36v0.68a0.341,0.341,0,0,0,.36.36A0.33,0.33,0,0,0,1072.59,6491.1Zm-0.53,0v-0.68a0.2,0.2,0,0,1,.16-0.24,0.191,0.191,0,0,1,.17.24v0.68a0.183,0.183,0,0,1-.17.23A0.19,0.19,0,0,1,1072.06,6491.1Zm2.55,0v-0.68a0.318,0.318,0,0,0-.36-0.36,0.331,0.331,0,0,0-.36.36v0.68a0.336,0.336,0,0,0,.36.36A0.322,0.322,0,0,0,1074.61,6491.1Zm-0.52,0v-0.68a0.194,0.194,0,0,1,.16-0.24c0.14,0,.16.12,0.16,0.24v0.68c0,0.12-.02.23-0.16,0.23A0.184,0.184,0,0,1,1074.09,6491.1Zm1.78,0.34h0.67v-0.33h-0.09l-0.06.19h-0.31c0.01-.41.44-0.59,0.44-0.95a0.283,0.283,0,0,0-.33-0.3,0.307,0.307,0,0,0-.31.38h0.19c0-.09,0-0.25.12-0.25a0.139,0.139,0,0,1,.12.17,8.41,8.41,0,0,0-.44,1.02v0.07Zm-12.36-37.97a4.23,4.23,0,1,0-4.2-4.23A4.219,4.219,0,0,0,1063.51,6453.47Zm-2.38-5.06h1.74l0.54-1.67a0.1,0.1,0,0,1,.1-0.07,0.1,0.1,0,0,1,.09.07l0.54,1.67h1.74a0.1,0.1,0,0,1,.1.07,0.1,0.1,0,0,1-.04.11l-1.41,1.03,0.54,1.67a0.1,0.1,0,0,1-.04.12,0.085,0.085,0,0,1-.06.02,0.142,0.142,0,0,1-.06-0.02l-1.4-1.04-1.41,1.04a0.127,0.127,0,0,1-.12,0,0.1,0.1,0,0,1-.04-0.12l0.54-1.67-1.41-1.03a0.1,0.1,0,0,1-.04-0.11A0.1,0.1,0,0,1,1061.13,6448.41Zm-13.6.83,0.84,1.11h0.4v-1.78h-0.4v1.15l-0.87-1.15h-0.37v1.78h0.4v-1.11Zm3.14,1.13a0.93,0.93,0,0,0,.66-0.26,0.942,0.942,0,0,0,0-1.32,0.968,0.968,0,0,0-1.32,0,0.942,0.942,0,0,0,0,1.32A0.93,0.93,0,0,0,1050.67,6450.37Zm-0.37-1.32a0.488,0.488,0,0,1,.74,0,0.535,0.535,0,0,1,.16.4,0.558,0.558,0,0,1-.16.41,0.508,0.508,0,0,1-.74,0,0.592,0.592,0,0,1-.15-0.41A0.568,0.568,0,0,1,1050.3,6449.05Zm2.67,0.74h0.27l0.4,0.56h0.48l-0.45-.63a0.531,0.531,0,0,0,.34-0.56,0.539,0.539,0,0,0-.18-0.45,0.947,0.947,0,0,0-.58-0.14h-0.67v1.78h0.39v-0.56Zm0-.88h0.3a0.433,0.433,0,0,1,.26.06,0.214,0.214,0,0,1,.08.19,0.292,0.292,0,0,1-.07.21,0.411,0.411,0,0,1-.28.07h-0.29v-0.53Zm3.45,1.2a0.892,0.892,0,0,0,.24-0.66,0.852,0.852,0,0,0-.25-0.65,1.064,1.064,0,0,0-.73-0.23h-0.62v1.78h0.6A1.066,1.066,0,0,0,1056.42,6450.11Zm-0.97-1.19h0.22a0.655,0.655,0,0,1,.45.14,0.516,0.516,0,0,1,.14.4,0.5,0.5,0,0,1-.14.4,0.607,0.607,0,0,1-.42.14h-0.25v-1.08Zm15.51,0.32,0.84,1.11h0.4v-1.78h-0.4v1.15l-0.86-1.15h-0.37v1.78h0.39v-1.11Zm3.14,1.13a0.93,0.93,0,0,0,.66-0.26,0.942,0.942,0,0,0,0-1.32,0.968,0.968,0,0,0-1.32,0,0.942,0.942,0,0,0,0,1.32A0.93,0.93,0,0,0,1074.1,6450.37Zm-0.37-1.32a0.463,0.463,0,0,1,.37-0.17,0.469,0.469,0,0,1,.38.17,0.568,0.568,0,0,1,.15.4,0.592,0.592,0,0,1-.15.41,0.492,0.492,0,0,1-.38.16,0.485,0.485,0,0,1-.37-0.16,0.592,0.592,0,0,1-.15-0.41A0.568,0.568,0,0,1,1073.73,6449.05Zm2.67,0.74h0.28l0.39,0.56h0.48l-0.44-.63a0.537,0.537,0,0,0,.33-0.56,0.566,0.566,0,0,0-.17-0.45,1,1,0,0,0-.59-0.14h-0.67v1.78h0.39v-0.56Zm0-.88h0.3a0.433,0.433,0,0,1,.26.06,0.214,0.214,0,0,1,.08.19,0.254,0.254,0,0,1-.07.21,0.394,0.394,0,0,1-.28.07h-0.29v-0.53Zm3.45,1.2a0.892,0.892,0,0,0,.24-0.66,0.852,0.852,0,0,0-.25-0.65,1.064,1.064,0,0,0-.73-0.23h-0.62v1.78h0.6A1.066,1.066,0,0,0,1079.85,6450.11Zm-0.97-1.19h0.22a0.637,0.637,0,0,1,.45.14,0.52,0.52,0,0,1,.15.4,0.506,0.506,0,0,1-.15.4,0.59,0.59,0,0,1-.42.14h-0.25v-1.08Z" transform="translate(-1023 -6445)"/>
</svg>
