<svg xmlns="http://www.w3.org/2000/svg" width="109" height="50" viewBox="0 0 109 50">
  <defs>
    <style>
      .cls-1 {
        fill: #505871;
        fill-rule: evenodd;
      }
    </style>
  </defs>
  <path id="Logo_02" data-name="Logo 02" class="cls-1" d="M666.687,6481.73a0.4,0.4,0,0,0,.006.57,0.389,0.389,0,0,0,.562.01A0.406,0.406,0,0,0,666.687,6481.73Zm43.619,0.57a0.39,0.39,0,1,0-.563.01A0.39,0.39,0,0,0,710.306,6482.3Zm-21.807,2.21a24.409,24.409,0,0,0,9.373-5.66,10.714,10.714,0,0,0,3.452-7.39v-13.34H675.675v13.34a10.709,10.709,0,0,0,3.452,7.39A24.413,24.413,0,0,0,688.5,6484.51Zm-12.2-25.76H700.7v12.71c0,6-7.109,10.69-12.2,12.39-5.085-1.7-12.2-6.39-12.2-12.39v-12.71Zm12.134,26.19,0.062,0.01,0.063-.01a24.87,24.87,0,0,0,9.608-5.8,11.082,11.082,0,0,0,3.572-7.68v-13.77H675.257v13.77a11.082,11.082,0,0,0,3.572,7.68A24.87,24.87,0,0,0,688.437,6484.94Zm-12.762-26.82h25.649v13.34a10.714,10.714,0,0,1-3.452,7.39,24.409,24.409,0,0,1-9.373,5.66,24.413,24.413,0,0,1-9.372-5.66,10.709,10.709,0,0,1-3.452-7.39v-13.34Zm12.824,25.73c5.088-1.7,12.2-6.39,12.2-12.39v-12.71H676.3v12.71C676.3,6477.46,683.414,6482.15,688.5,6483.85Zm-7.013-16.99c1.336-1.67,3.48-.9,4.6.61a8.339,8.339,0,0,1,1.48,3.7h0.519a0.208,0.208,0,0,1,0-.05,8.8,8.8,0,0,0-1.415-3.72,3.055,3.055,0,0,1,.237-3.47c0.115-.16.244-0.32,0.375-0.48a3.727,3.727,0,0,0,.721-1.2,0.512,0.512,0,0,1,1,0,3.675,3.675,0,0,0,.721,1.2c0.131,0.16.26,0.32,0.374,0.48a3.053,3.053,0,0,1,.238,3.47,8.828,8.828,0,0,0-1.415,3.72,0.208,0.208,0,0,1,0,.05h0.519a8.3,8.3,0,0,1,1.48-3.7c1.122-1.51,3.266-2.28,4.6-.61a2.58,2.58,0,0,1-1.526,4.23,0.253,0.253,0,0,1-.268-0.11,0.267,0.267,0,0,1,.009-0.3,1.751,1.751,0,0,0,.314-0.81c0.2-1.63-1.552-1.53-2.453-.8a3.131,3.131,0,0,0-1.087,2.1h0.44a0.654,0.654,0,0,1,.642.65,0.647,0.647,0,0,1-.642.65h-0.183a1.894,1.894,0,0,0,.644.67,1.362,1.362,0,0,0,1.732-.15,0.23,0.23,0,0,1,.237-0.05,0.24,0.24,0,0,1,.178.17,1.8,1.8,0,0,1-2.758,2.01,3.316,3.316,0,0,1-1.382-2.65H688.9a4.291,4.291,0,0,0,.967,2.54c0.967,1.09-.169,1.84-1.133,2.32a0.476,0.476,0,0,1-.23.06,0.484,0.484,0,0,1-.229-0.06c-0.964-.48-2.1-1.23-1.131-2.32a4.294,4.294,0,0,0,.964-2.54H687.59a3.324,3.324,0,0,1-1.379,2.65,1.8,1.8,0,0,1-2.761-2.01,0.24,0.24,0,0,1,.177-0.17,0.231,0.231,0,0,1,.238.05,1.364,1.364,0,0,0,1.734.15,1.914,1.914,0,0,0,.642-0.67h-0.183a0.647,0.647,0,0,1-.642-0.65,0.654,0.654,0,0,1,.642-0.65h0.44a3.143,3.143,0,0,0-1.087-2.1c-0.9-.73-2.652-0.83-2.453.8a1.751,1.751,0,0,0,.314.81,0.261,0.261,0,0,1,.009.3,0.254,0.254,0,0,1-.268.11A2.58,2.58,0,0,1,681.486,6466.86Zm30.885-8.96a1.076,1.076,0,0,0-1.06.93c-0.568,3.98-4.637,8.13-8.483,9.55v2.7h19.188a3.53,3.53,0,0,0,3.509-3.54H712.974a1.1,1.1,0,0,1,1.073-1.28h16.7a3.533,3.533,0,0,0,3.51-3.54H716.3a1.1,1.1,0,0,1,1.07-1.28h22.115a3.531,3.531,0,0,0,3.51-3.54H712.371Zm-38.2,13.18v-2.7c-3.845-1.42-7.914-5.57-8.482-9.55a1.076,1.076,0,0,0-1.06-.93H634a3.533,3.533,0,0,0,3.509,3.54h22.115a1.1,1.1,0,0,1,1.071,1.28H642.737a3.533,3.533,0,0,0,3.509,3.54h16.708a1.1,1.1,0,0,1,1.071,1.28H651.474a3.53,3.53,0,0,0,3.509,3.54H674.17Zm8.8-16.13a0.57,0.57,0,0,0,0,1.14h11.065a0.57,0.57,0,0,0,0-1.14H682.967Zm0.314-.8h10.437a0.52,0.52,0,0,0,.467-0.22l2.3-6.19a0.121,0.121,0,0,0-.033-0.17,0.305,0.305,0,0,0-.234-0.07,1.944,1.944,0,0,0-1.909,1.45,1.058,1.058,0,0,0-1.658.29,0.093,0.093,0,0,0,.12.11,0.757,0.757,0,0,1,.825.26,1.059,1.059,0,0,1,.191,1.15c-0.458,1.15-1.991,1.24-3.02,1.02a1.614,1.614,0,0,1-1.453-1.44,1.561,1.561,0,0,1,.808-1.39,1.137,1.137,0,0,1,1.043.03,0.094,0.094,0,0,0,.088.01,0.119,0.119,0,0,0,.049-0.08c0.038-.65-0.562-1.28-1.8-0.88a2.335,2.335,0,0,0-.967-3.02,0.116,0.116,0,0,0-.082,0,2.335,2.335,0,0,0-.966,3.02c-1.232-.4-1.835.23-1.8,0.88a0.119,0.119,0,0,0,.049.08,0.091,0.091,0,0,0,.087-0.01,1.14,1.14,0,0,1,1.044-.03,1.561,1.561,0,0,1,.808,1.39,1.614,1.614,0,0,1-1.453,1.44c-1.03.22-2.562,0.13-3.02-1.02a1.052,1.052,0,0,1,.191-1.15,0.753,0.753,0,0,1,.822-0.26,0.089,0.089,0,0,0,.1-0.02,0.085,0.085,0,0,0,.025-0.09,1.058,1.058,0,0,0-1.658-.29,1.944,1.944,0,0,0-1.909-1.45,0.309,0.309,0,0,0-.235.07,0.126,0.126,0,0,0-.033.17l2.3,6.19A0.517,0.517,0,0,0,683.281,6454.15Zm1.63,35.22a0.473,0.473,0,0,0-.538.53l-0.208,1.7a0.474,0.474,0,0,0,.394.64,0.5,0.5,0,0,0,.546-0.52l0.21-1.71A0.5,0.5,0,0,0,684.911,6489.37Zm-4.023-.77-0.308-.09-0.374,1.4,0.3,0.08a0.414,0.414,0,0,0,.571-0.36l0.117-.43A0.414,0.414,0,0,0,680.888,6488.6Zm18.789-4.02a26.328,26.328,0,0,1-22.353,0,26.551,26.551,0,0,1-9.083-7.03l-6.03,5.11a34.488,34.488,0,0,0,11.779,9.11,34.154,34.154,0,0,0,40.794-9.11l-6.026-5.11A26.572,26.572,0,0,1,699.677,6484.58Zm-32.422-2.27a0.389,0.389,0,0,1-.562-0.01,0.39,0.39,0,1,1,.552-0.55A0.4,0.4,0,0,1,667.255,6482.31Zm3.685,1.98-0.276.35a0.648,0.648,0,0,1-.88.22,0.545,0.545,0,0,1,.006.43l-0.213.64a0.331,0.331,0,0,0,.049.41l-0.117.15a0.837,0.837,0,0,1-.32-0.18c-0.24-.19-0.126-0.38-0.044-0.65l0.2-.64a0.408,0.408,0,0,0-.163-0.56c-0.192.24-.5,0.64-0.7,0.89l0.079,0.25-0.09.11c-0.221-.18-0.5-0.41-0.729-0.58l0.09-.12,0.26,0.02c0.59-.75,1.2-1.51,1.786-2.26l-0.066-.22,0.09-.11,0.779,0.62A0.81,0.81,0,0,1,670.94,6484.29Zm3.329,2.12-0.213-.13,0.125-.48-0.571-.35c-0.218.37-.436,0.75-0.658,1.12l0.4,0.24,0.248-.17,0.126,0.08-0.421.72-0.128-.08,0.024-.29-0.407-.24c-0.183.31-.366,0.62-0.551,0.94a0.137,0.137,0,0,1-.164.08l-0.011.02c0.238,0.14.475,0.28,0.716,0.43l0.382-.33,0.186,0.11-0.394.67c-0.524-.31-1.054-0.63-1.584-0.94l0.071-.13,0.268-.01c0.491-.84.983-1.67,1.472-2.51l-0.1-.21,0.066-.11c0.513,0.31.986,0.59,1.5,0.9Zm3.624,1.82-0.216-.09,0.065-.59-0.327-.14c-0.366.87-.73,1.74-1.093,2.6l0.137,0.23-0.066.15-0.868-.37,0.065-.15,0.257-.06c0.366-.87.732-1.73,1.1-2.6l-0.336-.14-0.366.46-0.215-.1,0.357-.8,1.833,0.79Zm3.793,1.1-0.118.44a0.67,0.67,0,0,1-.723.55,0.506,0.506,0,0,1,.172.38l0.057,0.68a0.333,0.333,0,0,0,.208.36l-0.05.18a0.894,0.894,0,0,1-.363-0.03c-0.3-.08-0.267-0.3-0.3-0.58l-0.068-.68a0.4,0.4,0,0,0-.371-0.44c-0.08.3-.211,0.78-0.293,1.09l0.17,0.2-0.036.13c-0.276-.07-0.625-0.17-0.9-0.24l0.035-.14,0.246-.08c0.251-.93.5-1.87,0.754-2.8l-0.142-.17,0.038-.14,0.959,0.26A0.808,0.808,0,0,1,681.686,6489.33Zm3.921,2.45a0.983,0.983,0,0,1-1.947-.24l0.208-1.71a0.983,0.983,0,0,1,1.947.25Zm3.463,0.99-1.057.01,0-.14,0.213-.15-0.05-2.88-0.188-.14,0-.15,1.027-.01a0.83,0.83,0,0,1,1,.87l0.028,1.66A0.88,0.88,0,0,1,689.07,6492.77Zm3.5-.25-0.022-.14,0.194-.18c-0.148-.96-0.3-1.92-0.446-2.87l-0.2-.1-0.019-.12c0.589-.1,1.13-0.18,1.72-0.28l0.117,0.77-0.24.04-0.21-.46-0.656.1c0.066,0.43.132,0.86,0.2,1.28l0.464-.07,0.082-.29,0.144-.02c0.039,0.24.093,0.58,0.129,0.82l-0.145.03-0.166-.24-0.465.07c0.058,0.36.112,0.72,0.17,1.08a0.141,0.141,0,0,1-.08.17l0.006,0.02c0.276-.04.546-0.09,0.822-0.13l0.09-.5,0.213-.03,0.118,0.77C693.781,6492.33,693.178,6492.43,692.569,6492.52Zm5.019-1.01a0.758,0.758,0,0,1-1.054-.48l-0.077-.26,0.53-.16,0.079,0.27a0.336,0.336,0,0,0,.451.3,0.36,0.36,0,0,0,.238-0.51l-0.118-.4c-0.18-.62-1.294-0.02-1.537-0.84l-0.118-.4a0.7,0.7,0,0,1,.541-0.91,0.712,0.712,0,0,1,.6.06l0.019-.01-0.016-.19,0.319-.09c0.088,0.29.175,0.59,0.262,0.88l-0.486.15-0.068-.24a0.332,0.332,0,0,0-.456-0.26,0.325,0.325,0,0,0-.224.46l0.115,0.4c0.169,0.58,1.291-.04,1.548.84l0.118,0.4A0.792,0.792,0,0,1,697.588,6491.51Zm3.146-1.17-0.057-.13,0.144-.22c-0.377-.89-0.754-1.77-1.133-2.66l-0.221-.04-0.055-.14,0.795-.34,0.055,0.13-0.121.19c0.38,0.89.757,1.77,1.134,2.66l0.256,0.05,0.058,0.13C701.332,6490.08,700.993,6490.23,700.734,6490.34Zm4.5-2.3-0.171-.19a0.7,0.7,0,0,1-.361.55,0.875,0.875,0,0,1-1.314-.29c-0.281-.49-0.565-0.98-0.843-1.46a0.9,0.9,0,0,1,.365-1.28,0.823,0.823,0,0,1,.609-0.12h0.014l-0.06-.18,0.292-.17,0.481,0.83-0.44.25-0.131-.22a0.4,0.4,0,0,0-.6-0.11,0.482,0.482,0,0,0-.087.74c0.281,0.48.565,0.97,0.847,1.46a0.47,0.47,0,0,0,.7.27,0.445,0.445,0,0,0,.126-0.69l-0.189-.32h-0.333l-0.071-.13,0.691-.4c0.251,0.43.5,0.86,0.754,1.3Zm4.52-6.29a0.39,0.39,0,1,1,.552.55,0.39,0.39,0,0,1-.563.01A0.4,0.4,0,0,1,709.754,6481.75Zm-0.977,3.76a0.213,0.213,0,0,1-.271,0l-2.329-1.67-0.008.01,0.352,0.35,1.324,1.69,0.241-.03,0.1,0.12c-0.191.15-.412,0.33-0.6,0.48l-0.093-.12,0.082-.23c-0.6-.76-1.2-1.52-1.792-2.28l-0.224.02-0.09-.12c0.186-.15.273-0.21,0.453-0.36,0.17-.13.213-0.14,0.369-0.03l1.327,0.91,0.768,0.62,0.008-.01c-0.156-.19-0.375-0.44-0.53-0.64l-0.983-1.25-0.227.01-0.1-.12c0.191-.15.376-0.3,0.565-0.45l0.1,0.12-0.068.22c0.656,0.83,1.306,1.66,1.958,2.49Zm-19.761,4.1h-0.328l0.046,2.67a0.126,0.126,0,0,1-.1.15l0.006,0.03,0.429-.01a0.487,0.487,0,0,0,.467-0.6l-0.03-1.66A0.484,0.484,0,0,0,689.016,6489.61Zm-18.767-6.51c-0.334.42-.563,0.71-0.893,1.13l0.245,0.2a0.413,0.413,0,0,0,.664-0.11l0.276-.35a0.412,0.412,0,0,0-.047-0.67Zm-3.256-5.17,1.429-1.16a22.711,22.711,0,0,0,3.028,1.4,0.1,0.1,0,0,0,.1-0.03,0.09,0.09,0,0,0,0-.11,24.386,24.386,0,0,1-3.793-4.76,0.079,0.079,0,0,0-.068-0.03,0.1,0.1,0,0,0-.074.04,35.4,35.4,0,0,0-2.294,3.48,41.266,41.266,0,0,1-4.208.54,0.075,0.075,0,0,0-.069.05,0.089,0.089,0,0,0,.009.09,32.584,32.584,0,0,0,2.389,3.39Zm44.684-1.17a35.4,35.4,0,0,0-2.294-3.48,0.1,0.1,0,0,0-.074-0.04,0.081,0.081,0,0,0-.068.03,24.839,24.839,0,0,1-3.785,4.76,0.069,0.069,0,0,0,0,.1,0.1,0.1,0,0,0,.1.04,23.881,23.881,0,0,0,3.02-1.4l1.432,1.17,3.55,2.89a32.584,32.584,0,0,0,2.389-3.39,0.089,0.089,0,0,0,.008-0.09,0.074,0.074,0,0,0-.068-0.05A41.266,41.266,0,0,1,711.677,6476.76Z" transform="translate(-634 -6445)"/>
</svg>
