<svg version="1.2" xmlns="http://www.w3.org/2000/svg" viewBox="0 0 79 52" width="79" height="52">
	<title>Logo 06</title>
	<style>
		.s0 { fill: #9fa6b2 } 
	</style>
	<path id="Logo 06" class="s0" d="m39.6 4.3c3.7 0 6.6 2.9 6.6 6.5c0 3.5-2.9 6.4-6.6 6.4c-3.6 0-6.5-2.9-6.5-6.4c0-3.6 2.9-6.5 6.5-6.5zm0 1.2c3 0 5.4 2.4 5.4 5.3c0 2.9-2.4 5.2-5.4 5.2c-2.9 0-5.3-2.3-5.3-5.2c0-2.9 2.4-5.3 5.3-5.3zm0 1.1c2.4 0 4.3 1.8 4.3 4.2c0 2.3-1.9 4.2-4.3 4.2c-2.3 0-4.2-1.9-4.2-4.2c0-2.4 1.9-4.2 4.2-4.2zm0 0.8c1.2 0 2.2 0.7 2.2 1.5c0 0.9-1 1.6-2.2 1.6c-1.1 0-2.1-0.7-2.1-1.6c0-0.8 1-1.5 2.1-1.5zm7.2-3.1h3.6c1 0 1.8 0.8 1.8 1.7v1.4h-2.2c-1 0-1.8 0.8-1.8 1.8v4.9c0 1 0.8 1.8 1.8 1.8h2.2v1.3c0 1-0.8 1.8-1.8 1.8h-10.8h-10.7c-1 0-1.8-0.8-1.8-1.8v-1.3h2.2c1 0 1.8-0.8 1.8-1.8v-4.9c0-1-0.8-1.8-1.8-1.8h-2.2v-1.4c0-0.9 0.8-1.7 1.8-1.7h3.6l2.5-2.7q0.5-0.6 1.4-0.6h3.2h3.3q0.9 0 1.4 0.6l2.5 2.7zm-19.7 4.3v6.1h2.2c0.3 0 0.6-0.3 0.6-0.6v-4.9c0-0.3-0.3-0.6-0.6-0.6h-2.2zm25.1 0h-2.2c-0.3 0-0.6 0.3-0.6 0.6v4.9c0 0.3 0.3 0.6 0.6 0.6h2.2zm-12.6 31.8c4.3 0 20 0 23.4 0.1c6.1 0 7.5 0.1 7.5 0.2c0 0.1-1.4 0.2-7.5 0.3c-3.4 0-19.1 0-23.4 0c-4.2 0-19.9 0-23.3 0c-6.1-0.1-7.5-0.2-7.5-0.3c0-0.1 1.4-0.2 7.5-0.2c3.4-0.1 19.1-0.1 23.3-0.1zm0-17.6c4.3 0 20 0.1 23.4 0.1c6.1 0 7.5 0.1 7.5 0.3c0 0.1-1.4 0.2-7.5 0.2c-3.4 0.1-19.1 0.1-23.4 0.1c-4.2 0-19.9 0-23.3-0.1c-6.1 0-7.5-0.1-7.5-0.2c0-0.2 1.4-0.3 7.5-0.3c3.4 0 19.1-0.1 23.3-0.1zm21.6 24.8h3.1v0.2h-3.1v-0.2zm-46.2 0h3.1v0.2h-3.1zm-13-20.4q0-0.2 0.2-0.3h3.1c1.3 0 1.9 0.7 1.9 1.9v3.2c0 1.2-0.6 1.9-1.9 1.9h-1.5v3.2q0 0.2-0.3 0.2h-1.3q-0.2 0-0.2-0.2zm2.9 5c0.4 0 0.5-0.2 0.5-0.5v-2.4q0-0.5-0.5-0.6h-1.1v3.5zm8.3-5q0.1-0.2 0.3-0.2h1.3q0.2 0 0.2 0.2v10q0 0.2-0.2 0.2h-1.3q-0.2 0-0.3-0.2v-4.1h-1.6v4.1q0 0.2-0.2 0.2h-1.4q-0.2 0-0.2-0.2v-10q0-0.2 0.2-0.2h1.4q0.2 0 0.2 0.2v4.2h1.6zm4.4 1.6c0-1.2 0.7-1.8 1.9-1.8h1.5c1.2 0 1.9 0.6 1.9 1.8v6.7c0 1.2-0.7 1.9-1.9 1.9h-1.5c-1.2 0-1.9-0.7-1.9-1.9zm3.1 6.8q0.5 0 0.5-0.5v-6q0-0.5-0.5-0.5h-0.8q-0.5 0-0.5 0.5v6q0 0.5 0.5 0.5zm9.2-8.7q0.3 0 0.3 0.2v1.3q0 0.2-0.3 0.2h-1.5v8.5q0 0.2-0.2 0.2h-1.4q-0.2 0-0.2-0.2v-8.5h-1.5q-0.2 0-0.2-0.2v-1.3q0-0.2 0.2-0.2zm2.3 1.9c0-1.2 0.7-1.9 1.9-1.9h1.5c1.2 0 1.9 0.7 1.9 1.9v6.6c0 1.3-0.7 1.9-1.9 1.9h-1.5c-1.2 0-1.9-0.6-1.9-1.9zm3 6.9q0.6 0 0.6-0.5v-6q0-0.5-0.6-0.6h-0.7q-0.5 0.1-0.5 0.6v6q0 0.5 0.5 0.5zm4.8-6.9c0-1.2 0.7-1.8 1.9-1.8h1.7c1.3 0 1.9 0.6 1.9 1.8v1.4q0 0.2-0.2 0.2h-1.3q-0.2 0-0.2-0.2v-1q0-0.5-0.5-0.5h-1q-0.5 0-0.5 0.5v5.9q0 0.6 0.5 0.6h1q0.5 0 0.5-0.6v-1.7h-0.7q-0.2 0-0.2-0.2v-1.3q0-0.2 0.2-0.2h2.2q0.2 0 0.2 0.2v3.6c0 1.2-0.6 1.9-1.9 1.9h-1.7c-1.2 0-1.9-0.7-1.9-1.9zm13.5 3.2q0 1.3-0.9 1.7l0.9 3.4q0 0.2-0.2 0.2h-1.4q-0.2 0-0.2-0.2l-0.9-3.3h-0.9v3.3q0 0.2-0.2 0.2h-1.3q-0.3 0-0.3-0.2v-10q0-0.2 0.3-0.2h3.2c1.3 0 1.9 0.7 1.9 1.9zm-2.3 0.2q0.5-0.1 0.6-0.6v-2.4q-0.1-0.5-0.6-0.5h-1.3v3.5zm9.5 5.2q-0.2-0.1-0.2-0.2l-0.4-1.9h-2.3l-0.4 1.9q0 0.1-0.2 0.2h-1.4q-0.2-0.1-0.2-0.3l2.2-10q0.1-0.2 0.2-0.1h1.9q0.1-0.1 0.2 0.1l2.2 10q0 0.2-0.2 0.3zm-1.8-8.2l-0.8 4.6h1.7zm5.8-2.1q0-0.2 0.2-0.2h3.1c1.3 0 1.9 0.6 1.9 1.9v3.1c0 1.2-0.6 1.9-1.9 1.9h-1.5v3.3q0 0.2-0.2 0.2h-1.4q-0.2 0-0.2-0.2zm2.9 5c0.4 0 0.6-0.2 0.6-0.5v-2.5q0-0.5-0.6-0.5h-1.1v3.5zm8.4-5q0-0.2 0.2-0.2h1.3q0.3 0 0.3 0.2v10q0 0.2-0.3 0.2h-1.3q-0.2 0-0.2-0.2v-4.2h-1.7v4.2q0 0.2-0.2 0.2h-1.4q-0.2 0-0.2-0.2v-10q0-0.2 0.2-0.2h1.4q0.2 0 0.2 0.2v4.1h1.7zm-53.2 19.4q-0.2 0-0.3-0.1c0.2-0.1 0.3-0.3 0.3-0.5c0-0.2-0.1-0.4-0.4-0.4c-0.4 0-0.6 0.2-0.6 0.6c0 0.8 1.3 0.9 1.3 2.1c0 1-0.8 1.5-1.6 1.5c-0.6 0-1.2-0.3-1.2-1c0-0.6 0.4-1 0.8-1c0.2 0 0.5 0.1 0.5 0.4c-0.3 0-0.6 0.2-0.6 0.6c0 0.2 0.2 0.5 0.5 0.5c0.4 0 0.7-0.3 0.7-0.7c0-1-1.2-1.4-1.2-2.2c0-0.6 0.6-1 1.3-1c0.3 0 1 0 1 0.6c0 0.4-0.2 0.6-0.5 0.6zm2.9 1.1q0 0 0 0c0.3 0 0.7-0.2 0.9-0.4l0.1 0.2c-0.3 0.2-0.6 0.4-1.1 0.5c-0.1 1-0.6 1.7-1.3 1.7c-0.6 0-1-0.3-1-0.9c0-0.7 0.4-2.1 1.6-2.1q0.8 0 0.8 1zm-0.5 0.3c-0.2-0.1-0.2-0.2-0.2-0.3q0-0.2 0.2-0.3c0-0.2-0.1-0.3-0.2-0.3c-0.4 0-0.8 1-0.8 1.6c0 0.4 0.1 0.5 0.3 0.5c0.3 0 0.6-0.6 0.7-1.2zm0.2 3.1l1-4.5h0.8l-0.1 0.4c0.2-0.1 0.4-0.2 0.7-0.2c0.4 0 0.7 0.2 0.7 0.9c0 0.7-0.3 2-1.4 2c-0.3 0-0.4-0.1-0.5-0.2l-0.3 1.4m0.6-1.7c-0.1 0-0.2-0.1-0.2-0.1l0.3-1.6c0.1-0.2 0.3-0.3 0.4-0.3c0.1 0 0.3 0 0.3 0.4c0 0.6-0.2 1.6-0.8 1.6zm3.2-1.9c-0.2 0-0.4 0.3-0.4 0.5l-0.4 1.8h-0.9l0.9-3.8l0.8-0.1l-0.3 1.4c0.3-0.3 0.5-0.3 0.7-0.3c0.4 0 0.6 0.2 0.6 0.6c0 0.5-0.3 1.2-0.3 1.5c0 0.1 0.1 0.2 0.3 0.2c0.2 0 0.3-0.2 0.5-0.5h0.2c-0.3 1-0.8 1.1-1.1 1.1c-0.5 0-0.6-0.3-0.6-0.7c0-0.4 0.2-1.1 0.2-1.4q0-0.3-0.2-0.3zm2.7-0.5l-0.4 1.9q-0.1 0.1-0.1 0.2q0 0.2 0.3 0.2c0.2 0 0.4-0.2 0.5-0.5h0.2c-0.3 1-0.9 1.1-1.2 1.1c-0.3 0-0.6-0.2-0.6-0.7q0-0.2 0.1-0.4l0.4-1.8zm-0.3-1.2c0.2 0 0.5 0.2 0.5 0.4c0 0.3-0.3 0.5-0.5 0.5c-0.3 0-0.5-0.2-0.5-0.5c0-0.2 0.2-0.4 0.5-0.4zm3.3 1.2l-0.4 1.9q0 0.1 0 0.2q0 0.2 0.2 0.2q0.1 0 0.2 0c-0.2 0.4-0.3 0.6-0.6 0.6c-0.3 0-0.5-0.2-0.6-0.5c-0.1 0.2-0.4 0.5-0.8 0.5c-0.4 0-0.8-0.3-0.8-0.9c0-0.8 0.5-2 1.5-2c0.3 0 0.4 0.1 0.4 0.3l0.1-0.3zm-2 1.9c0 0.4 0.2 0.4 0.3 0.4c0.2 0 0.4-0.1 0.5-0.5l0.3-1.3c0 0-0.1-0.2-0.3-0.2c-0.5 0-0.8 1-0.8 1.6zm7.1-1.4c0 0.3-0.4 0.7-0.9 0.8c-0.4 1.5-1.2 1.6-1.8 1.6c-0.8 0-1.2-0.6-1.2-1.2c0-0.5 0.4-1.1 1.1-1.2c-0.4-0.2-0.6-0.6-0.6-0.9c0-0.5 0.5-1 1.3-1c0.5 0 1.1 0.2 1.1 0.7c0 0.3-0.1 0.6-0.4 0.6c-0.1 0-0.3-0.1-0.4-0.2c0.2 0 0.3-0.3 0.3-0.5c0-0.1 0-0.4-0.4-0.4c-0.4 0-0.7 0.3-0.7 0.7c0 0.3 0.2 0.7 0.8 1c-0.8 0.3-1 0.7-1 1.1c0 0.4 0.3 0.8 0.6 0.8c0.4 0 0.9-0.3 1.1-1.1q-0.2 0-0.4 0q-0.4 0-0.6 0.2c0.1-0.5 0.5-0.8 1.1-0.8c0.2 0 0.3 0 0.4 0c0.2 0 0.5 0 0.6-0.2zm3.6-0.2h0.9l0.4-1.7h0.8l-0.9 4.2h-0.9l0.5-2.1h-0.8l-0.5 2.1h-0.8l0.8-3.8c-0.5 0.2-0.8 0.6-0.8 1.2c0 0.3 0.1 0.4 0.1 0.4c-0.4 0-0.6-0.1-0.6-0.6c0-0.7 1-1.4 2-1.4q0.1 0 0.2 0zm4.1 0.6q0.1 0 0.1 0c0.3 0 0.6-0.2 0.9-0.4v0.2c-0.2 0.2-0.6 0.4-1 0.5c-0.1 1-0.6 1.7-1.4 1.7c-0.5 0-0.9-0.3-0.9-0.9c0-0.7 0.4-2.1 1.6-2.1q0.7 0 0.7 1zm-0.5 0.3c-0.1-0.1-0.1-0.2-0.1-0.3q0-0.2 0.2-0.3c0-0.2-0.1-0.3-0.3-0.3c-0.4 0-0.7 1-0.7 1.6c0 0.4 0.1 0.5 0.3 0.5c0.3 0 0.5-0.6 0.6-1.2zm2.3-2.4l-0.7 3.1q0 0.1 0 0.2q0 0.2 0.3 0.2c0.2 0 0.4-0.2 0.5-0.5h0.2c-0.3 1-0.9 1.1-1.2 1.1c-0.3 0-0.6-0.2-0.6-0.7q0-0.2 0-0.4l0.6-2.8zm3.1 0l-0.6 3q-0.1 0.2-0.1 0.2q0 0.3 0.3 0.2c0.2 0 0.4-0.2 0.4-0.5h0.3c-0.3 1-0.9 1.1-1.2 1.1c-0.3 0-0.5-0.2-0.5-0.5c-0.2 0.2-0.5 0.5-0.9 0.5c-0.4 0-0.8-0.2-0.8-0.9c0-0.8 0.5-2 1.5-2c0.4 0 0.5 0.1 0.5 0.3l0.3-1.3zm-1.5 3l0.3-1.4c0 0-0.1-0.2-0.3-0.2c-0.4 0-0.8 1.1-0.8 1.6c0 0.4 0.2 0.5 0.3 0.5c0.2 0 0.4-0.2 0.5-0.5zm2.7 0.6c0.4 0 0.7-0.3 1-0.6h0.2c-0.3 0.5-0.8 1-1.6 1c-0.5 0-0.9-0.2-0.9-0.9c0-0.6 0.4-2 1.6-2c0.5 0 0.6 0.3 0.6 0.5c0 0.7-0.6 1.2-1.3 1.3q0 0.1 0 0.2c0 0.4 0.1 0.5 0.4 0.5zm0.3-2.2c-0.3 0-0.6 0.6-0.7 1.2c0.5-0.1 0.9-0.5 0.9-1q0-0.2-0.2-0.2zm2.2 0.2c-0.2 0-0.4 0.3-0.5 0.6l-0.4 1.8h-0.8l0.6-2.9h0.8v0.3c0.2-0.2 0.5-0.3 0.6-0.3c0.4 0 0.7 0.2 0.7 0.7c0 0.4-0.3 1.1-0.3 1.4c0 0.2 0.1 0.3 0.2 0.3q0.2 0 0.2 0c0 0.4-0.3 0.5-0.6 0.5c-0.5 0-0.6-0.3-0.6-0.6c0-0.4 0.3-1.1 0.3-1.5q0-0.2-0.2-0.3z" />
</svg>