<svg version="1.2" xmlns="http://www.w3.org/2000/svg" viewBox="0 0 70 53" width="70" height="53">
	<title>Logo 03</title>
	<style>
		.s0 { fill: #9fa6b2 } 
	</style>
	<path id="Logo 03" class="s0" d="m45.1 20.6c0.4 0 0.7 0.3 0.7 0.6v0.7c0 0.3-0.3 0.6-0.7 0.6q0 0.2-0.1 0.3c-0.2 2.2-0.4 5-3.4 5c-2.9 0-3.9-0.1-5.5-3q-0.1-0.1-0.3-0.2q-0.1-0.1-0.3-0.1q-0.2 0-0.3 0.1q-0.2 0.1-0.3 0.2c-1.6 2.9-2.6 3-5.5 3c-3 0-3.2-2.8-3.5-5q0-0.1 0-0.3c-0.4 0-0.7-0.3-0.7-0.6v-0.7c0-0.3 0.3-0.6 0.7-0.6h9.6h9.6zm-1.4 2.6c-0.1 1.5-0.4 3.2-2.1 3.2c-0.9 0-2 0.2-2.8-0.3c-1.1-0.7-1.6-1.7-1.9-2.8q0-0.3 0.1-0.5q0.2-0.3 0.6-0.3h5.5q0.3 0 0.5 0.2q0.1 0.3 0.1 0.5zm-16.4 0q-0.1-0.2 0.1-0.5q0.2-0.2 0.5-0.2h5.5q0.3 0 0.5 0.3q0.2 0.2 0.2 0.5c-0.3 1.1-0.9 2.1-1.9 2.8c-0.8 0.5-1.9 0.3-2.8 0.3c-1.7 0-2-1.7-2.1-3.2zm-0.3 7q0.2-0.1 0.4 0c0.8 0.5 1.7 0.4 2.4 0.1c1.3-0.6 1.9-1.4 3.6-1.3c0.8 0.1 1.5 0.4 2.1 1.1c0.6-0.7 1.3-1 2-1.1c1.8-0.1 2.4 0.7 3.7 1.3c0.7 0.3 1.6 0.4 2.4-0.1q0.2-0.1 0.4 0q0.2 0.1 0.1 0.4c-0.5 2.9-4.2 3.7-6.9 3.2c-0.7-0.1-1.3-0.3-1.7-0.7c-0.4 0.4-1 0.6-1.7 0.7c-2.8 0.5-6.4-0.3-7-3.2q0-0.3 0.2-0.4zm12.6-28.1q0.2-0.1 0.3-0.1c6.3 2.2 9.1 11.9 4.9 16.4q-0.1 0.2-0.3 0.1q-0.2-0.1-0.1-0.3c0.1-2.2-0.3-3.8-1.3-5c-2.2 4.6-11 6-14.4 3.2q-0.1-0.2-0.1-0.3q0.1-0.2 0.2-0.2c1.7-0.4 3.2-2 3.1-3.5c-3.3 0.7-5.2 2.2-5.5 6q-0.1 0.2-0.2 0.3q-0.2 0-0.3-0.1c-2.5-2.4-2.2-6.7 0.1-9.3c3.3-3.8 8.2-1.4 12-3.7c1.2-0.6 1.8-1.7 1.6-3.3q-0.1-0.1 0-0.2zm-35.9 44.4c0 0.4-0.4 0.8-0.9 0.8c-0.4 0-0.8-0.4-0.8-0.8c0-0.5 0.4-0.9 0.8-0.9c0.5 0 0.9 0.4 0.9 0.9zm65.3 0c0 0.4-0.4 0.8-0.9 0.8c-0.4 0-0.8-0.4-0.8-0.8c0-0.5 0.4-0.9 0.8-0.9c0.5 0 0.9 0.4 0.9 0.9zm-57.8-5q0.1-0.2 0.3-0.2h1.3q0.2 0 0.2 0.2v10.3q0 0.2-0.2 0.2h-1.3q-0.2 0-0.3-0.2v-4.3h-1.6v4.3q0 0.2-0.2 0.2h-1.4q-0.2 0-0.2-0.2v-10.3q0-0.2 0.2-0.2h1.4q0.2 0 0.2 0.2v4.3h1.6zm6.1-0.2q0.2 0 0.2 0.2v10.2q0 0.2-0.2 0.2h-1.4q-0.2 0-0.2-0.2v-10.2q0-0.2 0.2-0.2zm2.9 0.2q0-0.2 0.2-0.2h3.1c1.3 0 1.9 0.6 1.9 1.9v3.2c0 1.3-0.6 2-1.9 2h-1.6v3.3q0.1 0.2-0.2 0.2h-1.3q-0.2 0-0.2-0.2zm2.9 5.1c0.4 0 0.5-0.2 0.5-0.5v-2.5q0-0.5-0.5-0.5h-1.2v3.5zm8.2-5.3c1.3 0 1.9 0.7 1.9 1.9v1.4q0 0.2-0.2 0.3h-1.3q-0.2-0.1-0.3-0.3v-1q0.1-0.5-0.5-0.5h-0.6c-0.3 0-0.5 0.2-0.5 0.5v1.8l3.1 1.1q0.3 0.1 0.3 0.5v3.1c0 1.2-0.6 1.9-1.9 1.9h-1.4c-1.2 0-1.9-0.7-1.9-1.9v-1.4q0-0.3 0.2-0.3h1.4q0.2 0 0.2 0.3v1c0 0.3 0.2 0.5 0.5 0.5h0.6q0.5 0 0.5-0.5v-1.8l-3.1-1q-0.3-0.1-0.3-0.5v-3.2c0-1.2 0.7-1.9 1.9-1.9zm9 0q0.2 0 0.2 0.2v1.4q0 0.2-0.2 0.2h-1.5v8.7q0 0.2-0.2 0.2h-1.4q-0.2 0-0.2-0.2v-8.7h-1.5q-0.2 0-0.2-0.2v-1.4q0-0.2 0.2-0.2zm7.7 1.6c0 0.1 0 0.2-0.2 0.2h-3.3v2.6h2.5q0.2 0.1 0.2 0.3v1.3q0 0.2-0.2 0.2h-2.5v2.7h3.3q0.2 0 0.2 0.2v1.4q0 0.2-0.2 0.2h-4.8q-0.2 0-0.2-0.2v-10.3q0-0.2 0.2-0.2h4.8q0.2 0 0.2 0.2zm7.9 3.6q0 1.4-0.9 1.8l0.9 3.5q0 0.2-0.2 0.2h-1.4q-0.2 0-0.2-0.1l-0.9-3.4h-0.9v3.3q0 0.2-0.2 0.2h-1.3q-0.2 0-0.3-0.2v-10.2q0.1-0.2 0.3-0.2h3.2c1.3 0 1.9 0.6 1.9 1.9zm-2.3 0.2q0.5-0.1 0.6-0.6v-2.5q-0.1-0.5-0.6-0.5h-1.3v3.6zm8.4-5.4c1.2 0 1.8 0.7 1.8 1.9v1.5q0.1 0.2-0.2 0.2h-1.3q-0.2 0-0.2-0.2v-1.1q0-0.5-0.6-0.5h-0.6c-0.3 0-0.5 0.2-0.5 0.5v1.9l3.1 1q0.3 0.1 0.3 0.5v3.1c0 1.2-0.6 1.9-1.8 1.9h-1.5c-1.2 0-1.9-0.7-1.9-1.9v-1.4q0-0.2 0.2-0.2h1.4q0.2 0 0.2 0.2v1c0 0.4 0.2 0.5 0.5 0.5h0.6q0.6 0 0.6-0.5v-1.8l-3.1-1q-0.4-0.1-0.4-0.5v-3.2c0-1.2 0.7-1.9 1.9-1.9z" />
</svg>