<svg xmlns="http://www.w3.org/2000/svg" xmlns:xlink="http://www.w3.org/1999/xlink" preserveAspectRatio="xMidYMid" width="17" height="26" viewBox="0 0 17 26">
  <defs>
    <style>
      .cls-1 {
        fill: #72d8e8;
        fill-rule: evenodd;
      }
    </style>
  </defs>
  <path d="M7.065,1.398 L7.065,21.223 L2.393,16.617 C1.839,16.070 0.940,16.070 0.386,16.617 C-0.168,17.163 -0.168,18.049 0.386,18.595 L7.481,25.589 C7.758,25.863 8.121,26.000 8.484,26.000 C8.847,26.000 9.211,25.863 9.488,25.589 L16.582,18.595 C17.137,18.049 17.137,17.164 16.582,16.617 C16.029,16.070 15.130,16.070 14.576,16.617 L9.903,21.224 L9.903,1.398 C9.903,0.626 9.268,-0.000 8.484,-0.000 L8.484,-0.000 C7.701,-0.000 7.065,0.626 7.065,1.398 Z" class="cls-1"/>
</svg>
