<svg xmlns="http://www.w3.org/2000/svg" xmlns:xlink="http://www.w3.org/1999/xlink" preserveAspectRatio="xMidYMid" width="23.82" height="23.938" viewBox="0 0 23.82 23.938">
  <defs>
    <style>
      .cls-1 {
        fill: #68d1db;
        fill-rule: evenodd;
      }
    </style>
  </defs>
  <path d="M18.843,14.826 C18.354,14.316 17.764,14.042 17.139,14.042 C16.518,14.042 15.923,14.310 15.414,14.822 L13.821,16.414 C13.689,16.342 13.558,16.277 13.432,16.211 C13.251,16.121 13.079,16.034 12.933,15.943 C11.441,14.993 10.084,13.754 8.783,12.152 C8.153,11.353 7.729,10.681 7.422,9.999 C7.835,9.620 8.219,9.226 8.592,8.847 C8.733,8.705 8.874,8.558 9.015,8.416 C10.074,7.355 10.074,5.980 9.015,4.919 L7.639,3.539 C7.482,3.382 7.321,3.220 7.170,3.059 C6.867,2.745 6.550,2.422 6.222,2.118 C5.733,1.633 5.148,1.376 4.532,1.376 C3.917,1.376 3.322,1.633 2.818,2.118 L2.808,2.128 L1.094,3.863 C0.448,4.509 0.080,5.298 -0.000,6.213 C-0.122,7.688 0.312,9.064 0.645,9.964 C1.462,12.173 2.682,14.220 4.502,16.414 C6.711,19.057 9.368,21.145 12.404,22.615 C13.563,23.166 15.112,23.819 16.841,23.929 C16.947,23.935 17.058,23.939 17.159,23.939 C18.324,23.939 19.302,23.520 20.068,22.686 C20.073,22.676 20.083,22.671 20.088,22.661 C20.351,22.342 20.653,22.054 20.971,21.746 C21.188,21.539 21.409,21.321 21.626,21.094 C22.126,20.573 22.388,19.967 22.388,19.345 C22.388,18.719 22.120,18.117 21.611,17.611 L18.843,14.826 ZM20.648,20.148 C20.451,20.361 20.250,20.553 20.033,20.765 C19.705,21.079 19.372,21.407 19.060,21.776 C18.550,22.323 17.950,22.580 17.164,22.580 C17.088,22.580 17.007,22.580 16.932,22.575 C15.434,22.479 14.042,21.893 12.999,21.392 C10.145,20.007 7.639,18.041 5.556,15.549 C3.837,13.472 2.687,11.551 1.926,9.488 C1.457,8.229 1.285,7.249 1.361,6.324 C1.411,5.733 1.638,5.242 2.057,4.823 L3.776,3.099 C4.023,2.866 4.285,2.740 4.543,2.740 C4.860,2.740 5.117,2.933 5.279,3.094 L5.294,3.109 C5.602,3.397 5.894,3.695 6.202,4.014 C6.358,4.176 6.519,4.338 6.681,4.505 L8.057,5.885 C8.592,6.420 8.592,6.915 8.057,7.452 C7.911,7.598 7.770,7.745 7.623,7.886 C7.200,8.321 6.797,8.725 6.358,9.119 C6.348,9.129 6.338,9.135 6.333,9.145 C5.899,9.580 5.980,10.004 6.070,10.292 L6.086,10.337 C6.444,11.207 6.948,12.026 7.715,13.001 L7.719,13.007 C9.111,14.725 10.578,16.065 12.197,17.091 C12.404,17.222 12.615,17.328 12.817,17.429 C12.999,17.521 13.170,17.606 13.316,17.698 C13.337,17.708 13.357,17.723 13.377,17.733 C13.548,17.818 13.710,17.859 13.876,17.859 C14.294,17.859 14.557,17.596 14.642,17.510 L16.367,15.782 C16.539,15.610 16.811,15.403 17.128,15.403 C17.441,15.403 17.698,15.600 17.855,15.771 L20.643,18.567 C21.162,19.082 21.162,19.613 20.648,20.148 ZM16.352,7.497 C17.310,8.457 17.930,9.660 18.157,10.984 C18.213,11.318 18.500,11.551 18.828,11.551 C18.868,11.551 18.903,11.545 18.944,11.540 C19.317,11.480 19.564,11.126 19.504,10.752 C19.231,9.149 18.475,7.688 17.320,6.532 C16.165,5.374 14.708,4.615 13.110,4.343 C12.736,4.282 12.389,4.530 12.323,4.899 C12.257,5.268 12.499,5.626 12.873,5.687 C14.194,5.910 15.394,6.537 16.352,7.497 ZM20.229,3.605 C18.324,1.694 15.928,0.450 13.296,0.001 C12.928,-0.065 12.580,0.188 12.515,0.557 C12.454,0.931 12.701,1.280 13.074,1.345 C15.424,1.745 17.567,2.862 19.272,4.565 C20.976,6.274 22.085,8.422 22.484,10.777 C22.539,11.111 22.826,11.343 23.154,11.343 C23.194,11.343 23.230,11.338 23.270,11.333 C23.638,11.277 23.890,10.923 23.825,10.555 C23.376,7.916 22.135,5.516 20.229,3.605 Z" class="cls-1"/>
</svg>
