<svg xmlns="http://www.w3.org/2000/svg" xmlns:xlink="http://www.w3.org/1999/xlink" preserveAspectRatio="xMidYMid" width="21" height="12" viewBox="0 0 21 12">
  <defs>
    <style>
      .cls-1 {
        fill: #fff;
        fill-rule: evenodd;
      }
    </style>
  </defs>
  <path d="M0.274,5.314 C0.274,5.314 0.274,5.314 0.275,5.314 L5.130,0.281 C5.493,-0.096 6.082,-0.095 6.444,0.285 C6.806,0.663 6.804,1.276 6.441,1.653 L3.181,5.031 L20.071,5.031 C20.584,5.031 21.000,5.465 21.000,5.999 C21.000,6.534 20.584,6.967 20.071,6.967 L3.181,6.967 L6.441,10.346 C6.804,10.723 6.806,11.336 6.444,11.714 C6.082,12.093 5.493,12.094 5.130,11.718 L0.275,6.685 C0.274,6.685 0.274,6.684 0.274,6.684 C-0.090,6.306 -0.089,5.691 0.274,5.314 Z" class="cls-1"/>
</svg>
