<svg xmlns="http://www.w3.org/2000/svg" xmlns:xlink="http://www.w3.org/1999/xlink" preserveAspectRatio="xMidYMid" width="21" height="12" viewBox="0 0 21 12">
  <defs>
    <style>
      .cls-1 {
        fill: #fff;
        fill-rule: evenodd;
      }
    </style>
  </defs>
  <path d="M20.726,5.314 C20.726,5.314 20.726,5.314 20.725,5.314 L15.870,0.281 C15.507,-0.096 14.918,-0.095 14.556,0.285 C14.194,0.663 14.196,1.276 14.559,1.653 L17.819,5.031 L0.929,5.031 C0.416,5.031 -0.000,5.465 -0.000,5.999 C-0.000,6.534 0.416,6.967 0.929,6.967 L17.819,6.967 L14.559,10.346 C14.196,10.723 14.194,11.336 14.556,11.714 C14.918,12.093 15.507,12.094 15.870,11.718 L20.725,6.685 C20.726,6.685 20.726,6.684 20.726,6.684 C21.090,6.306 21.089,5.691 20.726,5.314 Z" class="cls-1"/>
</svg>
