<svg version="1.2" xmlns="http://www.w3.org/2000/svg" viewBox="0 0 39 39" width="39" height="39">
	<title>Icon</title>
	<style>
		.s0 { fill: #00bbe6 } 
	</style>
	<path id="Icon" class="s0" d="m34.8 31.3c0 0.9-0.4 1.7-1.1 2.5c-0.3 0.2-0.6 0.6-0.9 0.9l-0.1 0.1c-0.5 0.5-0.9 0.9-1.3 1.4q0 0 0 0q-1.6 1.8-4.1 1.8q-0.2 0-0.5 0c-2.5-0.2-4.8-1.2-6.5-2c-4.5-2.2-8.4-5.4-11.6-9.4c-2.7-3.3-4.5-6.4-5.7-9.7c-0.5-1.4-1.1-3.4-1-5.6q0.2-2 1.6-3.4l2.5-2.6c0.7-0.7 1.5-1.1 2.4-1.1c0.8 0 1.6 0.4 2.3 1.1q0.8 0.7 1.4 1.4q0.3 0.3 0.7 0.7l2.1 2.1c1.4 1.5 1.4 3.4 0 4.9q-0.2 0.2-0.3 0.4q-0.2 0.1-0.4 0.3l-0.1 0.2q-0.8 0.8-1.6 1.5l-0.1 0.2v0.2c0.5 1 1.1 2.1 2.1 3.3c2 2.5 4 4.4 6.2 5.9q0.4 0.2 0.8 0.4l0.2 0.1q0.2 0.1 0.4 0.2l0.2 0.1l2.5-2.6c0.7-0.7 1.5-1.1 2.3-1.1c0.9 0 1.7 0.4 2.4 1.1l4.1 4.3c0.7 0.7 1.1 1.5 1.1 2.4zm-1.5 0q0 0.1 0 0.2q0 0 0 0q0 0.1 0 0.1q0 0.1 0 0.1q0 0.1-0.1 0.1q0 0.1 0 0.1q0 0.1 0 0.1q-0.1 0-0.1 0.1q0 0 0 0.1q-0.1 0-0.1 0.1q0 0 0 0.1q-0.1 0-0.1 0q0 0.1-0.1 0.1q0 0.1 0 0.1q-0.1 0-0.1 0.1q-0.1 0.1-0.1 0.1q-0.4 0.4-0.7 0.7l-0.1 0.2c-0.5 0.4-1 0.9-1.5 1.5c-0.8 0.9-1.8 1.3-3 1.3q-0.2 0-0.4 0c-2-0.1-3.8-0.8-5.3-1.5q-0.3-0.2-0.6-0.3c-4.3-2.2-8.1-5.2-11.2-9c-2.6-3.2-4.3-6.2-5.5-9.3c-0.7-2-0.9-3.5-0.8-5q0.1-1.4 1.1-2.4l2.6-2.7q0.6-0.6 1.3-0.6c0.6 0 1 0.3 1.3 0.6v0.1c0.5 0.4 1 0.9 1.4 1.3q0.1 0.2 0.3 0.4l0.1 0.1q0.1 0.1 0.3 0.3l2 2.1q0.7 0.7 0.7 1.4q0 0.7-0.7 1.4q-0.1 0.1-0.1 0.2h-0.1q-0.2 0.2-0.4 0.4q-0.1 0.2-0.3 0.3q-0.1 0.1-0.2 0.2q-0.3 0.3-0.5 0.6q-0.1 0.1-0.3 0.2q-0.3 0.3-0.6 0.6q0 0 0 0c-0.5 0.6-0.5 1-0.4 1.5l0.1 0.1q0.3 0.7 0.6 1.4q0.2 0.3 0.4 0.6q0.6 0.9 1.3 1.9q0.4 0.5 0.8 1q0.4 0.5 0.8 0.9q0.2 0.2 0.4 0.4q0.4 0.5 0.8 0.9q1.9 1.7 3.8 3q0.5 0.3 0.9 0.5q0.1 0.1 0.2 0.1q0.1 0.1 0.2 0.1q0.2 0.1 0.4 0.2q0 0 0.1 0.1q0 0 0 0q0.3 0.1 0.6 0.1c0.5 0 0.8-0.3 0.9-0.4l2.6-2.6c0.3-0.3 0.8-0.7 1.3-0.7q0.1 0 0.1 0q0.1 0 0.1 0q0 0 0.1 0q0 0 0 0q0 0 0.1 0q0 0 0 0q0 0.1 0.1 0.1q0 0 0 0q0 0 0.1 0q0 0 0 0q0 0 0.1 0q0 0 0 0.1q0 0 0 0q0.1 0 0.1 0q0 0 0 0q0.1 0 0.1 0.1q0 0 0 0q0 0 0.1 0q0 0 0 0q0 0.1 0 0.1q0 0 0 0q0.1 0 0.1 0q0 0 0 0q0 0.1 0 0.1q0.1 0 0.1 0q0 0 0 0q0 0 0 0.1q0 0 0 0q0.1 0 0.1 0q0 0 0 0q0 0 0 0l4.2 4.3q0.5 0.5 0.6 1.1q0 0 0 0.1q0 0 0 0q0 0.1 0 0.2q0 0 0 0zm-2.8-13.1c0.1 0.5-0.2 0.8-0.6 0.9q-0.1 0-0.1 0c-0.4 0-0.7-0.2-0.8-0.6c-0.3-2.1-1.3-4-2.7-5.5c-1.5-1.5-3.3-2.5-5.4-2.8q-0.2-0.1-0.4-0.3q-0.2-0.3-0.1-0.6c0-0.3 0.3-0.6 0.7-0.6q0 0 0.1 0c2.3 0.4 4.4 1.6 6.1 3.3c1.7 1.7 2.8 3.9 3.2 6.2zm6.5-0.3q0.1 0.4-0.1 0.7q-0.2 0.2-0.6 0.3q0 0-0.1 0c-0.4 0-0.7-0.3-0.8-0.7c-0.6-3.6-2.3-6.9-4.8-9.6c-2.6-2.6-5.8-4.3-9.4-4.9c-0.4-0.1-0.7-0.5-0.6-1q0-0.3 0.3-0.5q0.2-0.2 0.5-0.2q0 0 0.1 0c3.9 0.7 7.4 2.6 10.2 5.4c2.8 2.9 4.7 6.6 5.3 10.5z" />
</svg>