<svg version="1.2" xmlns="http://www.w3.org/2000/svg" viewBox="0 0 24 23" width="24" height="23">
	<title>Shape 7</title>
	<style>
		.s0 { fill: #ffffff } 
	</style>
	<path id="Shape 7" class="s0" d="m4.7 14.3q0 0 0.1 0c0.3-0.1 0.8 0 1 0.4c0.8 2.1 2.3 3.6 4.3 4.4q2.5 1 5 0.2c3.4-1 5.7-4.4 5.6-8.1c-0.1-3.8-2.6-7-6-7.9q-3-0.7-5.6 0.8q-2.3 1.4-3.3 3.8c-0.2 0.4-0.6 0.6-1 0.5q0 0 0 0c-0.5-0.2-0.7-0.7-0.5-1.1c1.3-3.2 4.7-6.2 9.3-5.9c4.8 0.4 8.6 4.6 8.7 9.8c0.1 5.1-3.5 9.5-8.3 10.1c-4.7 0.5-8.3-2.4-9.7-5.9c-0.2-0.4 0-0.9 0.4-1.1zm9.9-3.8c-0.3-0.3-0.5-0.5-0.8-0.7q-1.6-1.5-3.3-3.1q-0.4-0.3-0.3-0.9q0.1-0.5 0.6-0.6c0.4-0.1 0.6 0 0.9 0.2q2.3 2.2 4.7 4.4q0.4 0.4 0.9 0.9c0.4 0.3 0.5 1 0.1 1.3q-0.7 0.6-1.3 1.2q-2.2 2.1-4.4 4.1c-0.3 0.2-0.5 0.3-0.8 0.3q-0.5-0.2-0.7-0.7q-0.1-0.5 0.3-0.9q1.4-1.3 2.8-2.6q0.6-0.5 1.2-1.1q-0.1 0-0.2 0q-1.5-0.1-3-0.1q-1.5 0-3 0q-1.6 0.1-3.2 0.1q-1.4 0-2.9-0.1c-0.6 0-1-0.5-0.9-1.1c0.2-0.4 0.4-0.6 0.7-0.6q1.4 0 2.8 0q0.6 0 1.3 0q4 0 8.1 0c0.1 0 0.2 0 0.4 0z" />
</svg>