<svg xmlns="http://www.w3.org/2000/svg" width="31.125" height="25.84" viewBox="0 0 31.125 25.84">
  <defs>
    <style>
      .cls-1 {
        fill: #38e171;
        fill-rule: evenodd;
      }
    </style>
  </defs>
  <path id="Icon" class="cls-1" d="M436.914,3284.45a0.722,0.722,0,0,0,.515-0.22,0.712,0.712,0,0,0,.212-0.51,0.729,0.729,0,0,0-.212-0.51,0.756,0.756,0,0,0-1.03,0,0.729,0.729,0,0,0-.212.51,0.712,0.712,0,0,0,.212.51A0.723,0.723,0,0,0,436.914,3284.45Zm2,0.79a0.729,0.729,0,0,0-.442-0.35,0.756,0.756,0,0,0-.552.07,0.727,0.727,0,0,0-.274.99,7.941,7.941,0,0,1-1.3,9.54l-0.327.33a2.241,2.241,0,0,0-.469-0.66l-6.081-6.07a4.217,4.217,0,0,0,.99-0.74l1.189-1.18a0.731,0.731,0,0,0,0-1.03,0.756,0.756,0,0,0-1.03,0l-1.19,1.19a2.825,2.825,0,0,1-2,.82h-2.376a0.721,0.721,0,0,0-.516.22l-1.82,1.81a1.26,1.26,0,0,1-1.783-1.78l4.155-4.14a8,8,0,0,1,9.489-1.34,0.716,0.716,0,0,0,.554.07,0.755,0.755,0,0,0,.438-0.35,0.717,0.717,0,0,0-.284-0.98,9.557,9.557,0,0,0-5.817-1.1,9.4,9.4,0,0,0-4.9,2.2,9.42,9.42,0,0,0-12.818.47,9.372,9.372,0,0,0,0,13.28l0.228,0.23a0.526,0.526,0,0,0,.1.08,5.829,5.829,0,0,1,3.052,3.8,2.394,2.394,0,0,1,2.362,2.36,2.393,2.393,0,0,1,2.363,2.35,2.4,2.4,0,0,0,3.392,0l0.756-.75,1.05,1.05a2.4,2.4,0,0,0,4.094-1.68,2.362,2.362,0,0,0,1.683-.7,2.409,2.409,0,0,0,.7-1.66,2.328,2.328,0,0,0,1.662-.7,2.393,2.393,0,0,1,2.362-2.35,2.451,2.451,0,0,0,.5-0.74,0.549,0.549,0,0,0,.153-0.12l1.171-1.16A9.4,9.4,0,0,0,438.912,3285.24Zm-11.627,7.41a0.719,0.719,0,0,0,0,1.02l4.875,4.87a0.939,0.939,0,0,1,0,1.33,0.976,0.976,0,0,1-1.332,0l-4.874-4.86a0.738,0.738,0,0,0-1.031,0,0.719,0.719,0,0,0,0,1.02l4.874,4.86a0.937,0.937,0,0,1,0,1.33,0.955,0.955,0,0,1-1.331,0l-2.512-2.5a0.6,0.6,0,0,0-.168-0.12l-0.7-.71a0.757,0.757,0,0,0-1.031,0,0.731,0.731,0,0,0,0,1.03l3.362,3.35a0.939,0.939,0,0,1,0,1.33,0.958,0.958,0,0,1-1.333,0l-1.223-1.22a2.4,2.4,0,0,0-.572-2.47,2.412,2.412,0,0,0-1.663-.7,2.391,2.391,0,0,0-2.363-2.35,6.7,6.7,0,0,1-3.062-4.02,2.406,2.406,0,0,0-3.393,0l-1.04,1.04a2.838,2.838,0,0,0-.263.31,7.946,7.946,0,0,1,5.909-13.27,7.977,7.977,0,0,1,5.106,1.85l-3.615,3.61a2.7,2.7,0,0,0,0,3.83,2.734,2.734,0,0,0,3.845,0l1.606-1.61h2.075a3.854,3.854,0,0,0,.476-0.02l6.619,6.6a0.938,0.938,0,0,1,0,1.33,0.955,0.955,0,0,1-1.331,0l-4.875-4.86a0.708,0.708,0,0,0-.514-0.21h0A0.713,0.713,0,0,0,427.285,3292.65Zm-6.4,11.66a0.937,0.937,0,0,1,0-1.33l1.04-1.04a0.941,0.941,0,1,1,1.332,1.33l-1.04,1.04A0.976,0.976,0,0,1,420.883,3304.31Zm-7.088-8.4,1.041-1.04a0.941,0.941,0,0,1,1.331,1.33l-1.039,1.04a0.977,0.977,0,0,1-1.333,0,0.951,0.951,0,0,1-.276-0.67A0.911,0.911,0,0,1,413.8,3295.91Zm2.363,2.35,1.04-1.03a0.941,0.941,0,0,1,1.332,1.33l-1.04,1.04a0.976,0.976,0,0,1-1.332,0A0.949,0.949,0,0,1,416.158,3298.26Zm2.362,2.36,1.041-1.04a0.975,0.975,0,0,1,1.331,0,0.937,0.937,0,0,1,0,1.33l-1.039,1.04a0.958,0.958,0,0,1-1.333,0A0.939,0.939,0,0,1,418.52,3300.62Zm4.019-3.24a0.753,0.753,0,0,0-.212.52,0.729,0.729,0,0,0,.212.51,0.736,0.736,0,0,0,1.03,0,0.714,0.714,0,0,0,.214-0.51,0.7,0.7,0,0,0-.214-0.51A0.746,0.746,0,0,0,422.539,3297.38Z" transform="translate(-409 -3280.47)"/>
</svg>
