<svg version="1.2" xmlns="http://www.w3.org/2000/svg" viewBox="0 0 45 39" width="45" height="39">
	<title>Icon</title>
	<style>
		.s0 { fill: #00bbe6 } 
	</style>
	<path id="Icon" class="s0" d="m43.1 2.8l-2.5 13l-2.3 15.8c-0.1 0.6-0.5 1.2-1 1.5c-0.6 0.4-1.3 0.4-1.8 0.1l-9.1-3.7l-6.8 7.2q0 0-0.1 0c-0.2 0.3-0.5 0.4-0.9 0.4c-0.6 0-1.1-0.4-1.3-1l-3.3-11.9l-12.4-5.2c-0.4-0.1-0.5-0.5-0.4-0.9c0.1-0.4 0.6-0.5 0.9-0.4l12.3 5.1l17.1-13.1c0.2-0.1 0.5-0.2 0.8-0.1c0.2 0.1 0.4 0.4 0.4 0.6c0 0.3-0.1 0.5-0.3 0.7l-17 13l3.2 11.8l2.3-9.1q0-0.1 0-0.1c0.2-0.4 0.6-0.6 1-0.4l4.5 2l9.6 3.8c0.2 0.1 0.4 0.1 0.6 0c0.2-0.1 0.3-0.3 0.3-0.5l2.3-15.8l2.3-11.8l-17 20.7c-0.3 0.3-0.7 0.3-1 0.1c-0.3-0.3-0.4-0.7-0.1-1l16.8-20.4l-33.9 14.1c-0.3 0.1-0.8-0.1-0.9-0.4c-0.1-0.4 0-0.8 0.4-1l35.4-14.7c0.5-0.2 1.1-0.1 1.5 0.2c0.3 0.4 0.5 0.9 0.4 1.4zm-22.5 30.8l1.5-5.9l2.3 1l0.6 0.3z" />
</svg>