<svg id="Logo" xmlns="http://www.w3.org/2000/svg" width="189.031" height="40.031" viewBox="0 0 189.031 40.031">
  <defs>
    <style>
      .cls-1 {
        fill: #fff;
      }

      .cls-1, .cls-2 {
        fill-rule: evenodd;
      }

      .cls-2 {
        fill: #00bbe6;
      }
    </style>
  </defs>
  <path id="Eco_Recycling" data-name="Eco Recycling" class="cls-1" d="M434.863,70.932a4.694,4.694,0,0,1-1.759,2.522,5.572,5.572,0,0,1-3.187.815h-0.841a1.064,1.064,0,0,1-.892-0.357,1.76,1.76,0,0,1-.281-1.1V67.06h2.091a3.815,3.815,0,0,1,2.307.6,1.939,1.939,0,0,1,.8,1.643c0,0.034.051,0.051,0.153,0.051s0.153-.017.153-0.051q0-.509-0.051-1.376L433.333,66.7l0.026-2.293q0-.076-0.141-0.076c-0.093,0-.14.025-0.14,0.076a1.606,1.606,0,0,1-.79,1.427,4.194,4.194,0,0,1-2.269.509H427.9v-5.2a1.326,1.326,0,0,1,.357-1.019,1.612,1.612,0,0,1,1.122-.331h0.765a4.2,4.2,0,0,1,2.549.713,3.891,3.891,0,0,1,1.376,2.191c0.017,0.051.073,0.068,0.166,0.051s0.14-.042.14-0.076l-0.051-3.388a0.215,0.215,0,0,0-.255-0.229H423.264c-0.051,0-.077.051-0.077,0.153s0.026,0.153.077,0.153a3.658,3.658,0,0,1,1.173.14,0.8,0.8,0,0,1,.509.5,3.593,3.593,0,0,1,.128,1.121V72.919a3.722,3.722,0,0,1-.128,1.133,0.764,0.764,0,0,1-.5.5,3.953,3.953,0,0,1-1.185.127c-0.051,0-.077.051-0.077,0.153s0.026,0.153.077,0.153h11.267a0.4,0.4,0,0,0,.306-0.089,0.447,0.447,0,0,0,.077-0.293,28.441,28.441,0,0,1,.255-3.617,0.111,0.111,0,0,0-.064-0.064,0.268,0.268,0,0,0-.14-0.038c-0.068,0-.1.017-0.1,0.051h0Zm7.392,4.356a5.276,5.276,0,0,0,2.167-.42,7.114,7.114,0,0,0,1.886-1.286,0.086,0.086,0,0,0-.013-0.127,0.181,0.181,0,0,0-.14-0.076H446.13a10.274,10.274,0,0,1-1.262.509,4.065,4.065,0,0,1-1.186.153,3.511,3.511,0,0,1-3.008-1.261,6.57,6.57,0,0,1-.293-6.241,1.97,1.97,0,0,1,1.746-1.083,0.956,0.956,0,0,1,.778.268,3.272,3.272,0,0,1,.446.981,2.294,2.294,0,0,0,.586.981,1.4,1.4,0,0,0,.969.318,1.46,1.46,0,0,0,1.033-.344,1.091,1.091,0,0,0,.369-0.828,1.552,1.552,0,0,0-.981-1.4,4.72,4.72,0,0,0-2.2-.509,6.646,6.646,0,0,0-2.843.65A5.878,5.878,0,0,0,438,67.429a4.614,4.614,0,0,0-.892,2.815,5.419,5.419,0,0,0,.573,2.433,4.614,4.614,0,0,0,1.734,1.885,5.253,5.253,0,0,0,2.842.726h0Zm10.757,0.025a6.018,6.018,0,0,0,2.792-.662,5.259,5.259,0,0,0,2.052-1.847,4.889,4.889,0,0,0,.764-2.713A5.561,5.561,0,0,0,458,67.506a4.967,4.967,0,0,0-1.8-1.949,5.059,5.059,0,0,0-2.753-.739,6.572,6.572,0,0,0-2.677.573,5.183,5.183,0,0,0-2.141,1.732,4.662,4.662,0,0,0-.842,2.815,5.774,5.774,0,0,0,.638,2.687,4.876,4.876,0,0,0,1.822,1.961,5.191,5.191,0,0,0,2.766.726h0Zm0.765-.535a2.282,2.282,0,0,1-1.631-.726,4.988,4.988,0,0,1-1.173-2.038A9.615,9.615,0,0,1,450.54,69q0-3.642,2.039-3.643a2.357,2.357,0,0,1,1.58.65,4.56,4.56,0,0,1,1.2,1.923,9.071,9.071,0,0,1,.458,3.057,6.108,6.108,0,0,1-.522,2.815,1.645,1.645,0,0,1-1.517.981h0Zm29.672-.1a3.535,3.535,0,0,1-2.09-.79,13.912,13.912,0,0,1-2.447-2.522q-1.377-1.732-3.416-4.789a5.65,5.65,0,0,0,2.039-1.821,4.428,4.428,0,0,0,.765-2.535,2.71,2.71,0,0,0-1.275-2.382,6.427,6.427,0,0,0-3.594-.853q-0.612,0-1.109.025c-0.331.017-.608,0.034-0.828,0.051q-0.944.076-1.81,0.076-0.689,0-1.861-.051l-1.351-.025c-0.035,0-.051.051-0.051,0.153s0.016,0.153.051,0.153a3.651,3.651,0,0,1,1.172.14,0.8,0.8,0,0,1,.51.5,3.593,3.593,0,0,1,.128,1.121V72.919a3.389,3.389,0,0,1-.141,1.133,0.8,0.8,0,0,1-.509.5,3.965,3.965,0,0,1-1.186.127c-0.051,0-.076.051-0.076,0.153s0.025,0.153.076,0.153q0.867,0,1.377-.026l1.861-.025,1.937,0.025q0.485,0.026,1.326.026c0.033,0,.051-0.051.051-0.153s-0.018-.153-0.051-0.153a3.96,3.96,0,0,1-1.186-.127,0.764,0.764,0,0,1-.5-0.484,3.711,3.711,0,0,1-.127-1.146v-5.63q0.406,0.026,1.4.026a5.039,5.039,0,0,0,.586-0.026,64.457,64.457,0,0,0,3.7,5.668q1.53,2.025,2.091,2.025h4.537q0.051,0,.051-0.153t-0.051-.153h0Zm-12.312-8.1v-5.4a1.624,1.624,0,0,1,.433-1.274,2.19,2.19,0,0,1,1.453-.382,2.093,2.093,0,0,1,1.759.79,4.914,4.914,0,0,1,.612,2.878,4.332,4.332,0,0,1-.65,2.662,2.545,2.545,0,0,1-2.129.828,9.139,9.139,0,0,1-1.478-.1h0Zm21.439,6.75a8.637,8.637,0,0,1-1.275.56,3.931,3.931,0,0,1-1.173.153,3.6,3.6,0,0,1-2.969-1.274,5.428,5.428,0,0,1-1.033-3.515,4.464,4.464,0,0,1,.026-0.586l6.194-.026q0.281,0,.281-0.79a2.708,2.708,0,0,0-.867-2.216,3.755,3.755,0,0,0-2.447-.713,6.032,6.032,0,0,0-2.97.726,5.324,5.324,0,0,0-2.052,1.974,5.252,5.252,0,0,0-.74,2.726,5.092,5.092,0,0,0,.612,2.458,4.562,4.562,0,0,0,1.785,1.809,5.475,5.475,0,0,0,2.778.675,5.407,5.407,0,0,0,2.116-.407,6.274,6.274,0,0,0,1.912-1.325,0.118,0.118,0,0,0-.013-0.153,0.173,0.173,0,0,0-.114-0.1Zm-4.232-7.9a1.224,1.224,0,0,1,1.173.688A4.632,4.632,0,0,1,489.9,68.1l-3.7.051a4.168,4.168,0,0,1,.739-2,1.705,1.705,0,0,1,1.4-.726h0ZM499.2,75.288a5.276,5.276,0,0,0,2.167-.42,7.1,7.1,0,0,0,1.887-1.286,0.087,0.087,0,0,0-.013-0.127,0.183,0.183,0,0,0-.14-0.076h-0.026a10.211,10.211,0,0,1-1.262.509,4.053,4.053,0,0,1-1.185.153,3.509,3.509,0,0,1-3.008-1.261,6.57,6.57,0,0,1-.293-6.241,1.967,1.967,0,0,1,1.746-1.083,0.953,0.953,0,0,1,.777.268,3.243,3.243,0,0,1,.447.981,2.294,2.294,0,0,0,.586.981,1.4,1.4,0,0,0,.969.318,1.459,1.459,0,0,0,1.032-.344,1.092,1.092,0,0,0,.37-0.828,1.553,1.553,0,0,0-.982-1.4,4.714,4.714,0,0,0-2.2-.509,6.642,6.642,0,0,0-2.842.65,5.881,5.881,0,0,0-2.282,1.859,4.614,4.614,0,0,0-.892,2.815,5.407,5.407,0,0,0,.574,2.433,4.611,4.611,0,0,0,1.733,1.885,5.256,5.256,0,0,0,2.842.726h0ZM515.314,65.15q-0.637,0-.943.025l-1.02.025-1.529-.025c-0.239-.017-0.587-0.025-1.046-0.025q-0.051,0-.051.153t0.051,0.153a1.62,1.62,0,0,1,1.173.395,1.471,1.471,0,0,1,.408,1.108,3.7,3.7,0,0,1-.23,1.2L510.6,72.588l-3.008-6.139a1.2,1.2,0,0,1-.153-0.509,0.393,0.393,0,0,1,.306-0.369,2.98,2.98,0,0,1,.969-0.115c0.051,0,.076-0.051.076-0.153s-0.025-.153-0.076-0.153q-0.688,0-1.1.025l-1.758.025-1.071-.025c-0.255-.017-0.621-0.025-1.1-0.025-0.051,0-.077.051-0.077,0.153s0.026,0.153.077,0.153a1,1,0,0,1,.777.357,7.865,7.865,0,0,1,.88,1.452l4.078,8.228q-0.714,1.911-1.223,2.942a5.3,5.3,0,0,1-.982,1.477,1.5,1.5,0,0,1-1.058.446,1.642,1.642,0,0,1-.917-0.331,3.015,3.015,0,0,0-.472-0.255,1.416,1.416,0,0,0-1.338.229,1.277,1.277,0,0,0,.051,1.821,1.873,1.873,0,0,0,1.172.318A3.588,3.588,0,0,0,507.4,80.7a17.742,17.742,0,0,0,2.587-5.005l2.83-7.514a6.636,6.636,0,0,1,1.083-2.025,1.81,1.81,0,0,1,1.415-.7q0.051,0,.051-0.153t-0.051-.153h0Zm5.608,10.138a5.276,5.276,0,0,0,2.167-.42,7.114,7.114,0,0,0,1.886-1.286,0.087,0.087,0,0,0-.013-0.127,0.181,0.181,0,0,0-.14-0.076H524.8a10.274,10.274,0,0,1-1.262.509,4.065,4.065,0,0,1-1.186.153,3.511,3.511,0,0,1-3.008-1.261,6.57,6.57,0,0,1-.293-6.241,1.969,1.969,0,0,1,1.746-1.083,0.956,0.956,0,0,1,.778.268,3.272,3.272,0,0,1,.446.981,2.294,2.294,0,0,0,.586.981,1.4,1.4,0,0,0,.969.318,1.456,1.456,0,0,0,1.032-.344,1.089,1.089,0,0,0,.37-0.828,1.552,1.552,0,0,0-.981-1.4,4.72,4.72,0,0,0-2.205-.509,6.646,6.646,0,0,0-2.843.65,5.878,5.878,0,0,0-2.281,1.859,4.615,4.615,0,0,0-.893,2.815,5.42,5.42,0,0,0,.574,2.433,4.611,4.611,0,0,0,1.733,1.885,5.259,5.259,0,0,0,2.843.726h0Zm5.761-.306c0.441,0,.79-0.008,1.045-0.026l1.529-.025,1.555,0.025q0.383,0.026,1.02.026,0.1,0,.1-0.153t-0.1-.153a1.28,1.28,0,0,1-1.071-.369,2.435,2.435,0,0,1-.28-1.388V56.846a0.3,0.3,0,0,0-.153-0.217,0.484,0.484,0,0,0-.28-0.115l-0.1.026L526.2,58.3c-0.034.017-.03,0.072,0.013,0.166a0.186,0.186,0,0,0,.14.14h0.026a2.686,2.686,0,0,1,.968-0.28,0.582,0.582,0,0,1,.574.382,3.5,3.5,0,0,1,.166,1.274l-0.026,12.94a2.352,2.352,0,0,1-.293,1.388,1.321,1.321,0,0,1-1.083.369c-0.035,0-.051.051-0.051,0.153s0.016,0.153.051,0.153h0Zm9.38-12.609a1.432,1.432,0,0,0,1.1-.407,1.614,1.614,0,0,0,.382-1.146,1.449,1.449,0,0,0-.382-1.07,1.486,1.486,0,0,0-1.1-.382,1.589,1.589,0,0,0-1.134.395,1.383,1.383,0,0,0-.421,1.057,1.417,1.417,0,0,0,1.555,1.554h0Zm-2.447,12.609q0.663,0,1.045-.026l1.5-.025,1.53,0.025q0.383,0.026,1.045.026c0.051,0,.076-0.051.076-0.153s-0.025-.153-0.076-0.153a1.319,1.319,0,0,1-1.083-.369,2.343,2.343,0,0,1-.294-1.388V68.308q0-1.477.051-2.5v-0.56a0.351,0.351,0,0,0-.127-0.229,0.368,0.368,0,0,0-.255-0.127l-0.076.025-3.85,1.783c-0.051.017-.059,0.072-0.025,0.165a0.171,0.171,0,0,0,.153.14h0.025a2.513,2.513,0,0,1,.943-0.28,0.606,0.606,0,0,1,.587.382,3.191,3.191,0,0,1,.178,1.248v4.56a2.435,2.435,0,0,1-.28,1.388,1.28,1.28,0,0,1-1.071.369c-0.051,0-.076.051-0.076,0.153s0.025,0.153.076,0.153h0Zm18.685-.306a1.319,1.319,0,0,1-1.083-.369,2.344,2.344,0,0,1-.293-1.388V68.028a3.286,3.286,0,0,0-.8-2.305,2.808,2.808,0,0,0-2.18-.879,5.051,5.051,0,0,0-3.875,2.089,4.152,4.152,0,0,0-.305-1.49,0.746,0.746,0,0,0-.536-0.548,1.078,1.078,0,0,0-.178.051L539.5,66.678q-0.051.026-.012,0.153a0.138,0.138,0,0,0,.114.127h0.051a3.285,3.285,0,0,1,1.224-.357,0.632,0.632,0,0,1,.6.369,2.655,2.655,0,0,1,.191,1.159v4.789a2.435,2.435,0,0,1-.28,1.388,1.28,1.28,0,0,1-1.071.369c-0.051,0-.076.051-0.076,0.153s0.025,0.153.076,0.153q0.663,0,1.045-.026l1.5-.025,1.53,0.025q0.383,0.026,1.045.026c0.051,0,.076-0.051.076-0.153s-0.025-.153-0.076-0.153a1.319,1.319,0,0,1-1.083-.369,2.343,2.343,0,0,1-.294-1.388V67.493a3.722,3.722,0,0,1,1.135-.688,3.452,3.452,0,0,1,1.262-.255,1.832,1.832,0,0,1,1.567.662,3.392,3.392,0,0,1,.5,2.038v3.668a2.435,2.435,0,0,1-.28,1.388,1.28,1.28,0,0,1-1.071.369c-0.051,0-.076.051-0.076,0.153s0.025,0.153.076,0.153q0.663,0,1.071-.026l1.479-.025,1.529,0.025q0.383,0.026,1.045.026c0.051,0,.077-0.051.077-0.153s-0.026-.153-0.077-0.153h0Zm6.806-.739q-1.2-.025-1.81-0.1a1.865,1.865,0,0,1-.981-0.382,1.217,1.217,0,0,1-.37-0.993,1.534,1.534,0,0,1,.408-1.1,4.42,4.42,0,0,0,1.453.229,5.6,5.6,0,0,0,2.129-.42,4.273,4.273,0,0,0,1.695-1.21,2.732,2.732,0,0,0,.663-1.809,2.77,2.77,0,0,0-.689-1.834h0.2a5,5,0,0,1,1.887.433c0.067,0.051.136-.064,0.2-0.344a3.456,3.456,0,0,0,.1-0.8q0-.713-0.2-0.713a4.864,4.864,0,0,0-2.753.892,4.632,4.632,0,0,0-2.754-.815,6.212,6.212,0,0,0-2.1.369,4.2,4.2,0,0,0-1.695,1.083,2.452,2.452,0,0,0-.663,1.732,3.113,3.113,0,0,0,.548,1.745,3.641,3.641,0,0,0,1.517,1.286,3.378,3.378,0,0,0-1.784,2.777q0,1.477,1.835,1.834-2.574,1.681-2.574,3.464a2.47,2.47,0,0,0,1.121,2.1,4.835,4.835,0,0,0,2.881.8,6.916,6.916,0,0,0,3.2-.764,6.373,6.373,0,0,0,2.371-2.025,4.616,4.616,0,0,0,.879-2.687,2.356,2.356,0,0,0-.65-1.821,3.014,3.014,0,0,0-1.606-.751,18.066,18.066,0,0,0-2.46-.178h0Zm-1.657-8.482a1.894,1.894,0,0,1,1.084.382,2.8,2.8,0,0,1,.9,1.159,4.478,4.478,0,0,1,.356,1.872,3.056,3.056,0,0,1-.382,1.707,1.118,1.118,0,0,1-.943.56,1.5,1.5,0,0,1-1.058-.484,3.465,3.465,0,0,1-.8-1.337,5.671,5.671,0,0,1-.306-1.923q0-1.935,1.147-1.936h0ZM558.9,81.35a3.228,3.228,0,0,1-2.281-.892,3.277,3.277,0,0,1-.956-2.522,2.359,2.359,0,0,1,.867-2.038c0.186,0.017.416,0.034,0.688,0.051s0.484,0.025.637,0.025a17.584,17.584,0,0,1,2.18.14,2.058,2.058,0,0,1,1.223.611,2.254,2.254,0,0,1,.472,1.592,3.109,3.109,0,0,1-.765,2.216,2.7,2.7,0,0,1-2.065.815h0Z" transform="translate(-374.969 -46.969)"/>
  <path class="cls-2" d="M390.187,68.534a1.064,1.064,0,0,0,.127-0.009,16.99,16.99,0,0,1-1.065-7.342,14.408,14.408,0,0,0,.881,3.374,14.161,14.161,0,0,0,1.925,3.4,4.288,4.288,0,0,0,2.46-4.073c-0.044-3.912-4.624-4.234-3.556-9.911,0,0-5.353,3.147-5.291,8.783S389.719,68.532,390.187,68.534Zm15.466-11.672s-0.374-6.441-5.236-8.974-6.716,1.123-6.92,1.558c-0.013.027-.029,0.069-0.048,0.123a8.093,8.093,0,0,1,4.266.465,8.329,8.329,0,0,1,2.4,1.479,15.138,15.138,0,0,0-6.935-.058,4.461,4.461,0,0,0,2.426,4.167C398.982,57.381,401.247,53.255,405.653,56.862ZM406.662,61a4.031,4.031,0,0,0-4.64.158c-3.06,2.216-.657,6.325-5.756,8.569,0,0,5.588,2.842,10-.35s2.21-6.694,1.939-7.1a1.231,1.231,0,0,0-.081-0.1,12.84,12.84,0,0,1-2.292,3.257,12.332,12.332,0,0,1-2.642,2.069,16.111,16.111,0,0,0,2.169-3.164A16.547,16.547,0,0,0,406.662,61ZM410.9,72.48a3.4,3.4,0,0,0-3.765.142l-9.127,6.967h-5.344L391.327,78.2h4.908a2.963,2.963,0,0,0,3.129-2.787,2.89,2.89,0,0,0-3.129-2.787H394.4c-1.366,0-2.963.127-4.089-.5a7.689,7.689,0,0,0-3.615-.891,7.561,7.561,0,0,0-5.538,2.365L375.7,79.2a2.6,2.6,0,0,0-.014,3.583l2.886,3.009a3.85,3.85,0,0,0,6.077-.628h12.627a5.374,5.374,0,0,0,3.653-1.448l10.064-9.324A1.253,1.253,0,0,0,410.9,72.48Z" transform="translate(-374.969 -46.969)"/>
</svg>
