<svg version="1.2" xmlns="http://www.w3.org/2000/svg" viewBox="0 0 28 27" width="28" height="27">
	<title>Shape 1</title>
	<style>
		.s0 { fill: #ffffff } 
	</style>
	<path id="Shape 1" class="s0" d="m23.8 19.7c0.5 0.5 0.7 1.1 0.7 1.7c0 0.6-0.2 1.2-0.7 1.7q-0.4 0.4-0.7 0.7q-0.5 0.5-0.9 0.9q0 0 0 0q-1.2 1.3-2.9 1.3q-0.2 0-0.3 0c-1.8-0.1-3.3-0.8-4.5-1.3c-3.1-1.5-5.7-3.6-7.9-6.2c-1.9-2.2-3.1-4.3-3.9-6.5c-0.4-0.9-0.8-2.3-0.7-3.8q0.1-1.3 1.1-2.3l1.7-1.8h0.1c0.5-0.5 1.1-0.7 1.7-0.7c0.6 0 1.2 0.2 1.7 0.7q0.5 0.5 0.9 1q0.3 0.2 0.5 0.5l1.4 1.3c1.1 1.1 1.1 2.5 0 3.5q-0.2 0.3-0.4 0.5q-0.6 0.6-1.2 1.1c0.3 0.7 0.7 1.4 1.4 2.2c1.3 1.6 2.6 2.8 4.1 3.8q0.3 0.1 0.5 0.3q0.2 0.1 0.4 0.2l1.6-1.6c0.5-0.6 1.1-0.8 1.8-0.8c0.6 0 1.2 0.3 1.7 0.8zm-1 2.5q0 0 0 0q-0.3 0.3-0.6 0.6q-0.5 0.5-1 1c-0.5 0.6-1.1 0.8-1.9 0.8q-0.1 0-0.2 0c-1.5-0.1-2.9-0.6-4-1.1c-2.9-1.4-5.4-3.4-7.5-5.9c-1.7-2.1-2.9-4-3.6-6.1c-0.5-1.2-0.7-2.2-0.6-3.1q0.1-0.9 0.7-1.5l1.7-1.8q0.4-0.3 0.8-0.3c0.3 0 0.6 0.2 0.7 0.3h0.1q0.4 0.5 0.9 0.9q0.2 0.3 0.5 0.5l1.3 1.4c0.6 0.6 0.6 1 0 1.6q-0.2 0.2-0.4 0.4q-0.6 0.7-1.3 1.3q0 0 0 0c-0.4 0.4-0.3 0.8-0.3 1.1l0.1 0.1c0.3 0.9 0.8 1.7 1.6 2.6v0.1c1.4 1.7 2.9 3 4.5 4q0.3 0.2 0.6 0.4q0.3 0.1 0.5 0.3q0.1 0 0.1 0q0.2 0.1 0.5 0.1c0.4 0 0.7-0.2 0.8-0.3l1.7-1.8c0.2-0.1 0.4-0.3 0.8-0.3c0.3 0 0.5 0.2 0.7 0.3l2.8 2.8q0.8 0.8 0 1.6zm0 0m-7.8-14.5c-0.4 0-0.6-0.4-0.6-0.8c0.1-0.3 0.4-0.6 0.8-0.5c1.6 0.2 3.1 1 4.3 2.2c1.1 1.1 1.9 2.6 2.2 4.2c0 0.4-0.2 0.7-0.6 0.8q-0.1 0-0.1 0c-0.4 0-0.6-0.2-0.7-0.6c-0.2-1.3-0.8-2.5-1.8-3.5c-1-0.9-2.2-1.6-3.5-1.8zm0 0m11 4.9c0.1 0.4-0.2 0.7-0.6 0.8q0 0-0.1 0c-0.3 0-0.6-0.2-0.6-0.6c-0.4-2.3-1.6-4.5-3.3-6.2c-1.7-1.7-3.8-2.8-6.2-3.2c-0.4-0.1-0.6-0.4-0.6-0.8c0.1-0.4 0.4-0.6 0.8-0.6c2.7 0.5 5.1 1.7 7 3.6c1.9 1.9 3.2 4.4 3.6 7zm0 0" />
</svg>