<svg version="1.2" xmlns="http://www.w3.org/2000/svg" viewBox="0 0 68 66" width="68" height="66">
	<title>Quote</title>
	<style>
		.s0 { fill: #f8f8f8 } 
	</style>
	<path id="Quote" class="s0" d="m2 17.5q0-0.1 0-0.1c0-8.5 6.9-15.4 15.5-15.4c8.5 0 15.5 6.9 15.5 15.4c0 8.5-7 15.5-15.5 15.5c-1.8 0-3.5-0.3-5-0.9c3.5 19.9 19 32.8 4.6 22.2c-16-11.7-15.1-36.3-15.1-36.7zm0 0m49.5 15.4c-1.7 0-3.4-0.3-5-0.9c3.5 19.9 19.1 32.8 4.6 22.2c-16-11.7-15.1-36.3-15.1-36.7q0-0.1 0-0.1c0-8.5 7-15.4 15.5-15.4c8.6 0 15.5 6.9 15.5 15.4c0 8.5-6.9 15.5-15.5 15.5zm0 0" />
</svg>