<svg version="1.2" xmlns="http://www.w3.org/2000/svg" viewBox="0 0 35 29" width="35" height="29">
	<title>Icon</title>
	<style>
		.s0 { fill: #38e171 } 
	</style>
	<path id="Icon" class="s0" d="m29.4 5.2q-0.2-0.2-0.2-0.5q0-0.3 0.2-0.5c0.3-0.3 0.8-0.3 1 0q0.2 0.2 0.2 0.5q0 0.3-0.2 0.5q-0.2 0.2-0.5 0.2q-0.3 0-0.5-0.2zm1 12.3l-1.2 1.2q-0.1 0.1-0.1 0.1q-0.2 0.4-0.5 0.7c-0.5 0.5-1.1 0.7-1.7 0.7c0 0.7-0.3 1.3-0.7 1.7c-0.5 0.4-1 0.7-1.7 0.7c0 0.6-0.2 1.2-0.7 1.6c-0.4 0.5-1 0.7-1.7 0.7c0 0.7-0.2 1.3-0.7 1.7c-0.4 0.5-1 0.7-1.7 0.7c-0.6 0-1.2-0.2-1.6-0.7l-1.1-1l-0.8 0.7c-0.4 0.5-1 0.7-1.7 0.7c-0.6 0-1.2-0.2-1.6-0.7c-0.5-0.4-0.7-1-0.7-1.6c-0.7 0-1.3-0.3-1.7-0.7c-0.5-0.5-0.7-1.1-0.7-1.7c-0.6 0-1.2-0.2-1.7-0.7c-0.4-0.4-0.7-1-0.7-1.6c-0.6 0-1.2-0.3-1.6-0.7c-0.4-0.4-0.7-0.9-0.7-1.5q-0.1 0-0.1-0.1l-0.3-0.2c-1.7-1.8-2.7-4.1-2.7-6.6c0-2.5 1-4.9 2.7-6.7c1.8-1.7 4.2-2.7 6.7-2.7c2.3 0 4.5 0.8 6.2 2.3c1.4-1.2 3-2 4.9-2.2c2-0.3 4 0.1 5.8 1.1c0.3 0.1 0.5 0.6 0.3 0.9q-0.2 0.3-0.5 0.4q-0.3 0.1-0.5-0.1c-3.1-1.7-7-1.1-9.5 1.4l-4.2 4.1c-0.5 0.5-0.5 1.3 0 1.8q0.4 0.3 0.9 0.4q0.5-0.1 0.9-0.4l1.8-1.8q0.3-0.2 0.6-0.2h2.3c0.8 0 1.5-0.3 2-0.9l1.2-1.2c0.3-0.2 0.8-0.2 1.1 0c0.2 0.3 0.2 0.8 0 1.1l-1.2 1.2q-0.5 0.4-1 0.7l6.1 6.1q0.2 0.2 0.4 0.6l0.3-0.3c2.6-2.5 3.1-6.5 1.3-9.5c-0.2-0.4 0-0.8 0.3-1q0.3-0.2 0.6-0.1q0.3 0.1 0.4 0.3c2.1 3.7 1.5 8.3-1.5 11.3zm-10.1-3.8c-0.3 0.2-0.3 0.7 0 1l4.9 4.8c0.3 0.4 0.3 1 0 1.4c-0.4 0.3-1 0.3-1.4 0l-4.8-4.9c-0.3-0.3-0.8-0.3-1.1 0c-0.3 0.3-0.3 0.7 0 1l4.9 4.9c0.4 0.4 0.4 1 0 1.3c-0.4 0.4-1 0.4-1.3 0l-2.5-2.5q-0.1-0.1-0.2-0.1l-0.7-0.7c-0.3-0.3-0.8-0.3-1 0c-0.3 0.3-0.3 0.7 0 1l3.3 3.4c0.4 0.3 0.4 0.9 0 1.3c-0.3 0.4-1 0.4-1.3 0l-1.2-1.2q0.1-0.4 0.1-0.8c0-0.6-0.3-1.2-0.7-1.7c-0.5-0.4-1-0.7-1.7-0.7c0-0.6-0.2-1.2-0.7-1.6c-0.4-0.5-1-0.7-1.6-0.7c0-0.7-0.3-1.3-0.7-1.7c-0.5-0.4-1.1-0.7-1.7-0.7c0-0.6-0.3-1.2-0.7-1.7c-0.5-0.4-1.1-0.7-1.7-0.7c-0.6 0-1.2 0.3-1.7 0.7l-1 1.1q-0.2 0.1-0.3 0.3c-1.3-1.5-2.1-3.4-2.1-5.3c0-2.2 0.9-4.1 2.4-5.6c1.5-1.5 3.5-2.4 5.6-2.4c1.9 0 3.7 0.7 5.1 1.9l-3.6 3.6c-0.5 0.5-0.8 1.2-0.8 1.9c0 0.7 0.3 1.4 0.8 1.9c0.5 0.5 1.2 0.8 1.9 0.8c0.8 0 1.4-0.3 1.9-0.8l1.7-1.6h2q0.3 0 0.5 0l6.6 6.6c0.4 0.3 0.4 0.9 0 1.3c-0.3 0.4-1 0.4-1.3 0l-4.9-4.8q-0.2-0.3-0.5-0.3q0 0 0 0q-0.3 0-0.5 0.3zm-6.4 11.6c-0.4-0.4-0.4-1 0-1.3l1-1.1q0.3-0.2 0.7-0.2q0.4 0 0.7 0.2q0.2 0.3 0.2 0.7q0 0.4-0.2 0.7l-1.1 1c-0.3 0.4-1 0.4-1.3 0zm-7.1-8.4l1-1q0.3-0.3 0.7-0.3q0.4 0 0.7 0.3c0.3 0.3 0.3 0.9 0 1.3l-1.1 1c-0.3 0.4-0.9 0.4-1.3 0q-0.3-0.2-0.3-0.6q0-0.4 0.3-0.7zm2.4 2.4l1-1.1q0.3-0.2 0.7-0.2q0.4 0 0.6 0.2c0.4 0.4 0.4 1 0 1.4l-1 1c-0.4 0.3-1 0.3-1.3 0q-0.3-0.3-0.3-0.7q0-0.4 0.3-0.6zm2.3 2.3l1.1-1c0.3-0.4 0.9-0.4 1.3 0c0.4 0.3 0.4 0.9 0 1.3l-1 1.1c-0.4 0.3-1 0.3-1.4 0q-0.3-0.3-0.3-0.7q0-0.4 0.3-0.7zm5.1-3.2q0.2 0.2 0.2 0.5q0 0.3-0.2 0.5q-0.2 0.2-0.5 0.2q-0.3 0-0.6-0.2q-0.2-0.2-0.2-0.5q0-0.3 0.2-0.5c0.3-0.3 0.8-0.3 1.1 0z" />
</svg>