<svg 
 xmlns="http://www.w3.org/2000/svg"
 xmlns:xlink="http://www.w3.org/1999/xlink"
 width="18px" height="16px">
<path fill-rule="evenodd"  fill="rgb(6, 142, 254)"
 d="M13.862,12.755 C14.027,13.628 14.393,14.460 14.932,15.129 C15.064,15.293 15.089,15.520 14.993,15.709 C14.903,15.888 14.721,15.999 14.524,15.999 C13.247,15.999 11.558,15.213 10.523,13.764 C10.015,13.831 9.505,13.866 9.000,13.866 C4.057,13.866 -0.000,10.756 -0.000,6.933 C-0.000,3.110 4.057,-0.001 9.000,-0.001 C13.943,-0.001 18.000,3.110 18.000,6.933 C18.000,9.284 16.403,11.485 13.862,12.755 ZM4.781,5.333 C3.909,5.333 3.199,6.051 3.199,6.933 C3.199,7.815 3.909,8.533 4.781,8.533 C5.654,8.533 6.363,7.815 6.363,6.933 C6.363,6.051 5.654,5.333 4.781,5.333 ZM9.000,5.333 C8.128,5.333 7.418,6.051 7.418,6.933 C7.418,7.815 8.128,8.533 9.000,8.533 C9.872,8.533 10.582,7.815 10.582,6.933 C10.582,6.051 9.872,5.333 9.000,5.333 ZM13.219,5.333 C12.346,5.333 11.637,6.051 11.637,6.933 C11.637,7.815 12.346,8.533 13.219,8.533 C14.091,8.533 14.801,7.815 14.801,6.933 C14.801,6.051 14.091,5.333 13.219,5.333 ZM13.219,7.466 C12.927,7.466 12.691,7.227 12.691,6.933 C12.691,6.638 12.927,6.399 13.219,6.399 C13.510,6.399 13.746,6.638 13.746,6.933 C13.746,7.227 13.510,7.466 13.219,7.466 ZM9.000,7.466 C8.709,7.466 8.473,7.227 8.473,6.933 C8.473,6.638 8.709,6.399 9.000,6.399 C9.291,6.399 9.527,6.638 9.527,6.933 C9.527,7.227 9.291,7.466 9.000,7.466 ZM4.781,7.466 C4.490,7.466 4.254,7.227 4.254,6.933 C4.254,6.638 4.490,6.399 4.781,6.399 C5.073,6.399 5.309,6.638 5.309,6.933 C5.309,7.227 5.073,7.466 4.781,7.466 Z"/>
</svg>