<svg version="1.2" xmlns="http://www.w3.org/2000/svg" viewBox="0 0 68 65" width="68" height="65">
	<title>Quote</title>
	<style>
		.s0 { fill: #f8f8f8 } 
	</style>
	<path id="Quote" class="s0" d="m66 16.5c0 0.4 0.9 25-15.1 36.7c-14.4 10.6 1.1-2.3 4.6-22.2c-1.5 0.6-3.2 0.9-5 0.9c-8.5 0-15.5-7-15.5-15.5c0-8.5 7-15.4 15.5-15.4c8.6 0 15.5 6.9 15.5 15.4q0 0 0 0.1zm0 0m-49.5 15.4c-8.6 0-15.5-7-15.5-15.5c0-8.5 6.9-15.4 15.5-15.4c8.5 0 15.4 6.9 15.4 15.4q0 0 0 0.1c0.1 0.4 1 25-15 36.7c-14.5 10.6 1.1-2.3 4.6-22.2c-1.6 0.6-3.3 0.9-5 0.9zm0 0" />
</svg>