<svg version="1.2" xmlns="http://www.w3.org/2000/svg" viewBox="0 0 19 20" width="19" height="20">
	<title>Icon</title>
	<style>
		.s0 { fill: #53d575 } 
	</style>
	<path id="Icon" class="s0" d="m14.2 12.6q0.9 0.9 1.9 1.9c0.5 0.5 0.5 1.2 0 1.7c-0.4 0.4-0.8 0.7-1.1 1.1c-0.5 0.6-1.1 0.7-1.8 0.7c-1.1-0.1-2-0.4-3-0.9q-3-1.4-5.2-4.1c-1.1-1.2-2-2.6-2.6-4.2c-0.2-0.8-0.5-1.6-0.4-2.4q0.1-0.8 0.6-1.3q0.6-0.6 1.2-1.2c0.5-0.5 1.2-0.5 1.7 0q0.5 0.5 1 1q0.4 0.4 0.9 0.9c0.5 0.6 0.5 1.2 0 1.7q-0.6 0.6-1.2 1.2c-0.1 0.1-0.1 0.2 0 0.3c0.2 0.7 0.6 1.2 1 1.7c0.9 1.1 1.8 2 3 2.7c0.2 0.2 0.5 0.3 0.8 0.4q0.1 0.1 0.3 0q0.6-0.6 1.2-1.2c0.5-0.5 1.1-0.5 1.7 0zm0 0m-0.7-2.7c-0.1-0.8-0.5-1.6-1.2-2.3c-0.6-0.6-1.5-1-2.4-1.2l0.2-1.2c1.2 0.2 2.3 0.7 3.1 1.6c0.8 0.8 1.4 1.8 1.6 2.9l-1.3 0.2zm0 0m1.9-5.3c1.4 1.3 2.3 3 2.6 4.9l-1.2 0.2c-0.3-1.6-1.1-3.1-2.2-4.2c-1.3-1.2-2.8-2-4.5-2.3l0.2-1.2c1.9 0.3 3.7 1.2 5.1 2.6zm0 0" />
</svg>